<?xml version="1.0" encoding="UTF-8" standalone="no"?>
<!-- Created with Inkscape (http://www.inkscape.org/) -->

<svg
   width="171mm"
   height="127.001mm"
   viewBox="0 0 171 127.001"
   version="1.1"
   id="svg785"
   inkscape:version="1.2 (dc2aeda, 2022-05-15)"
   sodipodi:docname="mutations-on-tree-2.svg"
   xml:space="preserve"
   xmlns:inkscape="http://www.inkscape.org/namespaces/inkscape"
   xmlns:sodipodi="http://sodipodi.sourceforge.net/DTD/sodipodi-0.dtd"
   xmlns="http://www.w3.org/2000/svg"
   xmlns:svg="http://www.w3.org/2000/svg"><sodipodi:namedview
     id="namedview787"
     pagecolor="#ffffff"
     bordercolor="#000000"
     borderopacity="0.25"
     inkscape:showpageshadow="2"
     inkscape:pageopacity="0.0"
     inkscape:pagecheckerboard="0"
     inkscape:deskcolor="#d1d1d1"
     inkscape:document-units="mm"
     showgrid="false"
     inkscape:zoom="1.5223261"
     inkscape:cx="324.17496"
     inkscape:cy="361.61766"
     inkscape:window-width="1728"
     inkscape:window-height="1051"
     inkscape:window-x="0"
     inkscape:window-y="38"
     inkscape:window-maximized="0"
     inkscape:current-layer="layer1"
     showguides="true"><inkscape:page
       x="0"
       y="0"
       width="171"
       height="127.001"
       id="page12519" /><inkscape:page
       x="273"
       y="0"
       width="17.286102"
       height="162.63055"
       id="page12521" /><sodipodi:guide
       position="242.62751,56.480195"
       orientation="1,0"
       id="guide13086"
       inkscape:locked="false" /><inkscape:page
       x="300.2861"
       y="0"
       width="38.100006"
       height="10.936111"
       id="page35583" /></sodipodi:namedview><defs
     id="defs782"><marker
       style="overflow:visible"
       id="TriangleStart"
       refX="0"
       refY="0"
       orient="40"
       inkscape:stockid="TriangleStart"
       markerWidth="5.3244081"
       markerHeight="6.155385"
       viewBox="0 0 5.3244081 6.1553851"
       inkscape:isstock="true"
       inkscape:collect="always"
       preserveAspectRatio="xMidYMid"><path
         transform="scale(0.5)"
         style="fill:context-stroke;fill-rule:evenodd;stroke:context-stroke;stroke-width:1pt"
         d="M 5.77,0 -2.88,5 V -5 Z"
         id="path135" /></marker><linearGradient
       id="linearGradient982"
       inkscape:swatch="solid"><stop
         style="stop-color:#fefefe;stop-opacity:1;"
         offset="0"
         id="stop980" /></linearGradient><clipPath
       clipPathUnits="userSpaceOnUse"
       id="clipPath185"><path
         d="m 8.22,8.22 h 490.3 v 490.3 H 8.22 Z"
         id="path183" /></clipPath><clipPath
       clipPathUnits="userSpaceOnUse"
       id="clipPath12957"><path
         d="M 0.59019899,0.07199841 H 49.590198 V 461.072 H 0.59019899 Z"
         id="path12959"
         style="stroke-width:0.999998" /></clipPath><clipPath
       clipPathUnits="userSpaceOnUse"
       id="clipPath12961"><path
         d="M 0.59019899,0.07199841 H 49.590198 V 461.072 H 0.59019899 Z"
         id="path12963"
         style="stroke-width:0.999998" /></clipPath><clipPath
       clipPathUnits="userSpaceOnUse"
       id="clipPath12965"><path
         d="M 0.59019899,0.07199841 H 49.590198 V 461.072 H 0.59019899 Z"
         id="path12967"
         style="stroke-width:0.999998" /></clipPath><clipPath
       clipPathUnits="userSpaceOnUse"
       id="clipPath12969"><path
         d="M 0.59019899,0.07199841 H 49.590198 V 461.072 H 0.59019899 Z"
         id="path12971"
         style="stroke-width:0.999998" /></clipPath><clipPath
       clipPathUnits="userSpaceOnUse"
       id="clipPath12973"><path
         d="M 0.59019899,0.07199841 H 49.590198 V 461.072 H 0.59019899 Z"
         id="path12975"
         style="stroke-width:0.999998" /></clipPath><clipPath
       clipPathUnits="userSpaceOnUse"
       id="clipPath12977"><path
         d="M 0.59019899,0.07199841 H 49.590198 V 461.072 H 0.59019899 Z"
         id="path12979"
         style="stroke-width:0.999998" /></clipPath><clipPath
       clipPathUnits="userSpaceOnUse"
       id="clipPath12981"><path
         d="M 0.59019899,0.07199841 H 49.590198 V 461.072 H 0.59019899 Z"
         id="path12983"
         style="stroke-width:0.999998" /></clipPath><clipPath
       clipPathUnits="userSpaceOnUse"
       id="clipPath12985"><path
         d="M 0.59019899,0.07199841 H 49.590198 V 461.072 H 0.59019899 Z"
         id="path12987"
         style="stroke-width:0.999998" /></clipPath><clipPath
       clipPathUnits="userSpaceOnUse"
       id="clipPath12989"><path
         d="M 0.59019899,0.07199841 H 49.590198 V 461.072 H 0.59019899 Z"
         id="path12991"
         style="stroke-width:0.999998" /></clipPath><clipPath
       clipPathUnits="userSpaceOnUse"
       id="clipPath12993"><path
         d="M 0.59019899,0.07199841 H 49.590198 V 461.072 H 0.59019899 Z"
         id="path12995"
         style="stroke-width:0.999998" /></clipPath><clipPath
       clipPathUnits="userSpaceOnUse"
       id="clipPath12997"><path
         d="M 0.59019899,0.07199841 H 49.590198 V 461.072 H 0.59019899 Z"
         id="path12999"
         style="stroke-width:0.999998" /></clipPath><clipPath
       clipPathUnits="userSpaceOnUse"
       id="clipPath13001"><path
         d="M 0.59019899,0.07199841 H 49.590198 V 461.072 H 0.59019899 Z"
         id="path13003"
         style="stroke-width:0.999998" /></clipPath><clipPath
       clipPathUnits="userSpaceOnUse"
       id="clipPath13005"><path
         d="M 0.59019899,0.07199841 H 49.590198 V 461.072 H 0.59019899 Z"
         id="path13007"
         style="stroke-width:0.999998" /></clipPath><clipPath
       clipPathUnits="userSpaceOnUse"
       id="clipPath13009"><path
         d="M 0.59019899,0.07199841 H 49.590198 V 461.072 H 0.59019899 Z"
         id="path13011"
         style="stroke-width:0.999998" /></clipPath><clipPath
       clipPathUnits="userSpaceOnUse"
       id="clipPath13013"><path
         d="M 0.59019899,0.07199841 H 49.590198 V 461.072 H 0.59019899 Z"
         id="path13015"
         style="stroke-width:0.999998" /></clipPath><clipPath
       clipPathUnits="userSpaceOnUse"
       id="clipPath13017"><path
         d="M 0.59019899,0.07199841 H 49.590198 V 461.072 H 0.59019899 Z"
         id="path13019"
         style="stroke-width:0.999998" /></clipPath><clipPath
       clipPathUnits="userSpaceOnUse"
       id="clipPath13021"><path
         d="M 0.59019899,0.07199841 H 49.590198 V 461.072 H 0.59019899 Z"
         id="path13023"
         style="stroke-width:0.999998" /></clipPath><clipPath
       clipPathUnits="userSpaceOnUse"
       id="clipPath13025"><path
         d="M 0.59019899,0.07199841 H 49.590198 V 461.072 H 0.59019899 Z"
         id="path13027"
         style="stroke-width:0.999998" /></clipPath><clipPath
       clipPathUnits="userSpaceOnUse"
       id="clipPath13029"><path
         d="M 0.59019899,0.07199841 H 49.590198 V 461.072 H 0.59019899 Z"
         id="path13031"
         style="stroke-width:0.999998" /></clipPath><clipPath
       clipPathUnits="userSpaceOnUse"
       id="clipPath13039"><path
         d="M -2.5984252e-5,-1.594488e-5 H 489.99992 V 4609.9995 H -2.5984252e-5 Z"
         id="path13041"
         style="stroke-width:9.99997" /></clipPath><clipPath
       clipPathUnits="userSpaceOnUse"
       id="clipPath35565"><path
         d="M 0.932203,0.468 H 108.9322 v 31 H 0.932203 Z"
         id="path35563" /></clipPath><marker
       style="overflow:visible"
       id="TriangleStart-7"
       refX="0"
       refY="0"
       orient="40"
       inkscape:stockid="TriangleStart"
       markerWidth="5.3244081"
       markerHeight="6.155385"
       viewBox="0 0 5.3244081 6.1553851"
       inkscape:isstock="true"
       inkscape:collect="always"
       preserveAspectRatio="xMidYMid"><path
         transform="scale(0.5)"
         style="fill:context-stroke;fill-rule:evenodd;stroke:context-stroke;stroke-width:1pt"
         d="M 5.77,0 -2.88,5 V -5 Z"
         id="path135-9" /></marker></defs><g
     inkscape:label="Layer 1"
     inkscape:groupmode="layer"
     id="layer1"><g
       id="g179"
       transform="matrix(0.35277776,0,0,-0.24404505,-3.0401491,122.32747)"><g
         id="g181"
         clip-path="url(#clipPath185)"><path
           d="m 8.22,8.22 h 490.3 v 490.3 H 8.22 Z"
           style="fill:#ffffff;fill-opacity:1;fill-rule:nonzero;stroke:#ffffff;stroke-width:1.07;stroke-linecap:round;stroke-linejoin:round;stroke-miterlimit:10;stroke-dasharray:none;stroke-opacity:1"
           id="path187" /><path
           d="M 37.06,124.26 V 32.72"
           style="fill:none;stroke:#000000;stroke-width:1.07;stroke-linecap:round;stroke-linejoin:round;stroke-miterlimit:10;stroke-dasharray:none;stroke-opacity:1"
           id="path189" /><path
           d="M 85.13,124.26 V 32.72"
           style="fill:none;stroke:#000000;stroke-width:1.07;stroke-linecap:round;stroke-linejoin:round;stroke-miterlimit:10;stroke-dasharray:none;stroke-opacity:1"
           id="path191" /><path
           d="M 133.2,289.24 V 32.72"
           style="fill:none;stroke:#000000;stroke-width:1.07;stroke-linecap:round;stroke-linejoin:round;stroke-miterlimit:10;stroke-dasharray:none;stroke-opacity:1"
           id="path193" /><path
           d="M 325.47,93.42 V 32.72"
           style="fill:none;stroke:#000000;stroke-width:1.07;stroke-linecap:round;stroke-linejoin:round;stroke-miterlimit:10;stroke-dasharray:none;stroke-opacity:1"
           id="path195" /><path
           d="M 373.54,50.84 V 32.72"
           style="fill:none;stroke:#000000;stroke-width:1.07;stroke-linecap:round;stroke-linejoin:round;stroke-miterlimit:10;stroke-dasharray:none;stroke-opacity:1"
           id="path197" /><path
           d="M 421.61,39.58 V 32.72"
           style="fill:none;stroke:#000000;stroke-width:1.07;stroke-linecap:round;stroke-linejoin:round;stroke-miterlimit:10;stroke-dasharray:none;stroke-opacity:1"
           id="path199" /><path
           d="M 469.68,39.58 V 32.72"
           style="fill:none;stroke:#000000;stroke-width:1.07;stroke-linecap:round;stroke-linejoin:round;stroke-miterlimit:10;stroke-dasharray:none;stroke-opacity:1"
           id="path201" /><path
           d="M 181.27,152.66 V 32.72"
           style="fill:none;stroke:#000000;stroke-width:1.07;stroke-linecap:round;stroke-linejoin:round;stroke-miterlimit:10;stroke-dasharray:none;stroke-opacity:1"
           id="path203" /><path
           d="M 229.34,39.09 V 32.72"
           style="fill:none;stroke:#000000;stroke-width:1.07;stroke-linecap:round;stroke-linejoin:round;stroke-miterlimit:10;stroke-dasharray:none;stroke-opacity:1"
           id="path205" /><path
           d="M 277.4,39.09 V 32.72"
           style="fill:none;stroke:#000000;stroke-width:1.07;stroke-linecap:round;stroke-linejoin:round;stroke-miterlimit:10;stroke-dasharray:none;stroke-opacity:1"
           id="path207" /><path
           d="m 136.95,476.23 v 0"
           style="fill:none;stroke:#000000;stroke-width:1.07;stroke-linecap:round;stroke-linejoin:round;stroke-miterlimit:10;stroke-dasharray:none;stroke-opacity:1"
           id="path209" /><path
           d="M 61.09,476.23 V 124.26"
           style="fill:none;stroke:#000000;stroke-width:1.07;stroke-linecap:round;stroke-linejoin:round;stroke-miterlimit:10;stroke-dasharray:none;stroke-opacity:1"
           id="path211" /><path
           d="M 212.81,476.23 V 289.24"
           style="fill:none;stroke:#000000;stroke-width:1.07;stroke-linecap:round;stroke-linejoin:round;stroke-miterlimit:10;stroke-dasharray:none;stroke-opacity:1"
           id="path213" /><path
           d="M 292.43,289.24 V 217.76"
           style="fill:none;stroke:#000000;stroke-width:1.07;stroke-linecap:round;stroke-linejoin:round;stroke-miterlimit:10;stroke-dasharray:none;stroke-opacity:1"
           id="path215" /><path
           d="M 367.53,217.76 V 93.42"
           style="fill:none;stroke:#000000;stroke-width:1.07;stroke-linecap:round;stroke-linejoin:round;stroke-miterlimit:10;stroke-dasharray:none;stroke-opacity:1"
           id="path217" /><path
           d="M 409.59,93.42 V 50.84"
           style="fill:none;stroke:#000000;stroke-width:1.07;stroke-linecap:round;stroke-linejoin:round;stroke-miterlimit:10;stroke-dasharray:none;stroke-opacity:1"
           id="path219" /><path
           d="M 445.64,50.84 V 39.58"
           style="fill:none;stroke:#000000;stroke-width:1.07;stroke-linecap:round;stroke-linejoin:round;stroke-miterlimit:10;stroke-dasharray:none;stroke-opacity:1"
           id="path221" /><path
           d="m 217.32,217.76 v -65.1"
           style="fill:none;stroke:#000000;stroke-width:1.07;stroke-linecap:round;stroke-linejoin:round;stroke-miterlimit:10;stroke-dasharray:none;stroke-opacity:1"
           id="path223" /><path
           d="M 253.37,152.66 V 39.09"
           style="fill:none;stroke:#000000;stroke-width:1.07;stroke-linecap:round;stroke-linejoin:round;stroke-miterlimit:10;stroke-dasharray:none;stroke-opacity:1"
           id="path225" /><path
           d="M 61.09,124.26 H 37.06"
           style="fill:none;stroke:#000000;stroke-width:1.07;stroke-linecap:round;stroke-linejoin:round;stroke-miterlimit:10;stroke-dasharray:none;stroke-opacity:1"
           id="path227" /><path
           d="M 61.09,124.26 H 85.13"
           style="fill:none;stroke:#000000;stroke-width:1.07;stroke-linecap:round;stroke-linejoin:round;stroke-miterlimit:10;stroke-dasharray:none;stroke-opacity:1"
           id="path229" /><path
           d="M 212.81,289.24 H 133.2"
           style="fill:none;stroke:#000000;stroke-width:1.07;stroke-linecap:round;stroke-linejoin:round;stroke-miterlimit:10;stroke-dasharray:none;stroke-opacity:1"
           id="path231" /><path
           d="M 367.53,93.42 H 325.47"
           style="fill:none;stroke:#000000;stroke-width:1.07;stroke-linecap:round;stroke-linejoin:round;stroke-miterlimit:10;stroke-dasharray:none;stroke-opacity:1"
           id="path233" /><path
           d="M 409.59,50.84 H 373.54"
           style="fill:none;stroke:#000000;stroke-width:1.07;stroke-linecap:round;stroke-linejoin:round;stroke-miterlimit:10;stroke-dasharray:none;stroke-opacity:1"
           id="path235" /><path
           d="M 445.64,39.58 H 421.61"
           style="fill:none;stroke:#000000;stroke-width:1.07;stroke-linecap:round;stroke-linejoin:round;stroke-miterlimit:10;stroke-dasharray:none;stroke-opacity:1"
           id="path237" /><path
           d="m 445.64,39.58 h 24.04"
           style="fill:none;stroke:#000000;stroke-width:1.07;stroke-linecap:round;stroke-linejoin:round;stroke-miterlimit:10;stroke-dasharray:none;stroke-opacity:1"
           id="path239" /><path
           d="M 217.32,152.66 H 181.27"
           style="fill:none;stroke:#000000;stroke-width:1.07;stroke-linecap:round;stroke-linejoin:round;stroke-miterlimit:10;stroke-dasharray:none;stroke-opacity:1"
           id="path241" /><path
           d="M 253.37,39.09 H 229.34"
           style="fill:none;stroke:#000000;stroke-width:1.07;stroke-linecap:round;stroke-linejoin:round;stroke-miterlimit:10;stroke-dasharray:none;stroke-opacity:1"
           id="path243" /><path
           d="M 253.37,39.09 H 277.4"
           style="fill:none;stroke:#000000;stroke-width:1.07;stroke-linecap:round;stroke-linejoin:round;stroke-miterlimit:10;stroke-dasharray:none;stroke-opacity:1"
           id="path245" /><path
           d="m 136.95,476.23 v 0"
           style="fill:none;stroke:#000000;stroke-width:1.07;stroke-linecap:round;stroke-linejoin:round;stroke-miterlimit:10;stroke-dasharray:none;stroke-opacity:1"
           id="path247" /><path
           d="M 136.95,476.23 H 61.09"
           style="fill:none;stroke:#000000;stroke-width:1.07;stroke-linecap:round;stroke-linejoin:round;stroke-miterlimit:10;stroke-dasharray:none;stroke-opacity:1"
           id="path249" /><path
           d="m 136.95,476.23 h 75.86"
           style="fill:none;stroke:#000000;stroke-width:1.07;stroke-linecap:round;stroke-linejoin:round;stroke-miterlimit:10;stroke-dasharray:none;stroke-opacity:1"
           id="path251" /><path
           d="m 212.81,289.24 h 79.62"
           style="fill:none;stroke:#000000;stroke-width:1.07;stroke-linecap:round;stroke-linejoin:round;stroke-miterlimit:10;stroke-dasharray:none;stroke-opacity:1"
           id="path253" /><path
           d="m 292.43,217.76 h 75.1"
           style="fill:none;stroke:#000000;stroke-width:1.07;stroke-linecap:round;stroke-linejoin:round;stroke-miterlimit:10;stroke-dasharray:none;stroke-opacity:1"
           id="path255" /><path
           d="m 367.53,93.42 h 42.06"
           style="fill:none;stroke:#000000;stroke-width:1.07;stroke-linecap:round;stroke-linejoin:round;stroke-miterlimit:10;stroke-dasharray:none;stroke-opacity:1"
           id="path257" /><path
           d="m 409.59,50.84 h 36.05"
           style="fill:none;stroke:#000000;stroke-width:1.07;stroke-linecap:round;stroke-linejoin:round;stroke-miterlimit:10;stroke-dasharray:none;stroke-opacity:1"
           id="path259" /><path
           d="M 292.43,217.76 H 217.32"
           style="fill:none;stroke:#000000;stroke-width:1.07;stroke-linecap:round;stroke-linejoin:round;stroke-miterlimit:10;stroke-dasharray:none;stroke-opacity:1"
           id="path261" /><path
           d="m 217.32,152.66 h 36.05"
           style="fill:none;stroke:#000000;stroke-width:1.07;stroke-linecap:round;stroke-linejoin:round;stroke-miterlimit:10;stroke-dasharray:none;stroke-opacity:1"
           id="path263" /><text
           xml:space="preserve"
           transform="matrix(1,0,0,-1,37.06,28.35)"
           style="font-variant:normal;font-weight:normal;font-size:6px;font-family:Helvetica;-inkscape-font-specification:Helvetica;writing-mode:lr-tb;fill:#000000;fill-opacity:1;fill-rule:nonzero;stroke:none"
           id="text267"><tspan
             x="0"
             y="0"
             id="tspan265">2</tspan></text><text
           xml:space="preserve"
           transform="matrix(1,0,0,-1,85.13,28.35)"
           style="font-variant:normal;font-weight:normal;font-size:6px;font-family:Helvetica;-inkscape-font-specification:Helvetica;writing-mode:lr-tb;fill:#000000;fill-opacity:1;fill-rule:nonzero;stroke:none"
           id="text271"><tspan
             x="0"
             y="0"
             id="tspan269">5</tspan></text><text
           xml:space="preserve"
           transform="matrix(1,0,0,-1,133.2,28.35)"
           style="font-variant:normal;font-weight:normal;font-size:6px;font-family:Helvetica;-inkscape-font-specification:Helvetica;writing-mode:lr-tb;fill:#000000;fill-opacity:1;fill-rule:nonzero;stroke:none"
           id="text275"><tspan
             x="0"
             y="0"
             id="tspan273">1</tspan></text><text
           xml:space="preserve"
           transform="matrix(1,0,0,-1,325.47,28.35)"
           style="font-variant:normal;font-weight:normal;font-size:6px;font-family:Helvetica;-inkscape-font-specification:Helvetica;writing-mode:lr-tb;fill:#000000;fill-opacity:1;fill-rule:nonzero;stroke:none"
           id="text279"><tspan
             x="0"
             y="0"
             id="tspan277">4</tspan></text><text
           xml:space="preserve"
           transform="matrix(1,0,0,-1,373.54,28.35)"
           style="font-variant:normal;font-weight:normal;font-size:6px;font-family:Helvetica;-inkscape-font-specification:Helvetica;writing-mode:lr-tb;fill:#000000;fill-opacity:1;fill-rule:nonzero;stroke:none"
           id="text283"><tspan
             x="0 3.336"
             y="0"
             sodipodi:role="line"
             id="tspan281">10</tspan></text><text
           xml:space="preserve"
           transform="matrix(1,0,0,-1,421.61,28.35)"
           style="font-variant:normal;font-weight:normal;font-size:6px;font-family:Helvetica;-inkscape-font-specification:Helvetica;writing-mode:lr-tb;fill:#000000;fill-opacity:1;fill-rule:nonzero;stroke:none"
           id="text287"><tspan
             x="0"
             y="0"
             id="tspan285">3</tspan></text><text
           xml:space="preserve"
           transform="matrix(1,0,0,-1,469.68,28.35)"
           style="font-variant:normal;font-weight:normal;font-size:6px;font-family:Helvetica;-inkscape-font-specification:Helvetica;writing-mode:lr-tb;fill:#000000;fill-opacity:1;fill-rule:nonzero;stroke:none"
           id="text291"><tspan
             x="0"
             y="0"
             id="tspan289">6</tspan></text><text
           xml:space="preserve"
           transform="matrix(1,0,0,-1,181.27,28.35)"
           style="font-variant:normal;font-weight:normal;font-size:6px;font-family:Helvetica;-inkscape-font-specification:Helvetica;writing-mode:lr-tb;fill:#000000;fill-opacity:1;fill-rule:nonzero;stroke:none"
           id="text295"><tspan
             x="0"
             y="0"
             id="tspan293">8</tspan></text><text
           xml:space="preserve"
           transform="matrix(1,0,0,-1,229.34,28.35)"
           style="font-variant:normal;font-weight:normal;font-size:6px;font-family:Helvetica;-inkscape-font-specification:Helvetica;writing-mode:lr-tb;fill:#000000;fill-opacity:1;fill-rule:nonzero;stroke:none"
           id="text299"><tspan
             x="0"
             y="0"
             id="tspan297">7</tspan></text><text
           xml:space="preserve"
           transform="matrix(1,0,0,-1,277.4,28.35)"
           style="font-variant:normal;font-weight:normal;font-size:6px;font-family:Helvetica;-inkscape-font-specification:Helvetica;writing-mode:lr-tb;fill:#000000;fill-opacity:1;fill-rule:nonzero;stroke:none"
           id="text303"><tspan
             x="0"
             y="0"
             id="tspan301">9</tspan></text></g></g><path
       style="fill:#fd1c0c;fill-opacity:0.988235;stroke:#551ffe;stroke-width:0.536469;stroke-dasharray:none;stroke-dashoffset:0;stroke-opacity:0.987805;marker-end:url(#TriangleStart)"
       d="m 14.010209,24.520333 9.34014,4.420912 v 0"
       id="path38096" /><path
       style="fill:#fd1c0c;fill-opacity:0.988235;stroke:#1ffef4;stroke-width:0.536;stroke-dasharray:none;stroke-dashoffset:0;stroke-opacity:0.98780501;marker-end:url(#TriangleStart-7)"
       d="m 95.288997,57.607795 9.340143,4.420912 v 0"
       id="path38096-6" /><path
       style="fill:#fd1c0c;fill-opacity:0.988235;stroke:#fe1f3a;stroke-width:0.536469;stroke-dasharray:none;stroke-dashoffset:0;stroke-opacity:0.987805;marker-end:url(#TriangleStart)"
       d="m 121.91341,82.332263 9.34014,4.420911 v 0"
       id="path38780" /><ellipse
       style="fill:#fd1c0c;fill-opacity:0.988235;stroke:none;stroke-width:0.536469;stroke-dasharray:none;stroke-dashoffset:0;stroke-opacity:0.987805"
       id="path38969"
       cx="111.95879"
       cy="119.48494"
       rx="2.0892417"
       ry="1.2752631" /><ellipse
       style="fill:#fd1c0c;fill-opacity:0.988235;stroke:none;stroke-width:0.536469;stroke-dasharray:none;stroke-dashoffset:0;stroke-opacity:0.987805"
       id="ellipse38971"
       cx="129.41011"
       cy="119.48494"
       rx="2.0892417"
       ry="1.2752631" /><ellipse
       style="fill:#fd1c0c;fill-opacity:0.988235;stroke:none;stroke-width:0.536469;stroke-dasharray:none;stroke-dashoffset:0;stroke-opacity:0.987805"
       id="ellipse38973"
       cx="145.87823"
       cy="119.65497"
       rx="2.0892417"
       ry="1.2752631" /><ellipse
       style="fill:#00ffff;fill-opacity:0.988235;stroke:none;stroke-width:0.536469;stroke-dasharray:none;stroke-dashoffset:0;stroke-opacity:0.987805"
       id="path38969-6"
       cx="61.946396"
       cy="119.49077"
       rx="2.0892417"
       ry="1.2752631" /><ellipse
       style="fill:#00ffff;fill-opacity:0.988235;stroke:none;stroke-width:0.536469;stroke-dasharray:none;stroke-dashoffset:0;stroke-opacity:0.987805"
       id="ellipse38971-6"
       cx="79.397705"
       cy="119.49077"
       rx="2.0892417"
       ry="1.2752631" /><ellipse
       style="fill:#00ffff;fill-opacity:0.988235;stroke:none;stroke-width:0.536469;stroke-dasharray:none;stroke-dashoffset:0;stroke-opacity:0.987805"
       id="ellipse38973-6"
       cx="95.865829"
       cy="119.6608"
       rx="2.0892417"
       ry="1.2752631" /><ellipse
       style="fill:#fd1c0c;fill-opacity:0.988235;stroke:none;stroke-width:0.536469;stroke-dasharray:none;stroke-dashoffset:0;stroke-opacity:0.987805"
       id="ellipse38975"
       cx="163.57535"
       cy="119.65497"
       rx="2.0892417"
       ry="1.2752631" /><ellipse
       style="fill:#00ffff;fill-opacity:0.988235;stroke:none;stroke-width:0.536469;stroke-dasharray:none;stroke-dashoffset:0;stroke-opacity:0.987805"
       id="path38969-7"
       cx="112.19052"
       cy="123.14062"
       rx="2.0892417"
       ry="1.2752631" /><ellipse
       style="fill:#00ffff;fill-opacity:0.988235;stroke:none;stroke-width:0.536469;stroke-dasharray:none;stroke-dashoffset:0;stroke-opacity:0.987805"
       id="ellipse38971-0"
       cx="129.64183"
       cy="123.14062"
       rx="2.0892417"
       ry="1.2752631" /><ellipse
       style="fill:#00ffff;fill-opacity:0.988235;stroke:none;stroke-width:0.536469;stroke-dasharray:none;stroke-dashoffset:0;stroke-opacity:0.987805"
       id="ellipse38973-4"
       cx="146.10995"
       cy="123.31063"
       rx="2.0892417"
       ry="1.2752631" /><ellipse
       style="fill:#00ffff;fill-opacity:0.988235;stroke:none;stroke-width:0.536469;stroke-dasharray:none;stroke-dashoffset:0;stroke-opacity:0.987805"
       id="ellipse38975-1"
       cx="163.80707"
       cy="123.31063"
       rx="2.0892417"
       ry="1.2752631" /><ellipse
       style="fill:#551ffe;fill-opacity:1;stroke:none;stroke-width:0.536469;stroke-dasharray:none;stroke-dashoffset:0;stroke-opacity:0.987805"
       id="ellipse39110"
       cx="9.7088318"
       cy="119.48494"
       rx="2.0892417"
       ry="1.2752631" /><ellipse
       style="fill:#551ffe;fill-opacity:1;stroke:none;stroke-width:0.536469;stroke-dasharray:none;stroke-dashoffset:0;stroke-opacity:0.987805"
       id="ellipse39112"
       cx="27.160147"
       cy="119.48494"
       rx="2.0892417"
       ry="1.2752631" /></g><g
     id="g12461"
     transform="matrix(0.35277777,0,0,-0.35277776,273,162.63055)"><g
       id="g12463"
       transform="matrix(1e-6,0,0,1e-6,24.5,230.5)"><path
         d="m 0,0 c 60,108 97,116 101,120 4,-4 -69,-5 3,-23 -55,-2 -6,0 11,4 C 54,52 61,34 74,107 113,50 116,80 111,90 100,68 69,106 57,118 69,100 55,85 118,85 56,56 119,102 86,110 111,61 34,62 65,65 65,67 75,72 105,99 98,90 68,76 83,115 78,65 70,73 89,110 88,109 117,56 82,86 50,54 71,83 121,67 113,53 76,85 51,108 c 69,-18 49,-29 28,13 2,-12 -32,-40 25,-53 -37,22 -20,48 9,36 -6,15 2,18 -44,-50 2,15 11,57 -17,44 C 88,56 87,78 105,67 76,100 43,105 81,109 110,83 54,48 57,99 c 11,20 -10,3 63,11 -52,-4 -40,0 -63,-60 17,21 47,34 27,28 33,20 13,42 33,20 C 87,57 115,49 118,89 48,47 99,80 68,111 43,79 106,90 80,84 c 34,27 23,-1 26,23 1,-35 -24,14 16,-2 -20,-24 -66,-31 -3,4 -15,-36 -40,3 -45,-34 8,43 37,45 0,46 32,-2 -3,-42 34,-68 -1,-6 9,3 -57,-2 64,54 37,27 14,60 33,-34 51,1 19,-37 35,-9 22,11 -8,39 9,-61 44,-6 14,1 20,-43 8,-14 25,2 -34,-59 3,-29 -65,-73 4,6 31,64 37,61 26,4 -21,-20 26,-37 2,-19 -43,4 -61,18 33,30 65,14 2,12 -1,-15 24,-28 64,12 -7,8 -51,-55 -3,-35 -18,31 -48,0 -17,12 1,25 -49,-35 3,34 5,-16 -27,-53 -34,-16 53,-39 52,-30 10,-6 -9,-21 10,-30 34,14 -59,0 -37,-7 -29,-3 15,-55 28,-28 21,-26 -30,39 17,-17 -30,39 3,-49 17,-49 30,-55 -30,45 17,-19 12,34 -12,-24 -27,8 -17,-22 -29,1 13,3 24,-31 -70,63 -70,51 -46,9 4,33 -5,48 5,16 23,39 -29,-2 4,-22 -20,70 -1,21 4,63 -2,-26 20,-67 -42,-65 19,62 63,-1 24,-1 -18,27 48,74 34,34 -31,-5 -21,31 -32,2 -16,20 12,-15 16,35 -5,0 -41,-40 -14,-36 25,6 40,26 32,26 C 69,79 89,48 43,121 118,69 89,56 81,82 c 27,26 28,-32 20,-1 5,6 -47,34 13,33 -3,-6 1,3 -27,-16 C 86,83 57,98 70,83 98,78 52,116 52,121 105,65 99,51 65,66 114,111 65,70 54,113 65,74 72,107 65,76 100,65 65,71 122,43 65,86 102,73 66,80 55,85 86,55 48,55 c 6,-7 69,43 65,-1 -2,29 -64,56 9,61 -55,-13 -74,-1 -69,-68 12,26 66,63 57,6 -25,8 -50,-6 -2,44 8,4 12,8 8,-35 z"
         style="fill:none;stroke:#000000;stroke-width:1;stroke-linecap:butt;stroke-linejoin:miter;stroke-miterlimit:10;stroke-dasharray:none;stroke-opacity:0"
         id="path12465" /></g></g><g
     id="g35553"
     transform="matrix(0.35277777,0,0,-0.35277776,300.2861,10.936111)"><g
       id="g35555"
       transform="matrix(1e-6,0,0,1e-6,54,15.5)"><path
         d="m 0,0 c 60,108 97,116 101,120 4,-4 -69,-5 3,-23 -55,-2 -6,0 11,4 C 54,52 61,34 50,79 48,70 55,74 109,83 72,53 51,106 85,43 119,76 77,79 57,104 68,52 75,116 52,107 107,61 34,62 65,65 65,66 43,72 105,99 98,86 68,76 83,103 77,120 70,77 51,85 c 35,-31 -1,-5 55,29 6,-66 -37,7 15,-47 -8,55 -48,39 -3,45 -20,-26 -20,4 1,-39 -33,29 -6,-6 -19,31 3,17 -3,-7 -11,-26 -5,6 -15,-10 18,26 C 72,113 48,67 57,120 52,48 73,82 116,51 54,75 79,47 47,71 84,68 115,76 98,84 48,81 79,74 120,122 76,47 102,107 66,68 c 5,38 17,38 52,11 -2,-30 -32,10 -31,7 -38,12 -36,35 17,31 4,-3 -7,-67 -4,-66 -2,25 -43,65 -47,-8 34,5 34,31 67,32 -37,-5 -47,45 -22,-1 0,37 -33,11 -9,12 -6,-5 19,27 8,11 10,-10 -45,18 -30,4 6,-35 6,-48 -18,2 39,-26 -2,-47 73,2 -43,-23 -17,2 -25,0 16,-22 2,15 -41,-21 47,13 11,20 56,-1 -6,-7 -29,-1 -10,-7 16,23 -45,4 13,23 -61,-9 -43,8 -61,1 -5,-32 -7,-12 60,13 -64,7 -27,-3 -60,2 65,-50 54,-63 55,-17 -2,21 5,-25 -61,4 20,14 66,-55 4,1 67,0 55,7 29,6 -2,-38 27,-30 32,-56 -29,60 8,4 -43,16 38,9 7,14 10,15 5,22 -23,-2 -6,-15 16,-17 32,4 23,38 -7,-53 7,-42 13,-40 -7,51 0,14 -23,35 32,7 -8,4 -19,-31 -3,18 15,31 11,-2 25,37 1,-20 -22,-21 40,27 60,22 16,36 -1,28 33,-10 3,-9 6,22 -19,-7 0,45 C 80,54 43,88 54,80 68,75 83,54 109,73 69,48 48,69 110,104 56,75 69,119 90,49 66,76 77,87 52,73 c 14,2 51,33 35,25 -16,-25 -12,21 25,-31 -23,47 8,0 -35,40 -8,-7 20,2 36,-54 -40,59 6,33 -62,3 5,50 23,56 59,-7 -12,51 -5,-6 4,4 -67,33 -5,55 -14,59 C 80,88 85,81 83,72 52,65 105,99 65,66 c 35,33 38,38 48,-14 -47,29 -62,29 -48,52 38,3 -13,-38 44,-48 -6,50 -7,58 12,32 -8,32 -70,25 -71,-8 -7,7 56,-14 71,30 -22,-31 -2,-44 -64,-21 53,33 0,-33 -14,1 33,-47 17,-43 65,7 8,4 12,8 8,-35 z"
         style="fill:none;stroke:#000000;stroke-width:1;stroke-linecap:butt;stroke-linejoin:miter;stroke-miterlimit:10;stroke-dasharray:none;stroke-opacity:0"
         id="path35557" /></g></g><g
     id="g35559"
     transform="matrix(0.35277777,0,0,-0.35277776,202.46042,98.930061)" /></svg>
