<?xml version="1.0" encoding="UTF-8" standalone="no"?>
<!-- Created with Inkscape (http://www.inkscape.org/) -->

<svg
   width="263mm"
   height="223mm"
   viewBox="0 0 263 223"
   version="1.1"
   id="svg785"
   inkscape:version="1.2 (dc2aeda, 2022-05-15)"
   sodipodi:docname="coalescent-10.svg"
   xml:space="preserve"
   xmlns:inkscape="http://www.inkscape.org/namespaces/inkscape"
   xmlns:sodipodi="http://sodipodi.sourceforge.net/DTD/sodipodi-0.dtd"
   xmlns="http://www.w3.org/2000/svg"
   xmlns:svg="http://www.w3.org/2000/svg"><sodipodi:namedview
     id="namedview787"
     pagecolor="#ffffff"
     bordercolor="#000000"
     borderopacity="0.25"
     inkscape:showpageshadow="2"
     inkscape:pageopacity="0.0"
     inkscape:pagecheckerboard="0"
     inkscape:deskcolor="#d1d1d1"
     inkscape:document-units="mm"
     showgrid="false"
     inkscape:zoom="0.53822356"
     inkscape:cx="788.70572"
     inkscape:cy="0.928982"
     inkscape:window-width="1728"
     inkscape:window-height="1051"
     inkscape:window-x="0"
     inkscape:window-y="38"
     inkscape:window-maximized="0"
     inkscape:current-layer="g35559"
     showguides="true"><inkscape:page
       x="0"
       y="0"
       width="263"
       height="223"
       id="page12519" /><inkscape:page
       x="273"
       y="0"
       width="17.286112"
       height="162.63055"
       id="page12521" /><sodipodi:guide
       position="173.63427,146.50615"
       orientation="1,0"
       id="guide13063"
       inkscape:locked="false" /><sodipodi:guide
       position="242.6276,153.4792"
       orientation="1,0"
       id="guide13086"
       inkscape:locked="false" /><sodipodi:guide
       position="143.05162,34.230856"
       orientation="0,-1"
       id="guide29778"
       inkscape:locked="false" /><inkscape:page
       x="300.2861"
       y="0"
       width="38.099998"
       height="10.936111"
       id="page35583" /></sodipodi:namedview><defs
     id="defs782"><marker
       style="overflow:visible"
       id="marker33000"
       refX="0"
       refY="0"
       orient="auto-start-reverse"
       inkscape:stockid="EmptyTriangleIn"
       markerWidth="5.8241119"
       markerHeight="6.7330775"
       viewBox="0 0 5.8241121 6.7330776"
       inkscape:isstock="true"
       inkscape:collect="always"
       preserveAspectRatio="xMidYMid"><path
         transform="scale(0.5)"
         style="fill:context-fill;fill-rule:evenodd;stroke:context-stroke;stroke-width:2"
         d="M 5.77,0 -2.88,5 V -5 Z"
         id="path32998" /></marker><marker
       style="overflow:visible"
       id="EmptyTriangleIn"
       refX="0"
       refY="0"
       orient="auto-start-reverse"
       inkscape:stockid="EmptyTriangleIn"
       markerWidth="5.8241119"
       markerHeight="6.7330775"
       viewBox="0 0 5.8241121 6.7330776"
       inkscape:isstock="true"
       inkscape:collect="always"
       preserveAspectRatio="xMidYMid"><path
         transform="scale(0.5)"
         style="fill:context-fill;fill-rule:evenodd;stroke:context-stroke;stroke-width:2"
         d="M 5.77,0 -2.88,5 V -5 Z"
         id="path153" /></marker><marker
       style="overflow:visible"
       id="Arrow2"
       refX="0"
       refY="0"
       orient="177"
       inkscape:stockid="Arrow2"
       markerWidth="4.3243752"
       markerHeight="3.145"
       viewBox="0 0 7.7 5.6"
       inkscape:isstock="true"
       inkscape:collect="always"
       preserveAspectRatio="xMidYMid"><path
         transform="scale(0.7)"
         d="M -2,-4 9,0 -2,4 c 2,-2.33 2,-5.66 0,-8 z"
         style="fill:context-stroke;fill-rule:evenodd;stroke:none"
         id="arrow2L" /></marker><linearGradient
       id="linearGradient982"
       inkscape:swatch="solid"><stop
         style="stop-color:#fefefe;stop-opacity:1;"
         offset="0"
         id="stop980" /></linearGradient><clipPath
       clipPathUnits="userSpaceOnUse"
       id="clipPath185"><path
         d="m 8.22,8.22 h 490.3 v 490.3 H 8.22 Z"
         id="path183" /></clipPath><clipPath
       clipPathUnits="userSpaceOnUse"
       id="clipPath12957"><path
         d="M 0.59019899,0.07199841 H 49.590198 V 461.072 H 0.59019899 Z"
         id="path12959"
         style="stroke-width:0.999998" /></clipPath><clipPath
       clipPathUnits="userSpaceOnUse"
       id="clipPath12961"><path
         d="M 0.59019899,0.07199841 H 49.590198 V 461.072 H 0.59019899 Z"
         id="path12963"
         style="stroke-width:0.999998" /></clipPath><clipPath
       clipPathUnits="userSpaceOnUse"
       id="clipPath12965"><path
         d="M 0.59019899,0.07199841 H 49.590198 V 461.072 H 0.59019899 Z"
         id="path12967"
         style="stroke-width:0.999998" /></clipPath><clipPath
       clipPathUnits="userSpaceOnUse"
       id="clipPath12969"><path
         d="M 0.59019899,0.07199841 H 49.590198 V 461.072 H 0.59019899 Z"
         id="path12971"
         style="stroke-width:0.999998" /></clipPath><clipPath
       clipPathUnits="userSpaceOnUse"
       id="clipPath12973"><path
         d="M 0.59019899,0.07199841 H 49.590198 V 461.072 H 0.59019899 Z"
         id="path12975"
         style="stroke-width:0.999998" /></clipPath><clipPath
       clipPathUnits="userSpaceOnUse"
       id="clipPath12977"><path
         d="M 0.59019899,0.07199841 H 49.590198 V 461.072 H 0.59019899 Z"
         id="path12979"
         style="stroke-width:0.999998" /></clipPath><clipPath
       clipPathUnits="userSpaceOnUse"
       id="clipPath12981"><path
         d="M 0.59019899,0.07199841 H 49.590198 V 461.072 H 0.59019899 Z"
         id="path12983"
         style="stroke-width:0.999998" /></clipPath><clipPath
       clipPathUnits="userSpaceOnUse"
       id="clipPath12985"><path
         d="M 0.59019899,0.07199841 H 49.590198 V 461.072 H 0.59019899 Z"
         id="path12987"
         style="stroke-width:0.999998" /></clipPath><clipPath
       clipPathUnits="userSpaceOnUse"
       id="clipPath12989"><path
         d="M 0.59019899,0.07199841 H 49.590198 V 461.072 H 0.59019899 Z"
         id="path12991"
         style="stroke-width:0.999998" /></clipPath><clipPath
       clipPathUnits="userSpaceOnUse"
       id="clipPath12993"><path
         d="M 0.59019899,0.07199841 H 49.590198 V 461.072 H 0.59019899 Z"
         id="path12995"
         style="stroke-width:0.999998" /></clipPath><clipPath
       clipPathUnits="userSpaceOnUse"
       id="clipPath12997"><path
         d="M 0.59019899,0.07199841 H 49.590198 V 461.072 H 0.59019899 Z"
         id="path12999"
         style="stroke-width:0.999998" /></clipPath><clipPath
       clipPathUnits="userSpaceOnUse"
       id="clipPath13001"><path
         d="M 0.59019899,0.07199841 H 49.590198 V 461.072 H 0.59019899 Z"
         id="path13003"
         style="stroke-width:0.999998" /></clipPath><clipPath
       clipPathUnits="userSpaceOnUse"
       id="clipPath13005"><path
         d="M 0.59019899,0.07199841 H 49.590198 V 461.072 H 0.59019899 Z"
         id="path13007"
         style="stroke-width:0.999998" /></clipPath><clipPath
       clipPathUnits="userSpaceOnUse"
       id="clipPath13009"><path
         d="M 0.59019899,0.07199841 H 49.590198 V 461.072 H 0.59019899 Z"
         id="path13011"
         style="stroke-width:0.999998" /></clipPath><clipPath
       clipPathUnits="userSpaceOnUse"
       id="clipPath13013"><path
         d="M 0.59019899,0.07199841 H 49.590198 V 461.072 H 0.59019899 Z"
         id="path13015"
         style="stroke-width:0.999998" /></clipPath><clipPath
       clipPathUnits="userSpaceOnUse"
       id="clipPath13017"><path
         d="M 0.59019899,0.07199841 H 49.590198 V 461.072 H 0.59019899 Z"
         id="path13019"
         style="stroke-width:0.999998" /></clipPath><clipPath
       clipPathUnits="userSpaceOnUse"
       id="clipPath13021"><path
         d="M 0.59019899,0.07199841 H 49.590198 V 461.072 H 0.59019899 Z"
         id="path13023"
         style="stroke-width:0.999998" /></clipPath><clipPath
       clipPathUnits="userSpaceOnUse"
       id="clipPath13025"><path
         d="M 0.59019899,0.07199841 H 49.590198 V 461.072 H 0.59019899 Z"
         id="path13027"
         style="stroke-width:0.999998" /></clipPath><clipPath
       clipPathUnits="userSpaceOnUse"
       id="clipPath13029"><path
         d="M 0.59019899,0.07199841 H 49.590198 V 461.072 H 0.59019899 Z"
         id="path13031"
         style="stroke-width:0.999998" /></clipPath><clipPath
       clipPathUnits="userSpaceOnUse"
       id="clipPath13039"><path
         d="M -2.5984252e-5,-1.594488e-5 H 489.99992 V 4609.9995 H -2.5984252e-5 Z"
         id="path13041"
         style="stroke-width:9.99997" /></clipPath><clipPath
       clipPathUnits="userSpaceOnUse"
       id="clipPath35565"><path
         d="M 0.932203,0.468 H 108.9322 v 31 H 0.932203 Z"
         id="path35563" /></clipPath></defs><g
     inkscape:label="Layer 1"
     inkscape:groupmode="layer"
     id="layer1"><g
       id="g179"
       transform="matrix(0.35277776,0,0,-0.35277778,-2.5485628,200.12906)"><g
         id="g181"
         clip-path="url(#clipPath185)"><path
           d="m 8.22,8.22 h 490.3 v 490.3 H 8.22 Z"
           style="fill:#ffffff;fill-opacity:1;fill-rule:nonzero;stroke:#ffffff;stroke-width:1.07;stroke-linecap:round;stroke-linejoin:round;stroke-miterlimit:10;stroke-dasharray:none;stroke-opacity:1"
           id="path187" /><path
           d="M 37.06,124.26 V 32.72"
           style="fill:none;stroke:#000000;stroke-width:1.07;stroke-linecap:round;stroke-linejoin:round;stroke-miterlimit:10;stroke-dasharray:none;stroke-opacity:1"
           id="path189" /><path
           d="M 85.13,124.26 V 32.72"
           style="fill:none;stroke:#000000;stroke-width:1.07;stroke-linecap:round;stroke-linejoin:round;stroke-miterlimit:10;stroke-dasharray:none;stroke-opacity:1"
           id="path191" /><path
           d="M 133.2,289.24 V 32.72"
           style="fill:none;stroke:#000000;stroke-width:1.07;stroke-linecap:round;stroke-linejoin:round;stroke-miterlimit:10;stroke-dasharray:none;stroke-opacity:1"
           id="path193" /><path
           d="M 325.47,93.42 V 32.72"
           style="fill:none;stroke:#000000;stroke-width:1.07;stroke-linecap:round;stroke-linejoin:round;stroke-miterlimit:10;stroke-dasharray:none;stroke-opacity:1"
           id="path195" /><path
           d="M 373.54,50.84 V 32.72"
           style="fill:none;stroke:#000000;stroke-width:1.07;stroke-linecap:round;stroke-linejoin:round;stroke-miterlimit:10;stroke-dasharray:none;stroke-opacity:1"
           id="path197" /><path
           d="M 421.61,39.58 V 32.72"
           style="fill:none;stroke:#000000;stroke-width:1.07;stroke-linecap:round;stroke-linejoin:round;stroke-miterlimit:10;stroke-dasharray:none;stroke-opacity:1"
           id="path199" /><path
           d="M 469.68,39.58 V 32.72"
           style="fill:none;stroke:#000000;stroke-width:1.07;stroke-linecap:round;stroke-linejoin:round;stroke-miterlimit:10;stroke-dasharray:none;stroke-opacity:1"
           id="path201" /><path
           d="M 181.27,152.66 V 32.72"
           style="fill:none;stroke:#000000;stroke-width:1.07;stroke-linecap:round;stroke-linejoin:round;stroke-miterlimit:10;stroke-dasharray:none;stroke-opacity:1"
           id="path203" /><path
           d="M 229.34,39.09 V 32.72"
           style="fill:none;stroke:#000000;stroke-width:1.07;stroke-linecap:round;stroke-linejoin:round;stroke-miterlimit:10;stroke-dasharray:none;stroke-opacity:1"
           id="path205" /><path
           d="M 277.4,39.09 V 32.72"
           style="fill:none;stroke:#000000;stroke-width:1.07;stroke-linecap:round;stroke-linejoin:round;stroke-miterlimit:10;stroke-dasharray:none;stroke-opacity:1"
           id="path207" /><path
           d="m 136.95,476.23 v 0"
           style="fill:none;stroke:#000000;stroke-width:1.07;stroke-linecap:round;stroke-linejoin:round;stroke-miterlimit:10;stroke-dasharray:none;stroke-opacity:1"
           id="path209" /><path
           d="M 61.09,476.23 V 124.26"
           style="fill:none;stroke:#000000;stroke-width:1.07;stroke-linecap:round;stroke-linejoin:round;stroke-miterlimit:10;stroke-dasharray:none;stroke-opacity:1"
           id="path211" /><path
           d="M 212.81,476.23 V 289.24"
           style="fill:none;stroke:#000000;stroke-width:1.07;stroke-linecap:round;stroke-linejoin:round;stroke-miterlimit:10;stroke-dasharray:none;stroke-opacity:1"
           id="path213" /><path
           d="M 292.43,289.24 V 217.76"
           style="fill:none;stroke:#000000;stroke-width:1.07;stroke-linecap:round;stroke-linejoin:round;stroke-miterlimit:10;stroke-dasharray:none;stroke-opacity:1"
           id="path215" /><path
           d="M 367.53,217.76 V 93.42"
           style="fill:none;stroke:#000000;stroke-width:1.07;stroke-linecap:round;stroke-linejoin:round;stroke-miterlimit:10;stroke-dasharray:none;stroke-opacity:1"
           id="path217" /><path
           d="M 409.59,93.42 V 50.84"
           style="fill:none;stroke:#000000;stroke-width:1.07;stroke-linecap:round;stroke-linejoin:round;stroke-miterlimit:10;stroke-dasharray:none;stroke-opacity:1"
           id="path219" /><path
           d="M 445.64,50.84 V 39.58"
           style="fill:none;stroke:#000000;stroke-width:1.07;stroke-linecap:round;stroke-linejoin:round;stroke-miterlimit:10;stroke-dasharray:none;stroke-opacity:1"
           id="path221" /><path
           d="m 217.32,217.76 v -65.1"
           style="fill:none;stroke:#000000;stroke-width:1.07;stroke-linecap:round;stroke-linejoin:round;stroke-miterlimit:10;stroke-dasharray:none;stroke-opacity:1"
           id="path223" /><path
           d="M 253.37,152.66 V 39.09"
           style="fill:none;stroke:#000000;stroke-width:1.07;stroke-linecap:round;stroke-linejoin:round;stroke-miterlimit:10;stroke-dasharray:none;stroke-opacity:1"
           id="path225" /><path
           d="M 61.09,124.26 H 37.06"
           style="fill:none;stroke:#000000;stroke-width:1.07;stroke-linecap:round;stroke-linejoin:round;stroke-miterlimit:10;stroke-dasharray:none;stroke-opacity:1"
           id="path227" /><path
           d="M 61.09,124.26 H 85.13"
           style="fill:none;stroke:#000000;stroke-width:1.07;stroke-linecap:round;stroke-linejoin:round;stroke-miterlimit:10;stroke-dasharray:none;stroke-opacity:1"
           id="path229" /><path
           d="M 212.81,289.24 H 133.2"
           style="fill:none;stroke:#000000;stroke-width:1.07;stroke-linecap:round;stroke-linejoin:round;stroke-miterlimit:10;stroke-dasharray:none;stroke-opacity:1"
           id="path231" /><path
           d="M 367.53,93.42 H 325.47"
           style="fill:none;stroke:#000000;stroke-width:1.07;stroke-linecap:round;stroke-linejoin:round;stroke-miterlimit:10;stroke-dasharray:none;stroke-opacity:1"
           id="path233" /><path
           d="M 409.59,50.84 H 373.54"
           style="fill:none;stroke:#000000;stroke-width:1.07;stroke-linecap:round;stroke-linejoin:round;stroke-miterlimit:10;stroke-dasharray:none;stroke-opacity:1"
           id="path235" /><path
           d="M 445.64,39.58 H 421.61"
           style="fill:none;stroke:#000000;stroke-width:1.07;stroke-linecap:round;stroke-linejoin:round;stroke-miterlimit:10;stroke-dasharray:none;stroke-opacity:1"
           id="path237" /><path
           d="m 445.64,39.58 h 24.04"
           style="fill:none;stroke:#000000;stroke-width:1.07;stroke-linecap:round;stroke-linejoin:round;stroke-miterlimit:10;stroke-dasharray:none;stroke-opacity:1"
           id="path239" /><path
           d="M 217.32,152.66 H 181.27"
           style="fill:none;stroke:#000000;stroke-width:1.07;stroke-linecap:round;stroke-linejoin:round;stroke-miterlimit:10;stroke-dasharray:none;stroke-opacity:1"
           id="path241" /><path
           d="M 253.37,39.09 H 229.34"
           style="fill:none;stroke:#000000;stroke-width:1.07;stroke-linecap:round;stroke-linejoin:round;stroke-miterlimit:10;stroke-dasharray:none;stroke-opacity:1"
           id="path243" /><path
           d="M 253.37,39.09 H 277.4"
           style="fill:none;stroke:#000000;stroke-width:1.07;stroke-linecap:round;stroke-linejoin:round;stroke-miterlimit:10;stroke-dasharray:none;stroke-opacity:1"
           id="path245" /><path
           d="m 136.95,476.23 v 0"
           style="fill:none;stroke:#000000;stroke-width:1.07;stroke-linecap:round;stroke-linejoin:round;stroke-miterlimit:10;stroke-dasharray:none;stroke-opacity:1"
           id="path247" /><path
           d="M 136.95,476.23 H 61.09"
           style="fill:none;stroke:#000000;stroke-width:1.07;stroke-linecap:round;stroke-linejoin:round;stroke-miterlimit:10;stroke-dasharray:none;stroke-opacity:1"
           id="path249" /><path
           d="m 136.95,476.23 h 75.86"
           style="fill:none;stroke:#000000;stroke-width:1.07;stroke-linecap:round;stroke-linejoin:round;stroke-miterlimit:10;stroke-dasharray:none;stroke-opacity:1"
           id="path251" /><path
           d="m 212.81,289.24 h 79.62"
           style="fill:none;stroke:#000000;stroke-width:1.07;stroke-linecap:round;stroke-linejoin:round;stroke-miterlimit:10;stroke-dasharray:none;stroke-opacity:1"
           id="path253" /><path
           d="m 292.43,217.76 h 75.1"
           style="fill:none;stroke:#000000;stroke-width:1.07;stroke-linecap:round;stroke-linejoin:round;stroke-miterlimit:10;stroke-dasharray:none;stroke-opacity:1"
           id="path255" /><path
           d="m 367.53,93.42 h 42.06"
           style="fill:none;stroke:#000000;stroke-width:1.07;stroke-linecap:round;stroke-linejoin:round;stroke-miterlimit:10;stroke-dasharray:none;stroke-opacity:1"
           id="path257" /><path
           d="m 409.59,50.84 h 36.05"
           style="fill:none;stroke:#000000;stroke-width:1.07;stroke-linecap:round;stroke-linejoin:round;stroke-miterlimit:10;stroke-dasharray:none;stroke-opacity:1"
           id="path259" /><path
           d="M 292.43,217.76 H 217.32"
           style="fill:none;stroke:#000000;stroke-width:1.07;stroke-linecap:round;stroke-linejoin:round;stroke-miterlimit:10;stroke-dasharray:none;stroke-opacity:1"
           id="path261" /><path
           d="m 217.32,152.66 h 36.05"
           style="fill:none;stroke:#000000;stroke-width:1.07;stroke-linecap:round;stroke-linejoin:round;stroke-miterlimit:10;stroke-dasharray:none;stroke-opacity:1"
           id="path263" /><text
           xml:space="preserve"
           transform="matrix(1,0,0,-1,37.06,28.35)"
           style="font-variant:normal;font-weight:normal;font-size:6px;font-family:Helvetica;-inkscape-font-specification:Helvetica;writing-mode:lr-tb;fill:#000000;fill-opacity:1;fill-rule:nonzero;stroke:none"
           id="text267"><tspan
             x="0"
             y="0"
             id="tspan265">2</tspan></text><text
           xml:space="preserve"
           transform="matrix(1,0,0,-1,85.13,28.35)"
           style="font-variant:normal;font-weight:normal;font-size:6px;font-family:Helvetica;-inkscape-font-specification:Helvetica;writing-mode:lr-tb;fill:#000000;fill-opacity:1;fill-rule:nonzero;stroke:none"
           id="text271"><tspan
             x="0"
             y="0"
             id="tspan269">5</tspan></text><text
           xml:space="preserve"
           transform="matrix(1,0,0,-1,133.2,28.35)"
           style="font-variant:normal;font-weight:normal;font-size:6px;font-family:Helvetica;-inkscape-font-specification:Helvetica;writing-mode:lr-tb;fill:#000000;fill-opacity:1;fill-rule:nonzero;stroke:none"
           id="text275"><tspan
             x="0"
             y="0"
             id="tspan273">1</tspan></text><text
           xml:space="preserve"
           transform="matrix(1,0,0,-1,325.47,28.35)"
           style="font-variant:normal;font-weight:normal;font-size:6px;font-family:Helvetica;-inkscape-font-specification:Helvetica;writing-mode:lr-tb;fill:#000000;fill-opacity:1;fill-rule:nonzero;stroke:none"
           id="text279"><tspan
             x="0"
             y="0"
             id="tspan277">4</tspan></text><text
           xml:space="preserve"
           transform="matrix(1,0,0,-1,373.54,28.35)"
           style="font-variant:normal;font-weight:normal;font-size:6px;font-family:Helvetica;-inkscape-font-specification:Helvetica;writing-mode:lr-tb;fill:#000000;fill-opacity:1;fill-rule:nonzero;stroke:none"
           id="text283"><tspan
             x="0 3.336"
             y="0"
             sodipodi:role="line"
             id="tspan281">10</tspan></text><text
           xml:space="preserve"
           transform="matrix(1,0,0,-1,421.61,28.35)"
           style="font-variant:normal;font-weight:normal;font-size:6px;font-family:Helvetica;-inkscape-font-specification:Helvetica;writing-mode:lr-tb;fill:#000000;fill-opacity:1;fill-rule:nonzero;stroke:none"
           id="text287"><tspan
             x="0"
             y="0"
             id="tspan285">3</tspan></text><text
           xml:space="preserve"
           transform="matrix(1,0,0,-1,469.68,28.35)"
           style="font-variant:normal;font-weight:normal;font-size:6px;font-family:Helvetica;-inkscape-font-specification:Helvetica;writing-mode:lr-tb;fill:#000000;fill-opacity:1;fill-rule:nonzero;stroke:none"
           id="text291"><tspan
             x="0"
             y="0"
             id="tspan289">6</tspan></text><text
           xml:space="preserve"
           transform="matrix(1,0,0,-1,181.27,28.35)"
           style="font-variant:normal;font-weight:normal;font-size:6px;font-family:Helvetica;-inkscape-font-specification:Helvetica;writing-mode:lr-tb;fill:#000000;fill-opacity:1;fill-rule:nonzero;stroke:none"
           id="text295"><tspan
             x="0"
             y="0"
             id="tspan293">8</tspan></text><text
           xml:space="preserve"
           transform="matrix(1,0,0,-1,229.34,28.35)"
           style="font-variant:normal;font-weight:normal;font-size:6px;font-family:Helvetica;-inkscape-font-specification:Helvetica;writing-mode:lr-tb;fill:#000000;fill-opacity:1;fill-rule:nonzero;stroke:none"
           id="text299"><tspan
             x="0"
             y="0"
             id="tspan297">7</tspan></text><text
           xml:space="preserve"
           transform="matrix(1,0,0,-1,277.4,28.35)"
           style="font-variant:normal;font-weight:normal;font-size:6px;font-family:Helvetica;-inkscape-font-specification:Helvetica;writing-mode:lr-tb;fill:#000000;fill-opacity:1;fill-rule:nonzero;stroke:none"
           id="text303"><tspan
             x="0"
             y="0"
             id="tspan301">9</tspan></text></g></g><path
       style="fill:#00ffff;stroke:#fefefe;stroke-width:1.054;stroke-dasharray:none;stroke-opacity:1"
       d="m 101.44585,208.00849 34.03776,-0.55617"
       id="path1049" /><path
       style="fill:#00ffff;stroke:#fefefe;stroke-width:1.054;stroke-dasharray:none;stroke-opacity:1"
       d="m 136.81842,213.57022 19.0211,-6.00666"
       id="path1303" /><circle
       id="path1356"
       style="fill:#00ffff;stroke:#fefefe;stroke-width:0.264583"
       cx="99.6661"
       cy="208.23096"
       r="0.059022646" /><path
       style="fill:#0003ff;fill-opacity:1;stroke:#d653fe;stroke-width:0.454;stroke-dasharray:0.454, 0.454;stroke-opacity:0.98780501;stroke-dashoffset:0"
       d="m 1.6685173,188.65369 h 172.3022227 0.3337 v 0"
       id="path4978" /><path
       style="fill:#0003ff;fill-opacity:1;stroke:#9c53fe;stroke-width:0.454;stroke-dasharray:0.454, 0.454;stroke-dashoffset:0;stroke-opacity:0.98780501"
       d="m 1.6685173,186.53701 h 172.3022227 0.3337 v 0"
       id="path5886" /><path
       style="fill:#0003ff;fill-opacity:1;stroke:#4b10fe;stroke-width:0.454;stroke-dasharray:0.454, 0.454;stroke-dashoffset:0;stroke-opacity:0.98780501"
       d="m 1.6685173,186.00784 h 172.3022227 0.3337 v 0"
       id="path5888" /><path
       style="fill:#0003ff;fill-opacity:1;stroke:#3802fe;stroke-width:0.454;stroke-dasharray:0.454, 0.454;stroke-dashoffset:0;stroke-opacity:0.98780501"
       d="m 1.6685173,182.30365 h 172.3022227 0.3337 v 0"
       id="path5890" /><path
       style="fill:#0003ff;fill-opacity:1;stroke:#0033fe;stroke-width:0.454;stroke-dasharray:0.454, 0.454;stroke-dashoffset:0;stroke-opacity:0.98780501"
       d="m 1.6685173,166.95772 h 172.3022227 0.3337 v 0"
       id="path5892" /><path
       style="fill:#0003ff;fill-opacity:1;stroke:#038afe;stroke-width:0.454;stroke-dasharray:0.454, 0.454;stroke-dashoffset:0;stroke-opacity:0.98780501"
       d="m 1.6685173,155.84515 h 172.3022227 0.3337 v 0"
       id="path5894" /><path
       style="fill:#0003ff;fill-opacity:1;stroke:#03fe54;stroke-width:0.454;stroke-dasharray:0.454, 0.454;stroke-dashoffset:0;stroke-opacity:0.98780501"
       d="m 1.6685173,146.32009 h 172.3022227 0.3337 v 0"
       id="path5896" /><path
       style="fill:#0003ff;fill-opacity:1;stroke:#fec700;stroke-width:0.454;stroke-dasharray:0.454, 0.454;stroke-dashoffset:0;stroke-opacity:0.98780501"
       d="m 1.6685173,123.03662 h 172.3022227 0.3337 v 0"
       id="path5898" /><path
       style="fill:#0003ff;fill-opacity:1;stroke:#c153fe;stroke-width:0.454;stroke-dasharray:0.454, 0.454;stroke-dashoffset:0;stroke-opacity:0.987805"
       d="m 1.6685173,98.165652 h 172.3022227 0.3337 v 0"
       id="path5900" /><path
       style="fill:#0003ff;fill-opacity:1;stroke:#c153fe;stroke-width:0.454;stroke-dasharray:0.454, 0.454;stroke-dashoffset:0;stroke-opacity:0.987805"
       d="m 1.6685173,98.165652 h 172.3022227 0.3337 v 0"
       id="path5902" /><path
       style="fill:#0003ff;fill-opacity:1;stroke:#fe8b06;stroke-width:0.454;stroke-dasharray:0.454, 0.454;stroke-dashoffset:0;stroke-opacity:0.98780501"
       d="m 1.6685173,98.165652 h 172.3022227 0.3337 v 0"
       id="path5904" /><path
       style="fill:#0003ff;fill-opacity:1;stroke:#fe5a53;stroke-width:0.547208;stroke-dasharray:0.547208, 0.547208;stroke-dashoffset:0;stroke-opacity:0.987805"
       d="m 1.6685173,32.019778 h 250.3133627 0.48478 v 0"
       id="path5906" /><path
       style="fill:#4d13fe;fill-opacity:1;stroke:#4526fd;stroke-width:0.43824;stroke-dasharray:none;stroke-dashoffset:0;stroke-opacity:0.987805;marker-end:url(#Arrow2)"
       d="m 205.81719,178.05359 c -30.42727,6.24231 -30.42727,6.12227 -30.42727,6.12227"
       id="path18890" /><path
       style="fill:none;fill-opacity:1;stroke:#4526fd;stroke-width:0.428417;stroke-dasharray:none;stroke-dashoffset:0;stroke-opacity:0.987805;marker-end:url(#Arrow2)"
       d="m 215.15545,148.60633 c -2.87554,4.68035 -33.84281,13.44101 -36.71835,13.44101 -2.87553,0 -2.98613,-0.24001 -2.98613,-0.24001"
       id="path22996" /><path
       style="fill:#d755fe;fill-opacity:1;stroke:#fe0b01;stroke-width:0.636924;stroke-dasharray:none;stroke-dashoffset:0;stroke-opacity:0.987805;marker-start:url(#EmptyTriangleIn);marker-end:url(#marker33000)"
       d="M 243.08943,34.641576 V 186.35629"
       id="path32000" /></g><g
     id="g12461"
     transform="matrix(0.35277777,0,0,-0.35277776,273,162.63055)"><g
       id="g12463"
       transform="matrix(1e-6,0,0,1e-6,24.5,230.5)"><path
         d="m 0,0 c 60,108 97,116 101,120 4,-4 -69,-5 3,-23 -55,-2 -6,0 11,4 C 54,52 61,34 74,107 113,50 116,80 111,90 100,68 69,106 57,118 69,100 55,85 118,85 56,56 119,102 86,110 111,61 34,62 65,65 65,67 75,72 105,99 98,90 68,76 83,115 78,65 70,73 89,110 88,109 117,56 82,86 50,54 71,83 121,67 113,53 76,85 51,108 c 69,-18 49,-29 28,13 2,-12 -32,-40 25,-53 -37,22 -20,48 9,36 -6,15 2,18 -44,-50 2,15 11,57 -17,44 C 88,56 87,78 105,67 76,100 43,105 81,109 110,83 54,48 57,99 c 11,20 -10,3 63,11 -52,-4 -40,0 -63,-60 17,21 47,34 27,28 33,20 13,42 33,20 C 87,57 115,49 118,89 48,47 99,80 68,111 43,79 106,90 80,84 c 34,27 23,-1 26,23 1,-35 -24,14 16,-2 -20,-24 -66,-31 -3,4 -15,-36 -40,3 -45,-34 8,43 37,45 0,46 32,-2 -3,-42 34,-68 -1,-6 9,3 -57,-2 64,54 37,27 14,60 33,-34 51,1 19,-37 35,-9 22,11 -8,39 9,-61 44,-6 14,1 20,-43 8,-14 25,2 -34,-59 3,-29 -65,-73 4,6 31,64 37,61 26,4 -21,-20 26,-37 2,-19 -43,4 -61,18 33,30 65,14 2,12 -1,-15 24,-28 64,12 -7,8 -51,-55 -3,-35 -18,31 -48,0 -17,12 1,25 -49,-35 3,34 5,-16 -27,-53 -34,-16 53,-39 52,-30 10,-6 -9,-21 10,-30 34,14 -59,0 -37,-7 -29,-3 15,-55 28,-28 21,-26 -30,39 17,-17 -30,39 3,-49 17,-49 30,-55 -30,45 17,-19 12,34 -12,-24 -27,8 -17,-22 -29,1 13,3 24,-31 -70,63 -70,51 -46,9 4,33 -5,48 5,16 23,39 -29,-2 4,-22 -20,70 -1,21 4,63 -2,-26 20,-67 -42,-65 19,62 63,-1 24,-1 -18,27 48,74 34,34 -31,-5 -21,31 -32,2 -16,20 12,-15 16,35 -5,0 -41,-40 -14,-36 25,6 40,26 32,26 C 69,79 89,48 43,121 118,69 89,56 81,82 c 27,26 28,-32 20,-1 5,6 -47,34 13,33 -3,-6 1,3 -27,-16 C 86,83 57,98 70,83 98,78 52,116 52,121 105,65 99,51 65,66 114,111 65,70 54,113 65,74 72,107 65,76 100,65 65,71 122,43 65,86 102,73 66,80 55,85 86,55 48,55 c 6,-7 69,43 65,-1 -2,29 -64,56 9,61 -55,-13 -74,-1 -69,-68 12,26 66,63 57,6 -25,8 -50,-6 -2,44 8,4 12,8 8,-35 z"
         style="fill:none;stroke:#000000;stroke-width:1;stroke-linecap:butt;stroke-linejoin:miter;stroke-miterlimit:10;stroke-dasharray:none;stroke-opacity:0"
         id="path12465" /></g></g><g
     id="g13061"
     transform="translate(-67.016734,8.1232405)"
     style="fill:#fd8b09;fill-opacity:1"><g
       id="g13054"
       style="fill:#fd8b09;fill-opacity:1"><path
         d="m 48.248,435.633 h -0.8531 c -0.075,-0.55 -0.325,-2.03 -0.6516,-2.28 -0.2,-0.151 -2.1297,-0.151 -2.4812,-0.151 h -4.611 c 2.6313,2.331 3.5079,3.033 5.0125,4.211 1.8547,1.479 3.5844,3.032 3.5844,5.414 0,3.033 -2.6578,4.887 -5.8656,4.887 -3.1078,0 -5.2125,-2.181 -5.2125,-4.486 0,-1.278 1.0766,-1.404 1.3281,-1.404 0.6016,0 1.3281,0.426 1.3281,1.329 0,0.45 -0.175,1.328 -1.4796,1.328 0.7781,1.78 2.4812,2.332 3.6593,2.332 2.5063,0 3.811,-1.957 3.811,-3.986 0,-2.18 -1.5547,-3.91 -2.3563,-4.813 l -6.0406,-5.964 c -0.25,-0.226 -0.25,-0.276 -0.25,-0.978 h 10.325 l 0.7531,4.561"
         style="fill:#fd8b09;fill-opacity:1;fill-rule:nonzero;stroke:none"
         id="path12481"
         transform="matrix(0.35277777,0,0,-0.35277776,235.56038,212.96953)"
         clip-path="url(#clipPath13025)" /><g
         id="g13048"
         style="fill:#fd8b09;fill-opacity:1"><g
           id="g13044"
           style="fill:#fd8b09;fill-opacity:1"><path
             d="m 29.9261,458.172 c 0.2516,1.006 0.3938,1.22 0.825,1.328 0.3235,0.072 1.5094,0.072 2.2625,0.072 3.6282,0 5.2438,-0.144 5.2438,-2.944 0,-0.539 -0.1438,-1.94 -0.2875,-2.873 -0.0359,-0.144 -0.1078,-0.575 -0.1078,-0.683 0,-0.216 0.1078,-0.467 0.4312,-0.467 0.3953,0 0.4672,0.287 0.5391,0.826 l 0.9703,6.249 c 0.0359,0.144 0.0703,0.503 0.0703,0.611 0,0.395 -0.3578,0.395 -0.9687,0.395 H 18.9715 c -0.861,0 -0.8969,-0.036 -1.1485,-0.719 l -2.1547,-6.32 c -0.0359,-0.072 -0.2156,-0.575 -0.2156,-0.647 0,-0.215 0.1797,-0.395 0.4297,-0.395 0.3594,0 0.3953,0.18 0.6109,0.755 1.9391,5.567 2.8735,6.212 8.1891,6.212 h 1.4 c 1.0062,0 1.0062,-0.144 1.0062,-0.43 0,-0.215 -0.1078,-0.647 -0.1437,-0.754 L 22.1324,439.21 c -0.3234,-1.33 -0.4313,-1.724 -4.2734,-1.724 -1.2938,0 -1.5094,0 -1.5094,-0.683 0,-0.431 0.3953,-0.431 0.6109,-0.431 0.9703,0 1.975,0.072 2.9453,0.072 1.0047,0 2.0469,0.036 3.0532,0.036 1.0046,0 2.0109,-0.036 2.9796,-0.036 1.0422,0 2.1188,-0.072 3.125,-0.072 0.3594,0 0.7907,0 0.7907,0.719 0,0.395 -0.2875,0.395 -1.2219,0.395 -0.8969,0 -1.3641,0 -2.2984,0.072 -1.0407,0.106 -1.3282,0.214 -1.3282,0.789 0,0.036 0,0.216 0.1438,0.755 l 4.7765,19.07"
             style="fill:#fd8b09;fill-opacity:1;fill-rule:nonzero;stroke:none"
             id="path12479"
             transform="matrix(0.35277777,0,0,-0.35277776,235.56038,212.96953)"
             clip-path="url(#clipPath13029)" /></g></g></g></g><g
     id="g13067"
     transform="translate(-66.339797,36.216114)"
     style="fill:#fec803;fill-opacity:1"><path
       d="m 29.9261,404.472 c 0.2516,1.006 0.3938,1.22 0.825,1.328 0.3235,0.072 1.5094,0.072 2.2625,0.072 3.6282,0 5.2438,-0.144 5.2438,-2.944 0,-0.539 -0.1438,-1.94 -0.2875,-2.873 -0.0359,-0.144 -0.1078,-0.575 -0.1078,-0.683 0,-0.216 0.1078,-0.467 0.4312,-0.467 0.3953,0 0.4672,0.287 0.5391,0.826 l 0.9703,6.249 c 0.0359,0.144 0.0703,0.503 0.0703,0.611 0,0.395 -0.3578,0.395 -0.9687,0.395 H 18.9715 c -0.861,0 -0.8969,-0.036 -1.1485,-0.719 l -2.1547,-6.32 c -0.0359,-0.072 -0.2156,-0.575 -0.2156,-0.647 0,-0.215 0.1797,-0.395 0.4297,-0.395 0.3594,0 0.3953,0.18 0.6109,0.755 1.9391,5.567 2.8735,6.212 8.1891,6.212 h 1.4 c 1.0062,0 1.0062,-0.144 1.0062,-0.43 0,-0.215 -0.1078,-0.647 -0.1437,-0.754 L 22.1324,385.51 c -0.3234,-1.33 -0.4313,-1.724 -4.2734,-1.724 -1.2938,0 -1.5094,0 -1.5094,-0.683 0,-0.431 0.3953,-0.431 0.6109,-0.431 0.9703,0 1.975,0.072 2.9453,0.072 1.0047,0 2.0469,0.036 3.0532,0.036 1.0046,0 2.0109,-0.036 2.9796,-0.036 1.0422,0 2.1188,-0.072 3.125,-0.072 0.3594,0 0.7907,0 0.7907,0.719 0,0.395 -0.2875,0.395 -1.2219,0.395 -0.8969,0 -1.3641,0 -2.2984,0.072 -1.0407,0.106 -1.3282,0.214 -1.3282,0.789 0,0.036 0,0.216 0.1438,0.755 l 4.7765,19.07"
       style="fill:#fec803;fill-opacity:1;fill-rule:nonzero;stroke:none"
       id="path12483"
       transform="matrix(0.35277777,0,0,-0.35277776,235.56038,212.96953)"
       clip-path="url(#clipPath13021)" /><path
       d="m 42.4324,385.644 c 1.9547,0 3.3594,-1.355 3.3594,-4.036 0,-3.108 -1.8047,-4.036 -3.2594,-4.036 -1.0016,0 -3.2078,0.277 -4.2609,1.755 1.1781,0.05 1.4546,0.878 1.4546,1.404 0,0.802 -0.6015,1.379 -1.3796,1.379 -0.7016,0 -1.4032,-0.427 -1.4032,-1.455 0,-2.355 2.6063,-3.885 5.6391,-3.885 3.4844,0 5.8906,2.332 5.8906,4.838 0,1.955 -1.6047,3.909 -4.3609,4.486 2.6312,0.953 3.5844,2.833 3.5844,4.361 0,1.981 -2.2813,3.459 -5.0641,3.459 -2.7813,0 -4.9125,-1.353 -4.9125,-3.358 0,-0.853 0.5516,-1.329 1.3047,-1.329 0.7765,0 1.2781,0.576 1.2781,1.278 0,0.728 -0.5016,1.253 -1.2781,1.305 0.8765,1.101 2.6062,1.378 3.5328,1.378 1.1281,0 2.7078,-0.552 2.7078,-2.733 0,-1.052 -0.3516,-2.205 -1.0031,-2.981 -0.8266,-0.954 -1.5281,-1.004 -2.7813,-1.079 -0.6265,-0.05 -0.6781,-0.05 -0.8031,-0.075 -0.05,0 -0.25,-0.05 -0.25,-0.326 0,-0.35 0.225,-0.35 0.6516,-0.35 h 1.3531"
       style="fill:#fec803;fill-opacity:1;fill-rule:nonzero;stroke:none"
       id="path12485"
       transform="matrix(0.35277777,0,0,-0.35277776,235.56038,212.96953)"
       clip-path="url(#clipPath13017)" /></g><g
     id="g13071"
     transform="translate(-66.339797,41.970076)"
     style="fill:#06fe56;fill-opacity:1"><path
       d="m 29.9261,350.672 c 0.2516,1.006 0.3938,1.22 0.825,1.328 0.3235,0.072 1.5094,0.072 2.2625,0.072 3.6282,0 5.2438,-0.144 5.2438,-2.944 0,-0.539 -0.1438,-1.94 -0.2875,-2.873 -0.0359,-0.144 -0.1078,-0.575 -0.1078,-0.683 0,-0.216 0.1078,-0.467 0.4312,-0.467 0.3953,0 0.4672,0.287 0.5391,0.826 l 0.9703,6.249 c 0.0359,0.144 0.0703,0.503 0.0703,0.611 0,0.395 -0.3578,0.395 -0.9687,0.395 H 18.9715 c -0.861,0 -0.8969,-0.036 -1.1485,-0.719 l -2.1547,-6.32 c -0.0359,-0.072 -0.2156,-0.575 -0.2156,-0.647 0,-0.215 0.1797,-0.395 0.4297,-0.395 0.3594,0 0.3953,0.18 0.6109,0.755 1.9391,5.567 2.8735,6.212 8.1891,6.212 h 1.4 c 1.0062,0 1.0062,-0.144 1.0062,-0.43 0,-0.215 -0.1078,-0.647 -0.1437,-0.754 L 22.1324,331.71 c -0.3234,-1.33 -0.4313,-1.724 -4.2734,-1.724 -1.2938,0 -1.5094,0 -1.5094,-0.683 0,-0.431 0.3953,-0.431 0.6109,-0.431 0.9703,0 1.975,0.072 2.9453,0.072 1.0047,0 2.0469,0.036 3.0532,0.036 1.0046,0 2.0109,-0.036 2.9796,-0.036 1.0422,0 2.1188,-0.072 3.125,-0.072 0.3594,0 0.7907,0 0.7907,0.719 0,0.395 -0.2875,0.395 -1.2219,0.395 -0.8969,0 -1.3641,0 -2.2984,0.072 -1.0407,0.106 -1.3282,0.214 -1.3282,0.789 0,0.036 0,0.216 0.1438,0.755 l 4.7765,19.07"
       style="fill:#06fe56;fill-opacity:1;fill-rule:nonzero;stroke:none"
       id="path12487"
       transform="matrix(0.35277777,0,0,-0.35277776,235.56038,212.96953)"
       clip-path="url(#clipPath13013)" /><path
       d="m 48.8496,327.583 v 0.902 h -2.7828 v 11.178 c 0,0.526 0,0.701 -0.5516,0.701 -0.3,0 -0.4016,0 -0.6516,-0.35 l -8.2953,-11.529 v -0.902 h 7.3688 v -2.056 c 0,-0.852 0,-1.153 -2.0313,-1.153 h -0.6765 v -0.902 c 1.2531,0.05 2.8578,0.1 3.7593,0.1 0.9282,0 2.5313,-0.05 3.7844,-0.1 v 0.902 h -0.6765 c -2.0297,0 -2.0297,0.301 -2.0297,1.153 v 2.056 z m -4.7375,10.075 v -9.173 h -6.6172 z"
       style="fill:#06fe56;fill-opacity:1;fill-rule:nonzero;stroke:none"
       id="path12489"
       transform="matrix(0.35277777,0,0,-0.35277776,235.56038,212.96953)"
       clip-path="url(#clipPath13009)" /></g><g
     id="g13075"
     transform="translate(-44.129672,29.742287)"
     style="fill:#068cfe;fill-opacity:1"><path
       d="m 29.9261,296.872 c 0.2516,1.006 0.3938,1.22 0.825,1.328 0.3235,0.072 1.5094,0.072 2.2625,0.072 3.6282,0 5.2438,-0.144 5.2438,-2.944 0,-0.539 -0.1438,-1.94 -0.2875,-2.873 -0.0359,-0.144 -0.1078,-0.575 -0.1078,-0.683 0,-0.216 0.1078,-0.467 0.4312,-0.467 0.3953,0 0.4672,0.287 0.5391,0.826 l 0.9703,6.249 c 0.0359,0.144 0.0703,0.503 0.0703,0.611 0,0.395 -0.3578,0.395 -0.9687,0.395 H 18.9715 c -0.861,0 -0.8969,-0.036 -1.1485,-0.719 l -2.1547,-6.32 c -0.0359,-0.072 -0.2156,-0.575 -0.2156,-0.647 0,-0.215 0.1797,-0.395 0.4297,-0.395 0.3594,0 0.3953,0.18 0.6109,0.755 1.9391,5.567 2.8735,6.212 8.1891,6.212 h 1.4 c 1.0062,0 1.0062,-0.144 1.0062,-0.43 0,-0.215 -0.1078,-0.647 -0.1437,-0.754 L 22.1324,277.91 c -0.3234,-1.33 -0.4313,-1.724 -4.2734,-1.724 -1.2938,0 -1.5094,0 -1.5094,-0.683 0,-0.431 0.3953,-0.431 0.6109,-0.431 0.9703,0 1.975,0.072 2.9453,0.072 1.0047,0 2.0469,0.036 3.0532,0.036 1.0046,0 2.0109,-0.036 2.9796,-0.036 1.0422,0 2.1188,-0.072 3.125,-0.072 0.3594,0 0.7907,0 0.7907,0.719 0,0.395 -0.2875,0.395 -1.2219,0.395 -0.8969,0 -1.3641,0 -2.2984,0.072 -1.0407,0.106 -1.3282,0.214 -1.3282,0.789 0,0.036 0,0.216 0.1438,0.755 l 4.7765,19.07"
       style="fill:#068cfe;fill-opacity:1;fill-rule:nonzero;stroke:none"
       id="path12491"
       transform="matrix(0.35277777,0,0,-0.35277776,235.56038,212.96953)"
       clip-path="url(#clipPath13005)" /><path
       d="m 39.4746,283.658 c 1.2781,-0.327 2.0312,-0.327 2.4312,-0.327 3.3094,0 5.2641,2.257 5.2641,2.632 0,0.276 -0.1766,0.351 -0.3016,0.351 -0.05,0 -0.1,0 -0.2,-0.075 -0.6015,-0.225 -1.9297,-0.726 -3.7843,-0.726 -0.7016,0 -2.0297,0.05 -3.6594,0.676 -0.2516,0.125 -0.3016,0.125 -0.3266,0.125 -0.325,0 -0.325,-0.275 -0.325,-0.676 v -7.394 c 0,-0.427 0,-0.727 0.4,-0.727 0.2266,0 0.2516,0.05 0.5016,0.35 1.0781,1.38 2.6078,1.58 3.4844,1.58 1.5031,0 2.1796,-1.203 2.3062,-1.403 0.45,-0.828 0.6016,-1.78 0.6016,-3.234 0,-0.752 0,-2.23 -0.7532,-3.333 -0.6265,-0.903 -1.7031,-1.505 -2.9312,-1.505 -1.6297,0 -3.3094,0.903 -3.9359,2.558 0.9531,-0.075 1.4296,0.551 1.4296,1.228 0,1.077 -0.9281,1.278 -1.2531,1.278 -0.05,0 -1.2531,0 -1.2531,-1.353 0,-2.256 2.0547,-4.513 5.0625,-4.513 3.2078,0 6.0156,2.382 6.0156,5.54 0,2.832 -2.1562,5.439 -5.264,5.439 -1.1032,0 -2.4063,-0.275 -3.5094,-1.229 v 4.738"
       style="fill:#068cfe;fill-opacity:1;fill-rule:nonzero;stroke:none"
       id="path12493"
       transform="matrix(0.35277777,0,0,-0.35277776,235.56038,212.96953)"
       clip-path="url(#clipPath13001)" /></g><g
     id="g13080"
     transform="translate(-25.385127,15.908013)"
     style="stroke:none;stroke-opacity:0.98780501;fill:#2853ff;fill-opacity:1"><path
       d="m 245,2305 v 0 0 0 0 0 0 0 0 0 0 0 0 0 0 0 0 0 0 0 0 0 0 0 0 0 0 0 0 0 0 0 0 0 0 0 0 0 0 0 0 0 0 0 0 0 0 0 0 0 0 0 0 0 0 0 0 0 0 0 0 0 0 0 0 0 0 0 0 0 0 0 0 0 0 0 0 0 0 0 0 0 z"
       style="fill:#2853ff;stroke:none;stroke-width:0.00001;stroke-linecap:butt;stroke-linejoin:miter;stroke-miterlimit:10;stroke-dasharray:none;stroke-opacity:0.98780501;fill-opacity:1"
       id="path12477"
       transform="matrix(0.03527778,0,0,-0.03527778,235.76859,212.94413)"
       clip-path="url(#clipPath13039)" /><path
       d="m 29.9261,243.072 c 0.2516,1.006 0.3938,1.22 0.825,1.328 0.3235,0.072 1.5094,0.072 2.2625,0.072 3.6282,0 5.2438,-0.144 5.2438,-2.944 0,-0.539 -0.1438,-1.94 -0.2875,-2.873 -0.0359,-0.144 -0.1078,-0.575 -0.1078,-0.683 0,-0.216 0.1078,-0.467 0.4312,-0.467 0.3953,0 0.4672,0.287 0.5391,0.826 l 0.9703,6.249 c 0.0359,0.144 0.0703,0.503 0.0703,0.611 0,0.395 -0.3578,0.395 -0.9687,0.395 H 18.9715 c -0.861,0 -0.8969,-0.036 -1.1485,-0.719 l -2.1547,-6.32 c -0.0359,-0.072 -0.2156,-0.575 -0.2156,-0.647 0,-0.215 0.1797,-0.395 0.4297,-0.395 0.3594,0 0.3953,0.18 0.6109,0.755 1.9391,5.567 2.8735,6.212 8.1891,6.212 h 1.4 c 1.0062,0 1.0062,-0.144 1.0062,-0.43 0,-0.215 -0.1078,-0.647 -0.1437,-0.754 L 22.1324,224.11 c -0.3234,-1.33 -0.4313,-1.724 -4.2734,-1.724 -1.2938,0 -1.5094,0 -1.5094,-0.683 0,-0.431 0.3953,-0.431 0.6109,-0.431 0.9703,0 1.975,0.072 2.9453,0.072 1.0047,0 2.0469,0.036 3.0532,0.036 1.0046,0 2.0109,-0.036 2.9796,-0.036 1.0422,0 2.1188,-0.072 3.125,-0.072 0.3594,0 0.7907,0 0.7907,0.719 0,0.395 -0.2875,0.395 -1.2219,0.395 -0.8969,0 -1.3641,0 -2.2984,0.072 -1.0407,0.106 -1.3282,0.214 -1.3282,0.789 0,0.036 0,0.216 0.1438,0.755 l 4.7765,19.07"
       style="fill:#2853ff;fill-opacity:1;fill-rule:nonzero;stroke:none;stroke-opacity:0.98780501"
       id="path12495"
       transform="matrix(0.35277777,0,0,-0.35277776,235.56038,212.96953)"
       clip-path="url(#clipPath12997)" /><path
       d="m 39.3496,224.067 c 0,2.057 0.175,3.911 1.1281,5.439 0.8516,1.354 2.2063,2.282 3.8094,2.282 0.7515,0 1.7547,-0.202 2.2562,-0.878 -0.6265,-0.05 -1.1531,-0.475 -1.1531,-1.204 0,-0.626 0.4266,-1.176 1.1781,-1.176 0.7516,0 1.2032,0.5 1.2032,1.228 0,1.453 -1.0532,2.756 -3.5344,2.756 -3.6094,0 -7.2938,-3.308 -7.2938,-8.697 0,-6.492 3.0578,-8.447 5.8157,-8.447 3.0578,0 5.714,2.332 5.714,5.615 0,3.182 -2.5312,5.539 -5.464,5.539 -2.0047,0 -3.1079,-1.329 -3.6594,-2.457 z m 3.4094,-7.895 c -1.2532,0 -2.2313,0.728 -2.7579,1.83 -0.375,0.753 -0.5765,2.006 -0.5765,3.509 0,2.431 1.4547,4.311 3.4594,4.311 1.1531,0 1.9296,-0.452 2.5562,-1.378 0.6016,-0.953 0.6266,-2.005 0.6266,-3.459 0,-1.429 0,-2.482 -0.6766,-3.458 -0.6016,-0.878 -1.4031,-1.355 -2.6312,-1.355"
       style="fill:#2853ff;fill-opacity:1;fill-rule:nonzero;stroke:none;stroke-opacity:0.98780501"
       id="path12497"
       transform="matrix(0.35277777,0,0,-0.35277776,235.56038,212.96953)"
       clip-path="url(#clipPath12993)" /></g><g
     id="g13084"
     transform="translate(-66.678266,24.369722)"
     style="fill:#0003ff;fill-opacity:1"><path
       d="m 29.9261,189.272 c 0.2516,1.006 0.3938,1.22 0.825,1.328 0.3235,0.072 1.5094,0.072 2.2625,0.072 3.6282,0 5.2438,-0.144 5.2438,-2.944 0,-0.539 -0.1438,-1.94 -0.2875,-2.873 -0.0359,-0.144 -0.1078,-0.575 -0.1078,-0.683 0,-0.216 0.1078,-0.467 0.4312,-0.467 0.3953,0 0.4672,0.287 0.5391,0.826 l 0.9703,6.249 c 0.0359,0.144 0.0703,0.503 0.0703,0.611 0,0.395 -0.3578,0.395 -0.9687,0.395 H 18.9715 c -0.861,0 -0.8969,-0.036 -1.1485,-0.719 l -2.1547,-6.32 c -0.0359,-0.072 -0.2156,-0.575 -0.2156,-0.647 0,-0.215 0.1797,-0.395 0.4297,-0.395 0.3594,0 0.3953,0.18 0.6109,0.755 1.9391,5.567 2.8735,6.212 8.1891,6.212 h 1.4 c 1.0062,0 1.0062,-0.144 1.0062,-0.43 0,-0.215 -0.1078,-0.647 -0.1437,-0.754 L 22.1324,170.31 c -0.3234,-1.33 -0.4313,-1.724 -4.2734,-1.724 -1.2938,0 -1.5094,0 -1.5094,-0.683 0,-0.431 0.3953,-0.431 0.6109,-0.431 0.9703,0 1.975,0.072 2.9453,0.072 1.0047,0 2.0469,0.036 3.0532,0.036 1.0046,0 2.0109,-0.036 2.9796,-0.036 1.0422,0 2.1188,-0.072 3.125,-0.072 0.3594,0 0.7907,0 0.7907,0.719 0,0.395 -0.2875,0.395 -1.2219,0.395 -0.8969,0 -1.3641,0 -2.2984,0.072 -1.0407,0.106 -1.3282,0.214 -1.3282,0.789 0,0.036 0,0.216 0.1438,0.755 l 4.7765,19.07"
       style="fill:#0003ff;fill-opacity:1;fill-rule:nonzero;stroke:none"
       id="path12499"
       transform="matrix(0.35277777,0,0,-0.35277776,235.56038,212.96953)"
       clip-path="url(#clipPath12989)" /><path
       d="m 48.9996,177.211 c 0.25,0.3 0.25,0.35 0.25,1.002 H 42.684 c -1.0032,0 -1.2797,0.025 -2.1813,0.1 -1.3031,0.101 -1.3531,0.276 -1.4281,0.701 h -0.8531 l -0.8766,-5.362 h 0.8516 c 0.05,0.375 0.3015,2.029 0.7015,2.279 0.2016,0.152 2.2313,0.152 2.6078,0.152 h 5.4625 c -0.8015,-1.053 -2.0797,-2.608 -2.6062,-3.309 -3.2828,-4.311 -3.5844,-8.296 -3.5844,-9.774 0,-0.276 0,-1.43 1.1781,-1.43 1.2032,0 1.2032,1.129 1.2032,1.455 v 1.002 c 0,4.862 1.0031,7.093 2.0812,8.447 l 3.7594,4.737"
       style="fill:#0003ff;fill-opacity:1;fill-rule:nonzero;stroke:none"
       id="path12501"
       transform="matrix(0.35277777,0,0,-0.35277776,235.56038,212.96953)"
       clip-path="url(#clipPath12985)" /></g><g
     id="g13090"
     transform="translate(-35.200709,8.4617089)"
     style="fill:#4c26fd;fill-opacity:0.98823529;stroke:none;stroke-opacity:0.98780501"><path
       d="m 29.9261,135.472 c 0.2516,1.006 0.3938,1.22 0.825,1.328 0.3235,0.072 1.5094,0.072 2.2625,0.072 3.6282,0 5.2438,-0.144 5.2438,-2.944 0,-0.539 -0.1438,-1.94 -0.2875,-2.873 -0.0359,-0.144 -0.1078,-0.575 -0.1078,-0.683 0,-0.216 0.1078,-0.467 0.4312,-0.467 0.3953,0 0.4672,0.287 0.5391,0.826 l 0.9703,6.249 c 0.0359,0.144 0.0703,0.503 0.0703,0.611 0,0.395 -0.3578,0.395 -0.9687,0.395 H 18.9715 c -0.861,0 -0.8969,-0.036 -1.1485,-0.719 l -2.1547,-6.32 c -0.0359,-0.072 -0.2156,-0.575 -0.2156,-0.647 0,-0.215 0.1797,-0.395 0.4297,-0.395 0.3594,0 0.3953,0.18 0.6109,0.755 1.9391,5.567 2.8735,6.212 8.1891,6.212 h 1.4 c 1.0062,0 1.0062,-0.144 1.0062,-0.43 0,-0.215 -0.1078,-0.647 -0.1437,-0.754 L 22.1324,116.51 c -0.3234,-1.33 -0.4313,-1.724 -4.2734,-1.724 -1.2938,0 -1.5094,0 -1.5094,-0.683 0,-0.431 0.3953,-0.431 0.6109,-0.431 0.9703,0 1.975,0.072 2.9453,0.072 1.0047,0 2.0469,0.036 3.0532,0.036 1.0046,0 2.0109,-0.036 2.9796,-0.036 1.0422,0 2.1188,-0.072 3.125,-0.072 0.3594,0 0.7907,0 0.7907,0.719 0,0.395 -0.2875,0.395 -1.2219,0.395 -0.8969,0 -1.3641,0 -2.2984,0.072 -1.0407,0.106 -1.3282,0.214 -1.3282,0.789 0,0.036 0,0.216 0.1438,0.755 l 4.7765,19.07"
       style="fill:#4c26fd;fill-opacity:0.98823529;fill-rule:nonzero;stroke:none;stroke-opacity:0.98780501"
       id="path12503"
       transform="matrix(0.35277777,0,0,-0.35277776,235.56038,212.96953)"
       clip-path="url(#clipPath12981)" /><path
       d="m 44.4871,117.32 c 1.9562,0.952 3.2094,2.13 3.2094,3.86 0,2.431 -2.5313,3.734 -4.9625,3.734 -2.7579,0 -5.0141,-1.804 -5.0141,-4.186 0,-1.178 0.5516,-2.029 1.0031,-2.531 0.4516,-0.527 0.6266,-0.627 2.1047,-1.503 -1.4031,-0.602 -3.8844,-1.956 -3.8844,-4.588 0,-2.781 2.8828,-4.336 5.7407,-4.336 3.1828,0 5.789,2.03 5.789,4.738 0,1.655 -0.9781,3.058 -2.4312,3.909 -0.3266,0.202 -1.2032,0.702 -1.5547,0.903 z m -4.0844,2.382 c -0.6516,0.375 -1.3531,1.051 -1.3531,1.979 0,1.579 1.8297,2.507 3.6344,2.507 1.9546,0 3.6828,-1.228 3.6828,-3.008 0,-2.231 -2.6063,-3.36 -2.6563,-3.36 -0.05,0 -0.1,0.027 -0.275,0.127 z m 1.2281,-3.485 3.4328,-1.979 c 0.6516,-0.377 1.9047,-1.128 1.9047,-2.608 0,-1.88 -2.0797,-3.058 -4.2343,-3.058 -2.3063,0 -4.286,1.48 -4.286,3.534 0,1.855 1.3781,3.285 3.1828,4.111"
       style="fill:#4c26fd;fill-opacity:0.98823529;fill-rule:nonzero;stroke:none;stroke-opacity:0.98780501"
       id="path12505"
       transform="matrix(0.35277777,0,0,-0.35277776,235.56038,212.96953)"
       clip-path="url(#clipPath12977)" /></g><g
     id="g13094"
     transform="translate(-34.523772,2.0308101)"
     style="fill:#8c00ff;fill-opacity:1"><path
       d="m 29.9261,81.672 c 0.2516,1.0063 0.3938,1.2203 0.825,1.3281 0.3235,0.0719 1.5094,0.0719 2.2625,0.0719 3.6282,0 5.2438,-0.1437 5.2438,-2.9437 0,-0.5391 -0.1438,-1.9407 -0.2875,-2.8735 -0.0359,-0.1437 -0.1078,-0.575 -0.1078,-0.6828 0,-0.2156 0.1078,-0.4672 0.4312,-0.4672 0.3953,0 0.4672,0.2875 0.5391,0.8266 l 0.9703,6.2484 c 0.0359,0.1438 0.0703,0.5031 0.0703,0.611 0,0.3953 -0.3578,0.3953 -0.9687,0.3953 H 18.9715 c -0.861,0 -0.8969,-0.036 -1.1485,-0.7188 L 15.6683,77.147 c -0.0359,-0.0719 -0.2156,-0.575 -0.2156,-0.6469 0,-0.2156 0.1797,-0.3953 0.4297,-0.3953 0.3594,0 0.3953,0.1797 0.6109,0.7547 1.9391,5.5672 2.8735,6.2125 8.1891,6.2125 h 1.4 c 1.0062,0 1.0062,-0.1437 1.0062,-0.4297 0,-0.2156 -0.1078,-0.6469 -0.1437,-0.7547 L 22.1324,62.7095 c -0.3234,-1.3297 -0.4313,-1.7234 -4.2734,-1.7234 -1.2938,0 -1.5094,0 -1.5094,-0.6828 0,-0.4313 0.3953,-0.4313 0.6109,-0.4313 0.9703,0 1.975,0.0719 2.9453,0.0719 1.0047,0 2.0469,0.0359 3.0532,0.0359 1.0046,0 2.0109,-0.0359 2.9796,-0.0359 1.0422,0 2.1188,-0.0719 3.125,-0.0719 0.3594,0 0.7907,0 0.7907,0.7188 0,0.3953 -0.2875,0.3953 -1.2219,0.3953 -0.8969,0 -1.3641,0 -2.2984,0.0718 -1.0407,0.1063 -1.3282,0.2141 -1.3282,0.7891 0,0.0359 0,0.2156 0.1438,0.7547 l 4.7765,19.0703"
       style="fill:#8c00ff;fill-opacity:1;fill-rule:nonzero;stroke:none"
       id="path12507"
       transform="matrix(0.35277777,0,0,-0.35277776,235.56038,212.96953)"
       clip-path="url(#clipPath12973)" /><path
       d="m 46.0668,61.9408 c 0,-6.2157 -3.0828,-7.1688 -4.586,-7.1688 -0.5515,0 -1.8797,0.0516 -2.5578,0.8281 1.0281,0.1 1.1031,0.9516 1.1031,1.1782 0,0.6265 -0.425,1.1781 -1.1781,1.1781 -0.7515,0 -1.2031,-0.5016 -1.2031,-1.2281 0,-1.7047 1.4297,-2.7579 3.8609,-2.7579 3.5828,0 6.9672,3.3844 6.9672,8.7469 0,6.2156 -2.7578,8.3969 -5.689,8.3969 -0.8282,0 -2.5563,-0.125 -3.986,-1.5281 -0.8515,-0.8282 -1.8547,-1.8047 -1.8547,-4.061 0,-3.1828 2.5313,-5.539 5.4641,-5.539 2.0047,0 3.0828,1.3281 3.6594,2.4562 z m -3.5344,-1.2532 c -0.9766,0 -1.9047,0.3266 -2.6063,1.4782 -0.5765,0.9281 -0.5765,1.9812 -0.5765,3.3593 0,1.4532 0,2.4563 0.7265,3.4594 0.6016,0.8766 1.4297,1.4031 2.7329,1.4031 1.2781,0 2.0296,-0.8015 2.4312,-1.4547 0.6766,-1.0515 0.7516,-2.8062 0.7516,-3.6843 0,-3.2578 -1.8797,-4.561 -3.4594,-4.561"
       style="fill:#8c00ff;fill-opacity:1;fill-rule:nonzero;stroke:none"
       id="path12509"
       transform="matrix(0.35277777,0,0,-0.35277776,235.56038,212.96953)"
       clip-path="url(#clipPath12969)" /></g><g
     id="g13099"
     transform="translate(-29.446747,-3.7231519)"
     style="stroke:none;stroke-opacity:0.98780501;fill:#ec00ff;fill-opacity:1"><path
       d="m 15.6261,27.872 c 0.2516,1.0063 0.3938,1.2203 0.825,1.3281 0.3235,0.0719 1.5094,0.0719 2.2625,0.0719 3.6282,0 5.2438,-0.1437 5.2438,-2.9437 0,-0.5391 -0.1438,-1.9407 -0.2875,-2.8735 -0.0359,-0.1437 -0.1078,-0.575 -0.1078,-0.6828 0,-0.2156 0.1078,-0.4672 0.4312,-0.4672 0.3953,0 0.4672,0.2875 0.5391,0.8266 l 0.9703,6.2484 c 0.0359,0.1438 0.0703,0.5031 0.0703,0.611 0,0.3953 -0.3578,0.3953 -0.9687,0.3953 H 4.671453 c -0.86094,0 -0.89687,-0.036 -1.14844,-0.7188 L 1.368328,23.347 C 1.332391,23.2751 1.152703,22.772 1.152703,22.7001 c 0,-0.2156 0.179688,-0.3953 0.429688,-0.3953 0.359372,0 0.395312,0.1797 0.610942,0.7547 1.93906,5.5672 2.87343,6.2125 8.189057,6.2125 h 1.40001 c 1.0062,0 1.0062,-0.1437 1.0062,-0.4297 0,-0.2156 -0.1078,-0.6469 -0.1437,-0.7547 L 7.832393,8.9095 C 7.508953,7.57981 7.401143,7.18606 3.558953,7.18606 c -1.29375,0 -1.50937,0 -1.50937,-0.68281 0,-0.43125 0.39531,-0.43125 0.61093,-0.43125 0.97032,0 1.975,0.07188 2.94532,0.07188 1.00468,0 2.04687,0.03593 3.05312,0.03593 1.00469,0 2.010947,-0.03593 2.979647,-0.03593 1.0422,0 2.1188,-0.07188 3.125,-0.07188 0.3594,0 0.7907,0 0.7907,0.71875 0,0.39531 -0.2875,0.39531 -1.2219,0.39531 -0.8969,0 -1.3641,0 -2.2984,0.07188 -1.0407,0.10625 -1.3282,0.21406 -1.3282,0.78906 0,0.03594 0,0.21563 0.1438,0.75469 L 15.6261,27.872"
       style="fill:#ec00ff;fill-opacity:1;fill-rule:nonzero;stroke:none;stroke-opacity:0.98780501"
       id="path12511"
       transform="matrix(0.35277777,0,0,-0.35277776,235.56038,212.96953)"
       clip-path="url(#clipPath12965)" /><path
       d="m 29.6871,16.6126 c 0,0.6766 -0.05,0.7016 -0.7531,0.7016 -1.6032,-1.5797 -3.8844,-1.6047 -4.9125,-1.6047 v -0.9016 c 0.6015,0 2.2562,0 3.6343,0.7016 V 2.72669 c 0,-0.82656 0,-1.15313 -2.5062,-1.15313 H 24.198 V 0.672 c 0.45,0.025 3.5328,0.1 4.461,0.1 0.7765,0 3.9343,-0.075 4.4859,-0.1 v 0.90156 h -0.9516 c -2.5062,0 -2.5062,0.32657 -2.5062,1.15313 V 16.6126"
       style="fill:#ec00ff;fill-opacity:1;fill-rule:nonzero;stroke:none;stroke-opacity:0.98780501"
       id="path12513"
       transform="matrix(0.35277777,0,0,-0.35277776,235.56038,212.96953)"
       clip-path="url(#clipPath12961)" /><path
       d="m 48.523,8.66731 c 0,2.75629 -0.3265,4.73749 -1.4781,6.49059 -0.7781,1.1532 -2.3313,2.1563 -4.3359,2.1563 -5.8157,0 -5.8157,-6.8422 -5.8157,-8.64689 0,-1.80468 0,-8.4968725 5.8157,-8.4968725 5.814,0 5.814,6.6921925 5.814,8.4968725 z M 42.709,0.872 c -1.1532,0 -2.6829,0.67656 -3.1844,2.73281 -0.35,1.47813 -0.35,3.53282 -0.35,5.3875 0,1.82969 0,3.73599 0.375,5.11409 0.5265,1.9797 2.1312,2.5062 3.1594,2.5062 1.3531,0 2.6562,-0.8265 3.1078,-2.2812 0.4,-1.3531 0.425,-3.1578 0.425,-5.33909 0,-1.85468 0,-3.70937 -0.325,-5.2875 C 45.4152,1.42356 43.7105,0.872 42.709,0.872"
       style="fill:#ec00ff;fill-opacity:1;fill-rule:nonzero;stroke:none;stroke-opacity:0.98780501"
       id="path12515"
       transform="matrix(0.35277777,0,0,-0.35277776,235.56038,212.96953)"
       clip-path="url(#clipPath12957)" /></g><path
     style="fill:none;fill-opacity:1;stroke:#de01fe;stroke-width:0.444857;stroke-dasharray:none;stroke-dashoffset:0;stroke-opacity:0.987805;marker-end:url(#Arrow2)"
     d="m 204.42395,203.77675 c -1.31513,-6.35644 -28.93266,-16.05836 -28.93266,-16.05836 v 0"
     id="path13318" /><path
     style="fill:#ec00ff;fill-opacity:1;stroke:#8c01fe;stroke-width:0.445;stroke-dasharray:none;stroke-dashoffset:0;stroke-opacity:0.98780501;marker-end:url(#Arrow2)"
     d="m 206.66427,191.34694 c -3.70966,0 -31.59199,-5.02599 -31.59199,-5.02599 v 0"
     id="path17775" /><path
     style="fill:none;fill-opacity:1;stroke:#20acfd;stroke-width:0.437171;stroke-dasharray:none;stroke-dashoffset:0;stroke-opacity:0.987805;marker-end:url(#Arrow2)"
     d="m 196.75808,143.16839 c -1.77678,2.95346 -18.0047,8.73732 -21.20291,8.61425 -3.1982,-0.12305 -0.35535,0 -0.35535,0"
     id="path24035" /><path
     style="fill:#d755fe;fill-opacity:1;stroke:#de01fe;stroke-width:0.645;stroke-dasharray:none;stroke-dashoffset:0;stroke-opacity:0.98780501"
     d="m 234.24087,188.76914 h 18.43449 v 0"
     id="path29834" /><g
     id="g35553"
     transform="matrix(0.35277777,0,0,-0.35277776,300.2861,10.936111)"><g
       id="g35555"
       transform="matrix(1e-6,0,0,1e-6,54,15.5)"><path
         d="m 0,0 c 60,108 97,116 101,120 4,-4 -69,-5 3,-23 -55,-2 -6,0 11,4 C 54,52 61,34 50,79 48,70 55,74 109,83 72,53 51,106 85,43 119,76 77,79 57,104 68,52 75,116 52,107 107,61 34,62 65,65 65,66 43,72 105,99 98,86 68,76 83,103 77,120 70,77 51,85 c 35,-31 -1,-5 55,29 6,-66 -37,7 15,-47 -8,55 -48,39 -3,45 -20,-26 -20,4 1,-39 -33,29 -6,-6 -19,31 3,17 -3,-7 -11,-26 -5,6 -15,-10 18,26 C 72,113 48,67 57,120 52,48 73,82 116,51 54,75 79,47 47,71 84,68 115,76 98,84 48,81 79,74 120,122 76,47 102,107 66,68 c 5,38 17,38 52,11 -2,-30 -32,10 -31,7 -38,12 -36,35 17,31 4,-3 -7,-67 -4,-66 -2,25 -43,65 -47,-8 34,5 34,31 67,32 -37,-5 -47,45 -22,-1 0,37 -33,11 -9,12 -6,-5 19,27 8,11 10,-10 -45,18 -30,4 6,-35 6,-48 -18,2 39,-26 -2,-47 73,2 -43,-23 -17,2 -25,0 16,-22 2,15 -41,-21 47,13 11,20 56,-1 -6,-7 -29,-1 -10,-7 16,23 -45,4 13,23 -61,-9 -43,8 -61,1 -5,-32 -7,-12 60,13 -64,7 -27,-3 -60,2 65,-50 54,-63 55,-17 -2,21 5,-25 -61,4 20,14 66,-55 4,1 67,0 55,7 29,6 -2,-38 27,-30 32,-56 -29,60 8,4 -43,16 38,9 7,14 10,15 5,22 -23,-2 -6,-15 16,-17 32,4 23,38 -7,-53 7,-42 13,-40 -7,51 0,14 -23,35 32,7 -8,4 -19,-31 -3,18 15,31 11,-2 25,37 1,-20 -22,-21 40,27 60,22 16,36 -1,28 33,-10 3,-9 6,22 -19,-7 0,45 C 80,54 43,88 54,80 68,75 83,54 109,73 69,48 48,69 110,104 56,75 69,119 90,49 66,76 77,87 52,73 c 14,2 51,33 35,25 -16,-25 -12,21 25,-31 -23,47 8,0 -35,40 -8,-7 20,2 36,-54 -40,59 6,33 -62,3 5,50 23,56 59,-7 -12,51 -5,-6 4,4 -67,33 -5,55 -14,59 C 80,88 85,81 83,72 52,65 105,99 65,66 c 35,33 38,38 48,-14 -47,29 -62,29 -48,52 38,3 -13,-38 44,-48 -6,50 -7,58 12,32 -8,32 -70,25 -71,-8 -7,7 56,-14 71,30 -22,-31 -2,-44 -64,-21 53,33 0,-33 -14,1 33,-47 17,-43 65,7 8,4 12,8 8,-35 z"
         style="fill:none;stroke:#000000;stroke-width:1;stroke-linecap:butt;stroke-linejoin:miter;stroke-miterlimit:10;stroke-dasharray:none;stroke-opacity:0"
         id="path35557" /></g></g><g
     id="g35559"
     transform="matrix(0.35277777,0,0,-0.35277776,202.46042,98.930061)"><g
       id="g35561"
       clip-path="url(#clipPath35565)"
       transform="rotate(90,76.100951,23.574269)"
       style="fill:#fd1c0c;fill-opacity:0.98823529"><g
         id="g35567"
         transform="matrix(0.1,0,0,0.1,0.932203,0.468)"
         style="fill:#fd1c0c;fill-opacity:0.98823529"><path
           d="m 540,155 v 0 0 0 0 0 0 0 0 0 0 0 0 0 0 0 0 0 0 0 0 0 0 0 0 0 0 0 0 0 0 0 0 0 0 0 0 0 0 0 0 0 0 0 0 0 0 0 0 0 0 0 0 0 0 0 z"
           style="fill:#fd1c0c;stroke:#000000;stroke-width:0.00001;stroke-linecap:butt;stroke-linejoin:miter;stroke-miterlimit:10;stroke-dasharray:none;stroke-opacity:0;fill-opacity:0.98823529"
           id="path35569" /></g><path
         d="m 16.3681,28.668 c 0.2516,1.0063 0.3938,1.2203 0.825,1.3281 0.3235,0.0719 1.5094,0.0719 2.2625,0.0719 3.6282,0 5.2438,-0.1437 5.2438,-2.9437 0,-0.5391 -0.1438,-1.9407 -0.2875,-2.8735 -0.0359,-0.1437 -0.1078,-0.575 -0.1078,-0.6828 0,-0.2156 0.1078,-0.4672 0.4312,-0.4672 0.3953,0 0.4672,0.2875 0.5391,0.8266 l 0.9703,6.2484 c 0.0359,0.1438 0.0703,0.5031 0.0703,0.611 0,0.3953 -0.3578,0.3953 -0.9687,0.3953 H 5.413453 c -0.86094,0 -0.89687,-0.036 -1.14844,-0.7188 L 2.110333,24.143 c -0.03594,-0.0719 -0.21563,-0.575 -0.21563,-0.6469 0,-0.2156 0.17969,-0.3953 0.42969,-0.3953 0.35937,0 0.39531,0.1797 0.61094,0.7547 1.93906,5.5672 2.87343,6.2125 8.189067,6.2125 h 1.4 c 1.0062,0 1.0062,-0.1437 1.0062,-0.4297 0,-0.2156 -0.1078,-0.6469 -0.1437,-0.7547 L 8.574393,9.7055 C 8.250953,8.37581 8.143143,7.98206 4.300953,7.98206 c -1.29375,0 -1.50937,0 -1.50937,-0.68281 0,-0.43125 0.39531,-0.43125 0.61093,-0.43125 0.97032,0 1.975,0.07188 2.94532,0.07188 1.00468,0 2.04687,0.03593 3.05312,0.03593 1.004687,0 2.010947,-0.03593 2.979647,-0.03593 1.0422,0 2.1188,-0.07188 3.125,-0.07188 0.3594,0 0.7907,0 0.7907,0.71875 0,0.39531 -0.2875,0.39531 -1.2219,0.39531 -0.8969,0 -1.3641,0 -2.2984,0.07188 -1.0407,0.10625 -1.3282,0.21406 -1.3282,0.78906 0,0.03594 0,0.21563 0.1438,0.75469 L 16.3681,28.668"
         style="fill:#fd1c0c;fill-opacity:0.98823529;fill-rule:nonzero;stroke:none"
         id="path35571" /><path
         d="m 28.8244,18.0352 c -0.225,0.5516 -0.4266,0.5516 -0.9516,0.5516 h -4.3859 v -0.9032 h 0.6 c 1.9312,0 1.9812,-0.25 1.9812,-1.1281 V 4.17425 c 0,-0.67656 0,-1.80469 -2.5812,-1.80469 V 1.468 c 1.0266,0.075 2.0297,0.1 3.0562,0.1 1.0282,0 2.0313,-0.025 3.0579,-0.1 v 0.90156 c -2.5813,0 -2.5813,1.12813 -2.5813,1.80469 V 17.3836 l 0.025,0.025 6.5172,-15.36404 C 33.6869,1.743 33.8119,1.468 34.1885,1.468 c 0.175,0 0.4015,0.075 0.6015,0.52656 l 6.6172,15.66404 0.025,-0.025 V 3.49769 c 0,-0.85156 -0.05,-1.12813 -1.9812,-1.12813 H 38.8494 V 1.468 c 1.2031,0.05 2.6078,0.1 3.6344,0.1 1.0281,0 2.4312,-0.05 3.6343,-0.1 v 0.90156 h -0.6015 c -1.9297,0 -1.9797,0.25157 -1.9797,1.12813 V 16.5555 c 0,0.8531 0.05,1.1281 1.9797,1.1281 h 0.6015 v 0.9032 h -4.3609 c -0.5016,0 -0.7266,0 -0.9266,-0.5016 L 34.815,3.87425 28.8244,18.0352"
         style="fill:#fd1c0c;fill-opacity:0.98823529;fill-rule:nonzero;stroke:none"
         id="path35573" /><path
         d="m 60.3135,10.01488 c 2.2562,0.52652 4.5125,2.00472 4.5125,4.03442 0,2.5062 -3.3094,4.5375 -7.1938,4.5375 h -8.4469 v -0.9032 h 0.6016 c 1.9297,0 1.9812,-0.25 1.9812,-1.1281 V 3.49769 c 0,-0.85156 -0.0515,-1.12813 -1.9812,-1.12813 H 49.1853 V 1.468 c 0.025,0 2.6828,0.1 3.7094,0.1 1.0531,0 2.4813,-0.05 3.7344,-0.1 v 0.90156 h -0.6016 c -1.9297,0 -1.9797,0.25157 -1.9797,1.12813 v 6.19062 h 3.3344 c 0.45,0 1.7531,0 2.8563,-1.02656 0.8781,-0.77812 0.8781,-1.40469 0.8781,-3.08281 0,-1.62969 0,-2.65781 1.1531,-3.60938 1.0766,-0.878122 2.5563,-1.003122 3.2578,-1.003122 2.1297,0 2.6813,2.029692 2.6813,2.782812 0,0.175 0,0.475 -0.425,0.475 -0.3766,0 -0.4016,-0.225 -0.4266,-0.475 C 67.2322,2.29456 66.4041,1.668 65.6275,1.668 c -1.4281,0 -1.6297,1.47969 -1.9297,3.75938 -0.2765,2.00625 -0.3515,2.40625 -1.0781,3.23437 -0.25,0.275 -0.9516,0.92656 -2.3062,1.35313 z m -3.0063,0.375 h -3.2594 v 6.31722 c 0,0.7015 0.025,0.8765 0.6766,0.9515 0.2016,0.025 1.0531,0.025 1.5797,0.025 2.4062,0 5.839,0 5.839,-3.6343 0,-2.8063 -2.1796,-3.65942 -4.8359,-3.65942"
         style="fill:#fd1c0c;fill-opacity:0.98823529;fill-rule:nonzero;stroke:none"
         id="path35575" /><path
         d="m 86.4791,18.4368 c 0,0.425 0,0.6515 -0.35,0.6515 -0.1,0 -0.2266,0 -0.4266,-0.3015 l -1.3281,-1.9047 c -1.0531,1.0531 -2.7828,2.2062 -5.1891,2.2062 -5.2625,0 -9.5984,-4.0609 -9.5984,-9.04842 0,-5.0875 4.4109,-9.073442 9.5984,-9.073442 4.4375,0 7.2938,3.309372 7.2938,6.367192 0,0.275 -0.025,0.475 -0.425,0.475 -0.1516,0 -0.4016,0 -0.4266,-0.325 -0.2,-4.03594 -3.6094,-5.61407 -6.0906,-5.61407 -2.6813,0 -7.2688,1.62813 -7.2688,8.14532 0,6.79222 4.8625,8.17032 7.2188,8.17032 2.4812,0 5.4391,-1.6547 6.0906,-5.9656 0.05,-0.3 0.275,-0.3 0.4516,-0.3 0.45,0 0.45,0.15 0.45,0.6515 v 5.8657"
         style="fill:#fd1c0c;fill-opacity:0.98823529;fill-rule:nonzero;stroke:none"
         id="path35577" /><path
         d="m 99.5853,18.7618 c -0.15,0.4015 -0.225,0.5765 -0.7015,0.5765 -0.4766,0 -0.5516,-0.175 -0.7016,-0.5765 L 92.3931,4.09925 C 92.1416,3.47269 91.715,2.36956 89.4603,2.36956 V 1.468 c 0.8516,0.075 1.7297,0.1 2.5813,0.1 1.0031,0 2.8578,-0.1 3.0078,-0.1 v 0.90156 c -1.1031,0 -1.8047,0.50157 -1.8047,1.20313 0,0.20156 0.025,0.25156 0.125,0.50156 l 1.2031,3.08281 h 7.1184 l 1.454,-3.65937 c 0.05,-0.125 0.125,-0.3 0.125,-0.425 0,-0.70313 -1.354,-0.70313 -2.03,-0.70313 V 1.468 c 1.253,0.05 2.858,0.1 3.734,0.1 1.178,0 3.058,-0.075 3.333,-0.1 v 0.90156 h -0.5 c -1.68,0 -1.855,0.25157 -2.131,0.95313 z m -1.4531,-2.5563 3.208,-8.14531 h -6.4158 z"
         style="fill:#fd1c0c;fill-opacity:0.98823529;fill-rule:nonzero;stroke:none"
         id="path35579" /></g></g></svg>
