<?xml version="1.0" encoding="UTF-8" standalone="no"?>
<!-- Created with Inkscape (http://www.inkscape.org/) -->

<svg
   xmlns:osb="http://www.openswatchbook.org/uri/2009/osb"
   xmlns:dc="http://purl.org/dc/elements/1.1/"
   xmlns:cc="http://creativecommons.org/ns#"
   xmlns:rdf="http://www.w3.org/1999/02/22-rdf-syntax-ns#"
   xmlns:svg="http://www.w3.org/2000/svg"
   xmlns="http://www.w3.org/2000/svg"
   xmlns:sodipodi="http://sodipodi.sourceforge.net/DTD/sodipodi-0.dtd"
   xmlns:inkscape="http://www.inkscape.org/namespaces/inkscape"
   width="457.19952"
   height="527.38574"
   id="svg2"
   version="1.1"
   inkscape:version="0.48.5 r10040"
   sodipodi:docname="infer1-with-prior.svg">
  <defs
     id="defs4">
    <linearGradient
       id="linearGradient4861"
       osb:paint="solid">
      <stop
         style="stop-color:#ffff00;stop-opacity:1;"
         offset="0"
         id="stop4863" />
    </linearGradient>
    <linearGradient
       id="linearGradient4855"
       osb:paint="solid">
      <stop
         style="stop-color:#ffff00;stop-opacity:1;"
         offset="0"
         id="stop4857" />
    </linearGradient>
    <marker
       inkscape:stockid="Arrow1Mend"
       orient="auto"
       refY="0"
       refX="0"
       id="Arrow1Mend"
       style="overflow:visible">
      <path
         id="path4050"
         d="M 0,0 5,-5 -12.5,0 5,5 0,0 z"
         style="fill-rule:evenodd;stroke:#000000;stroke-width:1pt"
         transform="matrix(-0.4,0,0,-0.4,-4,0)"
         inkscape:connector-curvature="0" />
    </marker>
    <marker
       inkscape:stockid="Arrow1Lend"
       orient="auto"
       refY="0"
       refX="0"
       id="Arrow1Lend"
       style="overflow:visible">
      <path
         id="path4044"
         d="M 0,0 5,-5 -12.5,0 5,5 0,0 z"
         style="fill-rule:evenodd;stroke:#000000;stroke-width:1pt"
         transform="matrix(-0.8,0,0,-0.8,-10,0)"
         inkscape:connector-curvature="0" />
    </marker>
    <marker
       inkscape:stockid="Arrow2Lend"
       orient="auto"
       refY="0"
       refX="0"
       id="Arrow2Lend"
       style="overflow:visible">
      <path
         id="path4062"
         style="fill-rule:evenodd;stroke-width:0.625;stroke-linejoin:round"
         d="M 8.7185878,4.0337352 -2.2072895,0.01601326 8.7185884,-4.0017078 c -1.7454984,2.3720609 -1.7354408,5.6174519 -6e-7,8.035443 z"
         transform="matrix(-1.1,0,0,-1.1,-1.1,0)"
         inkscape:connector-curvature="0" />
    </marker>
    <clipPath
       id="clipPath3814"
       clipPathUnits="userSpaceOnUse">
      <path
         id="path3816"
         d="m 0.365062,1.147219 39.88792,0 0,23 -39.88792,0 0,-23 z"
         inkscape:connector-curvature="0" />
    </clipPath>
    <clipPath
       id="clipPath4921"
       clipPathUnits="userSpaceOnUse">
      <path
         id="path4923"
         d="m 0.768375,0.972 32.75179,0 0,30 -32.75179,0 0,-30 z"
         inkscape:connector-curvature="0" />
    </clipPath>
    <clipPath
       id="clipPath4972"
       clipPathUnits="userSpaceOnUse">
      <path
         id="path4974"
         d="m 0.768375,0.972 32.9914,0 0,30 -32.9914,0 0,-30 z"
         inkscape:connector-curvature="0" />
    </clipPath>
    <clipPath
       id="clipPath5103"
       clipPathUnits="userSpaceOnUse">
      <path
         id="path5105"
         d="m 0.768375,0.5103926 50.9916,0 0,34.9884704 -50.9916,0 0,-34.9884704 z"
         inkscape:connector-curvature="0" />
    </clipPath>
    <clipPath
       id="clipPath5160"
       clipPathUnits="userSpaceOnUse">
      <path
         id="path5162"
         d="m 0.768375,0.5103926 52,0 0,34.9884704 -52,0 0,-34.9884704 z"
         inkscape:connector-curvature="0" />
    </clipPath>
    <clipPath
       id="clipPath5217"
       clipPathUnits="userSpaceOnUse">
      <path
         id="path5219"
         d="m 0.553219,1.104393 189.000001,0 0,32.81361 -189.000001,0 0,-32.81361 z"
         inkscape:connector-curvature="0" />
    </clipPath>
    <clipPath
       id="clipPath5533"
       clipPathUnits="userSpaceOnUse">
      <path
         id="path5535"
         d="m 0.550687,0.9466115 192.995803,0 0,36.8136095 -192.995803,0 0,-36.8136095 z"
         inkscape:connector-curvature="0" />
    </clipPath>
  </defs>
  <sodipodi:namedview
     id="base"
     pagecolor="#ffffff"
     bordercolor="#666666"
     borderopacity="1.0"
     inkscape:pageopacity="0.0"
     inkscape:pageshadow="2"
     inkscape:zoom="0.7"
     inkscape:cx="337.88061"
     inkscape:cy="151.16782"
     inkscape:document-units="px"
     inkscape:current-layer="layer1"
     showgrid="false"
     showguides="true"
     inkscape:guide-bbox="true"
     inkscape:window-width="1324"
     inkscape:window-height="866"
     inkscape:window-x="32"
     inkscape:window-y="5"
     inkscape:window-maximized="0"
     fit-margin-top="0"
     fit-margin-left="0"
     fit-margin-right="0"
     fit-margin-bottom="0">
    <sodipodi:guide
       orientation="0,1"
       position="152.88061,265.30491"
       id="guide3773" />
  </sodipodi:namedview>
  <metadata
     id="metadata7">
    <rdf:RDF>
      <cc:Work
         rdf:about="">
        <dc:format>image/svg+xml</dc:format>
        <dc:type
           rdf:resource="http://purl.org/dc/dcmitype/StillImage" />
        <dc:title></dc:title>
      </cc:Work>
    </rdf:RDF>
  </metadata>
  <g
     inkscape:label="Layer 1"
     inkscape:groupmode="layer"
     id="layer1"
     transform="translate(-9.9765297,25.432942)">
    <path
       style="fill:none;stroke:#000000;stroke-width:2.29999995;stroke-linecap:butt;stroke-linejoin:miter;stroke-miterlimit:4;stroke-opacity:1;stroke-dasharray:none;marker-end:url(#Arrow1Mend)"
       d="m 184.83367,0.5242 0,151.42857"
       id="path5310"
       inkscape:connector-curvature="0" />
    <path
       sodipodi:type="arc"
       style="fill:#000000;fill-opacity:1;stroke:#000000;stroke-width:2.20000005;stroke-linecap:butt;stroke-linejoin:miter;stroke-miterlimit:4;stroke-opacity:1;stroke-dasharray:none"
       id="path2985"
       sodipodi:cx="155.71428"
       sodipodi:cy="230.93361"
       sodipodi:rx="22.857143"
       sodipodi:ry="22.857143"
       d="m 178.57142,230.93361 c 0,12.62365 -10.23349,22.85714 -22.85714,22.85714 -12.62365,0 -22.85714,-10.23349 -22.85714,-22.85714 0,-12.62365 10.23349,-22.85714 22.85714,-22.85714 12.62365,0 22.85714,10.23349 22.85714,22.85714 z"
       transform="matrix(1,0,0,-1,-40,579.58151)" />
    <path
       sodipodi:type="arc"
       style="fill:#000000;fill-opacity:1;stroke:#000000;stroke-width:2.20000005;stroke-linecap:butt;stroke-linejoin:miter;stroke-miterlimit:4;stroke-opacity:1;stroke-dasharray:none"
       id="path2985-2"
       sodipodi:cx="155.71428"
       sodipodi:cy="230.93361"
       sodipodi:rx="22.857143"
       sodipodi:ry="22.857143"
       d="m 178.57142,230.93361 c 0,12.62365 -10.23349,22.85714 -22.85714,22.85714 -12.62365,0 -22.85714,-10.23349 -22.85714,-22.85714 0,-12.62365 10.23349,-22.85714 22.85714,-22.85714 12.62365,0 22.85714,10.23349 22.85714,22.85714 z"
       transform="matrix(1,0,0,-1,78.571435,579.5815)" />
    <g
       id="g3808"
       transform="matrix(1.25,0,0,-1.25,93.683088,548.23979)" />
    <g
       id="g3810"
       transform="matrix(1.25,0,0,-1.25,218.54023,174.5255)">
      <g
         id="g3812"
         clip-path="url(#clipPath3814)">
        <path
           inkscape:connector-curvature="0"
           d="M 3.480473,3.875063 C 3.187576,2.650204 3.134318,2.383926 1.53667,2.383926 c -0.426039,0 -0.8254507,0 -0.8254507,-0.665685 0,-0.292904 0.1863919,-0.42604 0.4792957,-0.42604 0.958589,0 1.997061,0.10651 3.008901,0.10651 1.198234,0 2.396475,-0.10651 3.568097,-0.10651 0.159782,0 0.639059,0 0.639059,0.718944 0,0.372781 -0.372801,0.372781 -0.878732,0.372781 -1.784027,0 -1.784027,0.266278 -1.784027,0.585807 0,0.42604 1.51777,6.284095 1.757443,7.189407 0.479277,-1.038441 1.464484,-2.316559 3.301774,-2.316559 4.1805,0 8.65391,5.245599 8.65391,10.544439 0,3.35508 -2.0503,5.72495 -4.76632,5.72495 -1.81063,0 -3.51479,-1.27812 -4.713019,-2.68944 -0.346149,1.94383 -1.890592,2.68944 -3.221948,2.68944 -1.6509,0 -2.343217,-1.38466 -2.662746,-2.05038 -0.63906,-1.19822 -1.11835,-3.35501 -1.11835,-3.46155 0,-0.3728 0.372781,-0.3728 0.426039,-0.3728 0.372781,0 0.399407,0.05331 0.612426,0.82549 0.612434,2.55624 1.331377,4.28698 2.636121,4.28698 0.61244,0 1.11837,-0.29284 1.11837,-1.65085 0,-0.82549 -0.106544,-1.22488 -0.266257,-1.83729 L 3.480473,3.875063 z M 9.791166,19.45212 c 0.266324,0.95862 1.224884,1.97041 1.890594,2.503 1.25146,1.11833 2.28991,1.38459 2.90238,1.38459 1.4379,0 2.28998,-1.27812 2.28998,-3.38166 0,-2.1302 -1.17164,-6.25746 -1.83735,-7.61547 -1.22481,-2.502931 -2.92897,-3.701227 -4.2604,-3.701227 -2.369798,0 -2.849075,2.982277 -2.849075,3.195297 0,0.07989 0,0.1332 0.106476,0.58582 l 1.757395,7.02965"
           style="fill:#000000;fill-opacity:1;fill-rule:nonzero;stroke:none"
           id="path3818" />
        <path
           inkscape:connector-curvature="0"
           d="M 25.12858,5.845499 C 24.24992,4.514123 23.45108,3.848438 21.95994,3.741928 21.72027,3.715302 21.40077,3.715302 21.40077,3.236004 c 0,-0.292903 0.21302,-0.399413 0.34615,-0.399413 0.63906,0 1.46449,0.10651 2.15685,0.10651 0.79877,0 1.83729,-0.10651 2.58282,-0.10651 0.13313,0 0.50593,0 0.50593,0.559182 0,0.319529 -0.34615,0.346155 -0.42604,0.346155 -0.21302,0.026626 -1.11833,0.079884 -1.11833,0.772195 0,0.292903 0.26625,0.718943 0.3728,0.931962 l 2.02365,3.115446 7.16278,0 0.58582,-4.153918 C 35.51331,4.141341 35.35353,3.741928 33.88904,3.741928 c -0.31956,0 -0.66571,0 -0.66571,-0.532549 0,-0.10651 0.07989,-0.372788 0.39946,-0.372788 0.71895,0 2.50293,0.10651 3.22188,0.10651 0.45269,0 1.03851,-0.026626 1.49113,-0.026626 0.4527,-0.026626 0.98521,-0.079884 1.4379,-0.079884 0.31957,0 0.50593,0.213019 0.50593,0.532549 0,0.372788 -0.31956,0.372788 -0.71895,0.372788 -1.4379,0 -1.49113,0.21302 -1.57102,0.79882 L 35.77957,20.01129 c -0.07989,0.53258 -0.13313,0.71895 -0.61241,0.71895 -0.45269,0 -0.6124,-0.23961 -0.85208,-0.58582 L 25.12858,5.845499 z m 3.30184,3.621348 5.27226,8.201223 1.17157,-8.201223 -6.44383,0"
           style="fill:#000000;fill-opacity:1;fill-rule:nonzero;stroke:none"
           id="path3820" />
      </g>
    </g>
    <path
       style="fill:none;stroke:#000000;stroke-width:2.4000001;stroke-linecap:butt;stroke-linejoin:miter;stroke-miterlimit:4;stroke-opacity:1;stroke-dasharray:none;marker-mid:none;marker-end:url(#Arrow1Mend)"
       d="M 182.85714,178.07647 125.71429,323.79075"
       id="path3853"
       inkscape:connector-curvature="0" />
    <path
       style="fill:none;stroke:#000000;stroke-width:2.4000001;stroke-linecap:butt;stroke-linejoin:miter;stroke-miterlimit:4;stroke-opacity:1;stroke-dasharray:none;marker-mid:none;marker-end:url(#Arrow1Mend)"
       d="m 191.42857,188.07647 35.71429,137.14286"
       id="path3855"
       inkscape:connector-curvature="0" />
    <path
       sodipodi:type="arc"
       style="fill:#ffffff;fill-opacity:1;fill-rule:evenodd;stroke:#000000;stroke-width:2.20000005;stroke-linecap:butt;stroke-linejoin:miter;stroke-miterlimit:4;stroke-opacity:1;stroke-dasharray:none"
       id="path2985-2-2"
       sodipodi:cx="155.71428"
       sodipodi:cy="230.93361"
       sodipodi:rx="22.857143"
       sodipodi:ry="22.857143"
       d="m 178.57142,230.93361 c 0,12.62365 -10.23349,22.85714 -22.85714,22.85714 -12.62365,0 -22.85714,-10.23349 -22.85714,-22.85714 0,-12.62365 10.23349,-22.85714 22.85714,-22.85714 12.62365,0 22.85714,10.23349 22.85714,22.85714 z"
       transform="matrix(1,0,0,-1,28.571435,409.01008)" />
    <rect
       style="fill:none;stroke:#000000;stroke-width:1.85331047;stroke-miterlimit:4;stroke-opacity:1;stroke-dasharray:none"
       id="rect5064"
       width="338.91812"
       height="264.55157"
       x="10.903185"
       y="236.47455" />
    <g
       transform="matrix(1.25,0,0,-1.25,78.072724,427.32407)"
       inkscape:label="yi1"
       id="g5095">
      <g
         id="g5097" />
      <g
         id="g5099">
        <g
           clip-path="url(#clipPath5103)"
           id="g5101">
          <path
             id="path5107"
             style="fill:#000000;fill-opacity:1;fill-rule:nonzero;stroke:none"
             d="m 21.69754,31.26509 0.50593,0.50593 c 1.09175,1.0651 2.26333,2.28998 4.71309,2.47635 0.39939,0.02665 0.71895,0.02665 0.71895,0.66571 0,0.29291 -0.18644,0.45269 -0.47935,0.45269 -0.9319,0 -1.97041,-0.13319 -2.92897,-0.13319 -1.19822,0 -2.44976,0.13319 -3.59475,0.13319 -0.21302,0 -0.69229,0 -0.69229,-0.69236 0,-0.39939 0.3728,-0.42604 0.55917,-0.42604 0.23967,0 1.27811,-0.07989 1.27811,-0.82543 0,-0.6124 -0.82542,-1.54437 -0.95855,-1.73081 L 12.48446,22.10525 8.516975,32.75623 c -0.21302,0.50593 -0.21302,0.58582 -0.21302,0.61247 0,0.87867 1.757395,0.87867 2.130195,0.87867 0.50593,0 0.85208,0 0.85208,0.71895 0,0.39945 -0.42604,0.39945 -0.53258,0.39945 -1.011795,0 -3.5148,-0.13319 -4.526647,-0.13319 -0.90533,0 -3.115411,0.13319 -4.020742,0.13319 -0.213019,0 -0.692317,0 -0.692317,-0.71895 0,-0.39945 0.372788,-0.39945 0.825453,-0.39945 2.156823,0 2.316591,-0.3195 2.63612,-1.22481 L 9.395706,21.19993 c 0.026585,-0.10648 0.133129,-0.50593 0.133129,-0.61241 0,-0.10654 -1.4379,-5.88466 -1.597682,-6.52372 -0.479284,-1.97048 -0.505909,-2.07696 -3.381675,-2.13019 -0.692318,0 -0.985221,0 -0.985221,-0.71895 0,-0.39946 0.426039,-0.39946 0.505923,-0.39946 1.011847,0 3.514825,0.10655 4.526686,0.10655 1.01186,0 3.594684,-0.10655 4.606544,-0.10655 0.23967,0 0.66571,0 0.66571,0.71895 0,0.39946 -0.31956,0.39946 -0.98528,0.39946 -0.07982,0 -0.77218,0 -1.38459,0.07982 -0.7456,0.07989 -0.95862,0.1332 -0.95862,0.55924 0,0.26625 0.31956,1.51772 0.50593,2.26332 l 1.25153,5.08582 c 0.18637,0.66571 0.21302,0.77219 0.50593,1.09175 l 8.89352,10.25153"
             inkscape:connector-curvature="0" />
          <path
             id="path5109"
             style="fill:#000000;fill-opacity:1;fill-rule:nonzero;stroke:none"
             d="m 29.17988,21.19993 c 0,0.39939 -0.29291,0.93197 -0.9852,0.93197 -0.6923,0 -1.41125,-0.63906 -1.41125,-1.35801 0,-0.42604 0.3195,-0.95855 1.01179,-0.95855 0.71895,0 1.38466,0.69229 1.38466,1.38459 z M 24.06741,8.445401 C 23.98752,8.125838 23.85439,7.832927 23.85439,7.406888 c 0,-1.171588 0.98521,-2.130177 2.36987,-2.130177 2.50293,0 3.62134,3.461601 3.62134,3.834334 0,0.319564 -0.31957,0.319564 -0.39946,0.319564 -0.34615,0 -0.3728,-0.159782 -0.47928,-0.42604 -0.58582,-1.997075 -1.6775,-3.035547 -2.66278,-3.035547 -0.50586,0 -0.6124,0.319529 -0.6124,0.878704 0,0.585815 0.15978,1.065092 0.39938,1.597675 0.23968,0.692297 0.50594,1.358009 0.79885,2.023649 0.21302,0.58583 1.11833,2.8758 1.22488,3.16871 0.07989,0.26626 0.15978,0.55917 0.15978,0.79878 0,1.19822 -1.01186,2.13019 -2.39652,2.13019 -2.47635,0 -3.62134,-3.40831 -3.62134,-3.83435 0,-0.3195 0.34622,-0.3195 0.42604,-0.3195 0.34622,0 0.3728,0.13313 0.45269,0.39939 0.63906,2.15685 1.73081,3.06217 2.66278,3.06217 0.39939,0 0.63906,-0.21302 0.63906,-0.87873 0,-0.58576 -0.15978,-0.95856 -0.77225,-2.50293 L 24.06741,8.445401"
             inkscape:connector-curvature="0" />
          <path
             id="path5111"
             style="fill:#000000;fill-opacity:1;fill-rule:nonzero;stroke:none"
             d="m 36.55568,5.91577 c 0,-1.358002 -0.23967,-2.982275 -1.94383,-4.579923 -0.10647,-0.10651 -0.18636,-0.159768 -0.18636,-0.292904 0,-0.1863938 0.21302,-0.3461585 0.34614,-0.3461585 0.34615,0 2.47635,1.9970575 2.47635,4.9793335 0,1.544403 -0.58575,2.74263 -1.73074,2.74263 -0.85208,0 -1.4379,-0.665712 -1.4379,-1.437879 0,-0.798828 0.55917,-1.464512 1.4379,-1.464512 0.6124,0 1.01179,0.399413 1.03844,0.399413"
             inkscape:connector-curvature="0" />
          <path
             id="path5113"
             style="fill:#000000;fill-opacity:1;fill-rule:nonzero;stroke:none"
             d="m 48.16529,21.46619 c 0,0.66571 -0.05331,0.69236 -0.7456,0.69236 -1.59762,-1.57103 -3.8876,-1.59768 -4.92611,-1.59768 l 0,-0.90532 c 0.61247,0 2.26339,0 3.64799,0.71895 l 0,-12.807831 c 0,-0.825453 0,-1.144982 -2.503,-1.144982 l -0.95855,0 0,-0.90533 c 0.45262,0.026625 3.54144,0.106509 4.44676,0.106509 0.79884,0 3.94089,-0.079884 4.50006,-0.106509 l 0,0.90533 -0.95862,0 c -2.50293,0 -2.50293,0.319529 -2.50293,1.144982 l 0,13.899521"
             inkscape:connector-curvature="0" />
        </g>
      </g>
    </g>
    <g
       transform="matrix(1.25,0,0,-1.25,201.57345,427.32407)"
       inkscape:label="yi2"
       id="g5152">
      <g
         id="g5154" />
      <g
         id="g5156">
        <g
           clip-path="url(#clipPath5160)"
           id="g5158">
          <path
             id="path5164"
             style="fill:#000000;fill-opacity:1;fill-rule:nonzero;stroke:none"
             d="m 21.69754,31.26509 0.50593,0.50593 c 1.09175,1.0651 2.26333,2.28998 4.71309,2.47635 0.39939,0.02665 0.71895,0.02665 0.71895,0.66571 0,0.29291 -0.18644,0.45269 -0.47935,0.45269 -0.9319,0 -1.97041,-0.13319 -2.92897,-0.13319 -1.19822,0 -2.44976,0.13319 -3.59475,0.13319 -0.21302,0 -0.69229,0 -0.69229,-0.69236 0,-0.39939 0.3728,-0.42604 0.55917,-0.42604 0.23967,0 1.27811,-0.07989 1.27811,-0.82543 0,-0.6124 -0.82542,-1.54437 -0.95855,-1.73081 L 12.48446,22.10525 8.516975,32.75623 c -0.21302,0.50593 -0.21302,0.58582 -0.21302,0.61247 0,0.87867 1.757395,0.87867 2.130195,0.87867 0.50593,0 0.85208,0 0.85208,0.71895 0,0.39945 -0.42604,0.39945 -0.53258,0.39945 -1.011795,0 -3.5148,-0.13319 -4.526647,-0.13319 -0.90533,0 -3.115411,0.13319 -4.020742,0.13319 -0.213019,0 -0.692317,0 -0.692317,-0.71895 0,-0.39945 0.372788,-0.39945 0.825453,-0.39945 2.156823,0 2.316591,-0.3195 2.63612,-1.22481 L 9.395706,21.19993 c 0.026585,-0.10648 0.133129,-0.50593 0.133129,-0.61241 0,-0.10654 -1.4379,-5.88466 -1.597682,-6.52372 -0.479284,-1.97048 -0.505909,-2.07696 -3.381675,-2.13019 -0.692318,0 -0.985221,0 -0.985221,-0.71895 0,-0.39946 0.426039,-0.39946 0.505923,-0.39946 1.011847,0 3.514825,0.10655 4.526686,0.10655 1.01186,0 3.594684,-0.10655 4.606544,-0.10655 0.23967,0 0.66571,0 0.66571,0.71895 0,0.39946 -0.31956,0.39946 -0.98528,0.39946 -0.07982,0 -0.77218,0 -1.38459,0.07982 -0.7456,0.07989 -0.95862,0.1332 -0.95862,0.55924 0,0.26625 0.31956,1.51772 0.50593,2.26332 l 1.25153,5.08582 c 0.18637,0.66571 0.21302,0.77219 0.50593,1.09175 l 8.89352,10.25153"
             inkscape:connector-curvature="0" />
          <path
             id="path5166"
             style="fill:#000000;fill-opacity:1;fill-rule:nonzero;stroke:none"
             d="m 29.17988,21.19993 c 0,0.39939 -0.29291,0.93197 -0.9852,0.93197 -0.6923,0 -1.41125,-0.63906 -1.41125,-1.35801 0,-0.42604 0.3195,-0.95855 1.01179,-0.95855 0.71895,0 1.38466,0.69229 1.38466,1.38459 z M 24.06741,8.445401 C 23.98752,8.125838 23.85439,7.832927 23.85439,7.406888 c 0,-1.171588 0.98521,-2.130177 2.36987,-2.130177 2.50293,0 3.62134,3.461601 3.62134,3.834334 0,0.319564 -0.31957,0.319564 -0.39946,0.319564 -0.34615,0 -0.3728,-0.159782 -0.47928,-0.42604 -0.58582,-1.997075 -1.6775,-3.035547 -2.66278,-3.035547 -0.50586,0 -0.6124,0.319529 -0.6124,0.878704 0,0.585815 0.15978,1.065092 0.39938,1.597675 0.23968,0.692297 0.50594,1.358009 0.79885,2.023649 0.21302,0.58583 1.11833,2.8758 1.22488,3.16871 0.07989,0.26626 0.15978,0.55917 0.15978,0.79878 0,1.19822 -1.01186,2.13019 -2.39652,2.13019 -2.47635,0 -3.62134,-3.40831 -3.62134,-3.83435 0,-0.3195 0.34622,-0.3195 0.42604,-0.3195 0.34622,0 0.3728,0.13313 0.45269,0.39939 0.63906,2.15685 1.73081,3.06217 2.66278,3.06217 0.39939,0 0.63906,-0.21302 0.63906,-0.87873 0,-0.58576 -0.15978,-0.95856 -0.77225,-2.50293 L 24.06741,8.445401"
             inkscape:connector-curvature="0" />
          <path
             id="path5168"
             style="fill:#000000;fill-opacity:1;fill-rule:nonzero;stroke:none"
             d="m 36.55568,5.91577 c 0,-1.358002 -0.23967,-2.982275 -1.94383,-4.579923 -0.10647,-0.10651 -0.18636,-0.159768 -0.18636,-0.292904 0,-0.1863938 0.21302,-0.3461585 0.34614,-0.3461585 0.34615,0 2.47635,1.9970575 2.47635,4.9793335 0,1.544403 -0.58575,2.74263 -1.73074,2.74263 -0.85208,0 -1.4379,-0.665712 -1.4379,-1.437879 0,-0.798828 0.55917,-1.464512 1.4379,-1.464512 0.6124,0 1.01179,0.399413 1.03844,0.399413"
             inkscape:connector-curvature="0" />
          <path
             id="path5170"
             style="fill:#000000;fill-opacity:1;fill-rule:nonzero;stroke:none"
             d="m 52.42568,10.09625 -0.85208,0 C 51.49371,9.537084 51.25404,8.045947 50.93455,7.806342 50.72153,7.64656 48.80435,7.64656 48.43155,7.64656 l -4.60655,0 c 2.63613,2.343217 3.5148,3.03551 5.00593,4.20716 1.86394,1.49113 3.59475,3.03551 3.59475,5.43196 0,3.03552 -2.66278,4.87287 -5.85807,4.87287 -3.11541,0 -5.21895,-2.1835 -5.21895,-4.47341 0,-1.27812 1.0651,-1.41132 1.33136,-1.41132 0.58582,0 1.33135,0.42604 1.33135,1.33143 0,0.45262 -0.18637,1.33135 -1.49114,1.33135 0.77219,1.78405 2.47635,2.31657 3.67458,2.31657 2.50299,0 3.80777,-1.94376 3.80777,-3.96749 0,-2.18343 -1.57103,-3.91424 -2.36987,-4.81956 L 41.58826,6.501571 C 41.34866,6.288551 41.34866,6.2353 41.34866,5.516357 l 10.33142,0 0.7456,4.579893"
             inkscape:connector-curvature="0" />
        </g>
      </g>
    </g>
    <g
       transform="matrix(1.25,0,0,-1.25,106.16836,500.68526)"
       inkscape:label="ie1n"
       id="g5209">
      <g
         id="g5211" />
      <g
         id="g5213">
        <g
           clip-path="url(#clipPath5217)"
           id="g5215">
          <path
             id="path5221"
             style="fill:#000000;fill-opacity:1;fill-rule:nonzero;stroke:none"
             d="m 10.24565,31.1668 c 0,0.71895 -0.505931,1.27811 -1.331425,1.27811 -0.958555,0 -1.917157,-0.93197 -1.917157,-1.89052 0,-0.69237 0.479325,-1.30477 1.357989,-1.30477 0.825493,0 1.890593,0.82542 1.890593,1.91718 z M 7.529631,17.66666 c 0.426039,1.03852 0.426039,1.11834 0.772188,2.07696 0.29291,0.71895 0.479277,1.22488 0.479277,1.91718 0,1.59761 -1.144989,2.92904 -2.955636,2.92904 -3.355064,0 -4.739692,-5.19237 -4.739692,-5.53851 0,-0.34615 0.372788,-0.34615 0.42604,-0.34615 0.372787,0 0.399413,0.07982 0.585807,0.63906 0.985215,3.38166 2.396468,4.44676 3.621335,4.44676 0.292897,0 0.90533,0 0.90533,-1.14499 0,-0.74554 -0.239645,-1.49114 -0.399414,-1.86394 C 5.93197,19.8501 4.334322,15.69625 3.748514,14.15187 3.402359,13.2199 2.923061,12.02168 2.923061,11.27607 c 0,-1.704154 1.224867,-2.955619 2.95565,-2.955619 3.355077,0 4.686429,5.218949 4.686429,5.538509 0,0.34615 -0.31949,0.34615 -0.42604,0.34615 -0.346144,0 -0.346144,-0.10654 -0.53251,-0.63906 C 8.967531,11.30273 7.769235,9.119292 5.93197,9.119292 c -0.585808,0 -0.852079,0.346149 -0.852079,1.171578 0,0.90531 0.213019,1.41124 1.038466,3.59468 l 1.411274,3.78111"
             inkscape:connector-curvature="0" />
          <path
             id="path5223"
             style="fill:#000000;fill-opacity:1;fill-rule:nonzero;stroke:none"
             d="m 47.01816,20.46257 c 0.55917,0 1.22482,0 1.22482,0.71895 0,0.71895 -0.66565,0.71895 -1.17158,0.71895 l -21.51499,0 c -0.50593,0 -1.19822,0 -1.19822,-0.71895 0,-0.71895 0.69229,-0.71895 1.22488,-0.71895 l 21.43509,0 z m 0.05324,-6.97641 c 0.50593,0 1.17158,0 1.17158,0.71895 0,0.71895 -0.66565,0.71895 -1.22482,0.71895 l -21.43509,0 c -0.53259,0 -1.22488,0 -1.22488,-0.71895 0,-0.71895 0.69229,-0.71895 1.19822,-0.71895 l 21.51499,0"
             inkscape:connector-curvature="0" />
          <path
             id="path5225"
             style="fill:#000000;fill-opacity:1;fill-rule:nonzero;stroke:none"
             d="m 70.82313,31.69938 c 0,0.87866 0,0.9319 -0.82549,0.9319 -2.23668,-2.28991 -5.40539,-2.28991 -6.55038,-2.28991 l 0,-1.1184 c 0.71895,0 2.84915,0 4.71309,0.93197 l 0,-18.61261 c 0,-1.27812 -0.10654,-1.704156 -3.35508,-1.704156 l -1.14499,0 0,-1.118336 c 1.25154,0.106543 4.39353,0.106543 5.83156,0.106543 1.43763,0 4.55351,0 5.80436,-0.106543 l 0,1.118336 -1.14451,0 c -3.22222,0 -3.32856,0.399456 -3.32856,1.704156 l 0,20.15705"
             inkscape:connector-curvature="0" />
          <path
             id="path5227"
             style="fill:#000000;fill-opacity:1;fill-rule:nonzero;stroke:none"
             d="m 85.44139,8.746491 c 0,2.369799 -0.90524,3.781119 -2.2897,3.781119 -1.19837,0 -1.91752,-0.90539 -1.91752,-1.91718 0,-0.958623 0.71915,-1.890592 1.91752,-1.890592 0.42604,0 0.90525,0.133128 1.25153,0.452692 0.10634,0.079891 0.13293,0.133129 0.1861,0.133129 0.02658,0 0.05317,-0.053238 0.05317,-0.559168 0,-2.66276 -1.25154,-4.792957 -2.42264,-5.991198 C 81.8204,2.355886 81.8204,2.302628 81.8204,2.169492 c 0,-0.239645 0.18609,-0.372788 0.34629,-0.372788 0.39945,0 3.2747,2.742631 3.2747,6.949787"
             inkscape:connector-curvature="0" />
          <path
             id="path5229"
             style="fill:#000000;fill-opacity:1;fill-rule:nonzero;stroke:none"
             d="m 101.0453,10.61043 c 0,1.0651 -0.852,1.91718 -1.89089,1.91718 -1.03817,0 -1.91684,-0.85208 -1.91684,-1.91718 0,-1.038514 0.87867,-1.890592 1.91684,-1.890592 1.03889,0 1.89089,0.852078 1.89089,1.890592"
             inkscape:connector-curvature="0" />
          <path
             id="path5231"
             style="fill:#000000;fill-opacity:1;fill-rule:nonzero;stroke:none"
             d="m 116.9417,10.61043 c 0,1.0651 -0.8521,1.91718 -1.8902,1.91718 -1.0389,0 -1.9175,-0.85208 -1.9175,-1.91718 0,-1.038514 0.8786,-1.890592 1.9175,-1.890592 1.0381,0 1.8902,0.852078 1.8902,1.890592"
             inkscape:connector-curvature="0" />
          <path
             id="path5233"
             style="fill:#000000;fill-opacity:1;fill-rule:nonzero;stroke:none"
             d="m 132.8388,10.61043 c 0,1.0651 -0.8521,1.91718 -1.8909,1.91718 -1.0382,0 -1.9169,-0.85208 -1.9169,-1.91718 0,-1.038514 0.8787,-1.890592 1.9169,-1.890592 1.0388,0 1.8909,0.852078 1.8909,1.890592"
             inkscape:connector-curvature="0" />
          <path
             id="path5235"
             style="fill:#000000;fill-opacity:1;fill-rule:nonzero;stroke:none"
             d="m 149.241,8.746491 c 0,2.369799 -0.9053,3.781119 -2.2897,3.781119 -1.1984,0 -1.9176,-0.90539 -1.9176,-1.91718 0,-0.958623 0.7192,-1.890592 1.9176,-1.890592 0.426,0 0.9052,0.133128 1.2515,0.452692 0.1063,0.079891 0.1329,0.133129 0.1861,0.133129 0.0266,0 0.0532,-0.053238 0.0532,-0.559168 0,-2.66276 -1.2516,-4.792957 -2.4234,-5.991198 C 145.62,2.355886 145.62,2.302628 145.62,2.169492 c 0,-0.239645 0.1861,-0.372788 0.3456,-0.372788 0.3994,0 3.2754,2.742631 3.2754,6.949787"
             inkscape:connector-curvature="0" />
          <path
             id="path5237"
             style="fill:#000000;fill-opacity:1;fill-rule:nonzero;stroke:none"
             d="m 185.0017,29.46264 c 0.3729,1.4379 1.0116,2.55623 3.8875,2.66278 0.1595,0 0.6128,0.05324 0.6128,0.71888 0,0.05331 0,0.39945 -0.4799,0.39945 -1.1711,0 -2.4492,-0.10654 -3.621,-0.10654 -1.2249,0 -2.4764,0.10654 -3.6748,0.10654 -0.2127,0 -0.6387,0 -0.6387,-0.71895 0,-0.39938 0.3728,-0.39938 0.6387,-0.39938 2.0504,-0.02665 2.4499,-0.77226 2.4499,-1.57103 0,-0.10654 -0.0798,-0.63906 -0.1063,-0.7456 l -4.0212,-16.00306 -7.9345,18.77231 c -0.2932,0.63906 -0.3197,0.66571 -1.1452,0.66571 l -4.8194,0 c -0.7191,0 -1.0388,0 -1.0388,-0.71895 0,-0.39938 0.3197,-0.39938 1.0122,-0.39938 0.1595,0 2.4227,0 2.4227,-0.31957 l -4.7928,-19.27824 c -0.3729,-1.4379 -0.985,-2.582892 -3.8875,-2.689436 -0.2134,0 -0.6122,-0.053238 -0.6122,-0.718882 0,-0.266326 0.1861,-0.399454 0.4792,-0.399454 1.1445,0 2.3961,0.106543 3.5679,0.106543 1.2249,0 2.5296,-0.106543 3.7014,-0.106543 0.1861,0 0.6653,0 0.6653,0.718949 0,0.346149 -0.3463,0.399387 -0.7185,0.399387 -2.1036,0.053306 -2.3701,0.852076 -2.3701,1.571026 0,0.26633 0.0266,0.42604 0.1329,0.8255 l 4.7396,18.95875 c 0.1336,-0.21302 0.1336,-0.29291 0.3197,-0.63906 l 8.9468,-21.142256 c 0.24,-0.612406 0.3729,-0.692296 0.6926,-0.692296 0.3995,0 0.3995,0.106543 0.559,0.745603 l 5.0327,19.997199"
             inkscape:connector-curvature="0" />
        </g>
      </g>
    </g>
    <path
       sodipodi:type="arc"
       style="fill:#c8c8c8;fill-opacity:1;fill-rule:evenodd;stroke:#060606;stroke-width:2.20000005;stroke-linecap:butt;stroke-linejoin:miter;stroke-miterlimit:4;stroke-opacity:0.98260869;stroke-dasharray:none"
       id="path2985-2-2-4"
       sodipodi:cx="155.71428"
       sodipodi:cy="230.93361"
       sodipodi:rx="22.857143"
       sodipodi:ry="22.857143"
       d="m 178.57142,230.93361 c 0,12.62365 -10.23349,22.85714 -22.85714,22.85714 -12.62365,0 -22.85714,-10.23349 -22.85714,-22.85714 0,-12.62365 10.23349,-22.85714 22.85714,-22.85714 12.62365,0 22.85714,10.23349 22.85714,22.85714 z"
       transform="matrix(1,0,0,-1,29.119393,229.45781)" />
    <g
       transform="matrix(1.25,0,0,-1.25,226.00805,29.08419)"
       inkscape:label="alpha"
       id="g5525">
      <g
         id="g5527" />
      <g
         id="g5529">
        <g
           clip-path="url(#clipPath5533)"
           id="g5531">
          <path
             id="path5537"
             style="fill:#000000;fill-opacity:1;fill-rule:nonzero;stroke:none"
             d="m 20.41476,16.36389 c 3.38173,3.86101 4.1805,7.93504 4.1805,8.04151 0,0.47928 -0.53252,0.47928 -0.87866,0.47928 -0.66572,0 -0.71895,-0.05324 -0.87874,-0.74553 -0.69229,-2.39646 -1.75739,-4.36694 -2.55623,-5.48528 -0.02659,1.73081 -0.07989,3.83436 -2.02366,5.77819 -1.86394,1.89052 -4.1805,2.26332 -5.88466,2.26332 -7.322584,0 -11.263446,-5.67164 -11.263446,-10.30483 0,-3.96749 2.929022,-6.23081 7.429095,-6.23081 3.434901,0 6.390591,1.49114 8.307771,2.84915 0.63906,-1.5178 2.10354,-2.84915 4.28698,-2.84915 2.36987,0 3.59475,1.6775 3.59475,2.42311 0,0.50586 -0.50593,0.50586 -0.8255,0.50586 -0.45262,0 -0.63906,0 -0.82542,-0.47928 -0.42604,-1.03844 -1.62427,-1.14499 -1.67758,-1.14499 -0.90531,0 -0.9852,4.1805 -0.9852,4.89945 z M 8.725326,11.46444 c -2.023694,0 -3.488206,0.95862 -3.488206,3.32843 0,1.19829 0.825453,5.19236 1.890552,7.26932 1.144962,2.28998 3.381698,3.32842 5.218988,3.32842 3.32842,0 3.72781,-3.94083 3.88759,-7.45569 0.02666,-0.90531 0.15978,-2.47634 0.15978,-3.35507 0,-0.42604 -2.18343,-1.67751 -3.08881,-2.0769 -2.15679,-0.93196 -3.727815,-1.03851 -4.579894,-1.03851"
             inkscape:connector-curvature="0" />
          <path
             id="path5539"
             style="fill:#000000;fill-opacity:1;fill-rule:nonzero;stroke:none"
             d="m 61.42108,22.19532 c 0.53251,0 1.22488,0 1.22488,0.71895 0,0.71895 -0.69237,0.71895 -1.1983,0.71895 l -21.48833,0 c -0.50593,0 -1.19823,0 -1.19823,-0.71895 0,-0.71895 0.6923,-0.71895 1.22488,-0.71895 l 21.4351,0 z m 0.02658,-6.94976 c 0.50593,0 1.1983,0 1.1983,0.71895 0,0.71895 -0.69237,0.71895 -1.22488,0.71895 l -21.4351,0 c -0.53258,0 -1.22488,0 -1.22488,-0.71895 0,-0.71895 0.6923,-0.71895 1.19823,-0.71895 l 21.48833,0"
             inkscape:connector-curvature="0" />
          <path
             id="path5541"
             style="fill:#000000;fill-opacity:1;fill-rule:nonzero;stroke:none"
             d="m 86.45113,1.851943 c 0,0.10651 0,0.159768 -0.61281,0.772202 -4.49966,4.526665 -5.64485,11.316645 -5.64485,16.801915 0,6.25746 1.35787,12.51492 5.77845,16.98834 0.47921,0.45269 0.47921,0.50593 0.47921,0.6124 0,0.26633 -0.16019,0.37281 -0.37287,0.37281 -0.34628,0 -3.59509,-2.4497 -5.6987,-7.003 -1.83708,-3.96748 -2.26312,-7.93504 -2.26312,-10.97055 0,-2.79584 0.37287,-7.13612 2.37014,-11.183499 2.15678,-4.420182 5.2454,-6.763399 5.59168,-6.763399 0.21268,0 0.37287,0.10651 0.37287,0.372781"
             inkscape:connector-curvature="0" />
          <path
             id="path5543"
             style="fill:#000000;fill-opacity:1;fill-rule:nonzero;stroke:none"
             d="m 105.6761,18.94678 c 0,5.61841 -3.3286,7.3758 -5.99116,7.3758 -4.92638,0 -9.66598,-5.11247 -9.66598,-10.19829 0,-3.32842 2.15678,-6.0711 5.83162,-6.0711 2.26312,0 4.84592,0.8255 7.56172,3.03552 0.4799,-1.91718 1.651,-3.03552 3.2754,-3.03552 1.9175,0 3.0088,1.99707 3.0088,2.55624 0,0.26626 -0.2127,0.3728 -0.426,0.3728 -0.2393,0 -0.3463,-0.10654 -0.4526,-0.3728 -0.6653,-1.75739 -1.9435,-1.75739 -2.0239,-1.75739 -1.1179,0 -1.1179,2.7959 -1.1179,3.67457 0,0.7456 0,0.82549 0.3728,1.25153 3.3552,4.23374 4.1268,8.38759 4.1268,8.4409 0,0.07989 -0.0531,0.34615 -0.426,0.34615 -0.3729,0 -0.3729,-0.10655 -0.559,-0.74561 -0.6387,-2.26332 -1.8105,-4.97934 -3.5146,-7.10954 l 0,2.23674 z m -2.3968,-4.9261 c -3.1683,-2.76926 -5.93792,-3.16864 -7.37555,-3.16864 -2.15678,0 -3.22222,1.62426 -3.22222,3.91424 0,1.7574 0.93183,5.64499 2.07703,7.48227 1.70416,2.60955 3.62167,3.30184 4.89979,3.30184 3.54125,0 3.54125,-4.71308 3.54125,-7.50892 0,-1.33143 0,-3.40832 0.0797,-4.02079"
             inkscape:connector-curvature="0" />
          <path
             id="path5545"
             style="fill:#000000;fill-opacity:1;fill-rule:nonzero;stroke:none"
             d="m 119.8417,20.99709 c 0,0.6923 -0.0532,0.6923 -0.7457,0.6923 -1.5972,-1.57103 -3.8876,-1.59762 -4.9257,-1.59762 l 0,-0.90531 c 0.6121,0 2.2631,0 3.6476,0.71888 l 0,-12.781156 c 0,-0.825453 0,-1.171608 -2.5031,-1.171608 l -0.9584,0 0,-0.905338 c 0.4526,0.026633 3.5412,0.10651 4.4737,0.10651 0.7717,0 3.9141,-0.079877 4.4731,-0.10651 l 0,0.905338 -0.9584,0 c -2.5031,0 -2.5031,0.346155 -2.5031,1.171608 l 0,13.872906"
             inkscape:connector-curvature="0" />
          <path
             id="path5547"
             style="fill:#000000;fill-opacity:1;fill-rule:nonzero;stroke:none"
             d="m 134.8328,10.50589 c 0,2.3698 -0.8786,3.75446 -2.2897,3.75446 -1.1983,0 -1.8909,-0.87873 -1.8909,-1.89052 0,-0.98528 0.6926,-1.91718 1.8909,-1.91718 0.4261,0 0.9053,0.15971 1.2516,0.47928 0.1063,0.07989 0.1595,0.10647 0.1861,0.10647 0.0266,0 0.0797,-0.02658 0.0797,-0.53251 0,-2.662783 -1.2781,-4.819592 -2.4492,-6.017826 -0.3994,-0.372782 -0.3994,-0.452666 -0.3994,-0.559175 0,-0.266278 0.186,-0.399414 0.3728,-0.399414 0.3722,0 3.2481,2.769256 3.2481,6.976415"
             inkscape:connector-curvature="0" />
          <path
             id="path5549"
             style="fill:#000000;fill-opacity:1;fill-rule:nonzero;stroke:none"
             d="m 160.582,18.94678 c 0,5.61841 -3.3286,7.3758 -5.9912,7.3758 -4.9263,0 -9.6659,-5.11247 -9.6659,-10.19829 0,-3.32842 2.1567,-6.0711 5.805,-6.0711 2.2631,0 4.8725,0.8255 7.5883,3.03552 0.4792,-1.91718 1.651,-3.03552 3.2754,-3.03552 1.8902,0 3.0088,1.99707 3.0088,2.55624 0,0.26626 -0.2126,0.3728 -0.426,0.3728 -0.2665,0 -0.3729,-0.10654 -0.4792,-0.3728 -0.6394,-1.75739 -1.9441,-1.75739 -1.9973,-1.75739 -1.1179,0 -1.1179,2.7959 -1.1179,3.67457 0,0.7456 0,0.82549 0.3729,1.25153 3.3544,4.23374 4.1267,8.38759 4.1267,8.4409 0,0.07989 -0.0531,0.34615 -0.4526,0.34615 -0.3463,0 -0.3463,-0.10655 -0.5324,-0.74561 -0.6394,-2.26332 -1.837,-4.97934 -3.5146,-7.10954 l 0,2.23674 z m -2.3967,-4.9261 c -3.1684,-2.76926 -5.938,-3.16864 -7.3756,-3.16864 -2.1568,0 -3.2223,1.62426 -3.2223,3.91424 0,1.7574 0.9319,5.64499 2.0771,7.48227 1.6775,2.60955 3.6216,3.30184 4.8725,3.30184 3.5685,0 3.5685,-4.71308 3.5685,-7.50892 0,-1.33143 0,-3.40832 0.0798,-4.02079"
             inkscape:connector-curvature="0" />
          <path
             id="path5551"
             style="fill:#000000;fill-opacity:1;fill-rule:nonzero;stroke:none"
             d="m 179.1144,9.627155 -0.8521,0 C 178.1825,9.067987 177.9426,7.603502 177.597,7.337204 177.4102,7.177435 175.4668,7.177435 175.1205,7.177435 l -4.6067,0 c 2.636,2.343244 3.5147,3.035545 5.0061,4.233765 1.8637,1.46449 3.5945,3.03552 3.5945,5.40539 0,3.03551 -2.6626,4.8728 -5.8848,4.8728 -3.0887,0 -5.1923,-2.15679 -5.1923,-4.47342 0,-1.27812 1.0655,-1.41124 1.3313,-1.41124 0.5862,0 1.3047,0.42604 1.3047,1.33135 0,0.45269 -0.1595,1.33143 -1.4642,1.33143 0.7723,1.78404 2.4765,2.34321 3.6476,2.34321 2.5031,0 3.8078,-1.97048 3.8078,-3.99413 0,-2.18344 -1.544,-3.91425 -2.3429,-4.81957 l -6.0443,-5.96456 c -0.24,-0.21302 -0.24,-0.266278 -0.24,-0.985222 l 10.3313,0 0.7458,4.579917"
             inkscape:connector-curvature="0" />
          <path
             id="path5553"
             style="fill:#000000;fill-opacity:1;fill-rule:nonzero;stroke:none"
             d="m 192.9344,19.42606 c 0,2.82249 -0.3995,7.16278 -2.3702,11.21015 -2.1567,4.42018 -5.2453,6.7634 -5.6182,6.7634 -0.2134,0 -0.3463,-0.15979 -0.3463,-0.37281 0,-0.10647 0,-0.15971 0.6926,-0.82542 3.5146,-3.54145 5.5651,-9.26639 5.5651,-16.77532 0,-6.12433 -1.3313,-12.461644 -5.8051,-16.988309 -0.4526,-0.42604 -0.4526,-0.479298 -0.4526,-0.585808 0,-0.21302 0.1329,-0.372781 0.3463,-0.372781 0.3729,0 3.5944,2.449727 5.7246,7.003004 1.8378,3.940894 2.2638,7.935034 2.2638,10.943894"
             inkscape:connector-curvature="0" />
        </g>
      </g>
    </g>
  </g>
</svg>
