<?xml version="1.0" encoding="UTF-8" standalone="no"?>
<!-- Created with Inkscape (http://www.inkscape.org/) -->

<svg
   xmlns:osb="http://www.openswatchbook.org/uri/2009/osb"
   xmlns:dc="http://purl.org/dc/elements/1.1/"
   xmlns:cc="http://creativecommons.org/ns#"
   xmlns:rdf="http://www.w3.org/1999/02/22-rdf-syntax-ns#"
   xmlns:svg="http://www.w3.org/2000/svg"
   xmlns="http://www.w3.org/2000/svg"
   xmlns:sodipodi="http://sodipodi.sourceforge.net/DTD/sodipodi-0.dtd"
   xmlns:inkscape="http://www.inkscape.org/namespaces/inkscape"
   width="990"
   height="765"
   id="svg2"
   version="1.1"
   inkscape:version="0.48.5 r10040"
   sodipodi:docname="slide_simple1.svg">
  <defs
     id="defs4">
    <linearGradient
       id="linearGradient4861"
       osb:paint="solid">
      <stop
         style="stop-color:#ffff00;stop-opacity:1;"
         offset="0"
         id="stop4863" />
    </linearGradient>
    <linearGradient
       id="linearGradient4855"
       osb:paint="solid">
      <stop
         style="stop-color:#ffff00;stop-opacity:1;"
         offset="0"
         id="stop4857" />
    </linearGradient>
    <marker
       inkscape:stockid="Arrow1Mend"
       orient="auto"
       refY="0"
       refX="0"
       id="Arrow1Mend"
       style="overflow:visible">
      <path
         id="path4050"
         d="M 0,0 5,-5 -12.5,0 5,5 0,0 z"
         style="fill-rule:evenodd;stroke:#000000;stroke-width:1pt"
         transform="matrix(-0.4,0,0,-0.4,-4,0)"
         inkscape:connector-curvature="0" />
    </marker>
    <marker
       inkscape:stockid="Arrow1Lend"
       orient="auto"
       refY="0"
       refX="0"
       id="Arrow1Lend"
       style="overflow:visible">
      <path
         id="path4044"
         d="M 0,0 5,-5 -12.5,0 5,5 0,0 z"
         style="fill-rule:evenodd;stroke:#000000;stroke-width:1pt"
         transform="matrix(-0.8,0,0,-0.8,-10,0)"
         inkscape:connector-curvature="0" />
    </marker>
    <marker
       inkscape:stockid="Arrow2Lend"
       orient="auto"
       refY="0"
       refX="0"
       id="Arrow2Lend"
       style="overflow:visible">
      <path
         id="path4062"
         style="fill-rule:evenodd;stroke-width:0.625;stroke-linejoin:round"
         d="M 8.7185878,4.0337352 -2.2072895,0.01601326 8.7185884,-4.0017078 c -1.7454984,2.3720609 -1.7354408,5.6174519 -6e-7,8.035443 z"
         transform="matrix(-1.1,0,0,-1.1,-1.1,0)"
         inkscape:connector-curvature="0" />
    </marker>
    <clipPath
       id="clipPath3814"
       clipPathUnits="userSpaceOnUse">
      <path
         id="path3816"
         d="m 0.365062,1.147219 39.88792,0 0,23 -39.88792,0 0,-23 z"
         inkscape:connector-curvature="0" />
    </clipPath>
    <clipPath
       id="clipPath4921"
       clipPathUnits="userSpaceOnUse">
      <path
         id="path4923"
         d="m 0.768375,0.972 32.75179,0 0,30 -32.75179,0 0,-30 z"
         inkscape:connector-curvature="0" />
    </clipPath>
    <clipPath
       id="clipPath4972"
       clipPathUnits="userSpaceOnUse">
      <path
         id="path4974"
         d="m 0.768375,0.972 32.9914,0 0,30 -32.9914,0 0,-30 z"
         inkscape:connector-curvature="0" />
    </clipPath>
  </defs>
  <sodipodi:namedview
     id="base"
     pagecolor="#ffffff"
     bordercolor="#666666"
     borderopacity="1.0"
     inkscape:pageopacity="0.0"
     inkscape:pageshadow="2"
     inkscape:zoom="0.7"
     inkscape:cx="392.4949"
     inkscape:cy="297.21066"
     inkscape:document-units="px"
     inkscape:current-layer="layer1"
     showgrid="false"
     showguides="true"
     inkscape:guide-bbox="true"
     inkscape:window-width="1324"
     inkscape:window-height="866"
     inkscape:window-x="262"
     inkscape:window-y="48"
     inkscape:window-maximized="0"
     fit-margin-top="0"
     fit-margin-left="0"
     fit-margin-right="0"
     fit-margin-bottom="0">
    <sodipodi:guide
       orientation="0,1"
       position="93.20918,182.77631"
       id="guide3773" />
  </sodipodi:namedview>
  <metadata
     id="metadata7">
    <rdf:RDF>
      <cc:Work
         rdf:about="">
        <dc:format>image/svg+xml</dc:format>
        <dc:type
           rdf:resource="http://purl.org/dc/dcmitype/StillImage" />
        <dc:title></dc:title>
      </cc:Work>
    </rdf:RDF>
  </metadata>
  <g
     inkscape:label="Layer 1"
     inkscape:groupmode="layer"
     id="layer1"
     transform="translate(-69.64796,345.57579)">
    <path
       sodipodi:type="arc"
       style="fill:none;stroke:#000000;stroke-width:2.20000005;stroke-linecap:butt;stroke-linejoin:miter;stroke-miterlimit:4;stroke-opacity:1;stroke-dasharray:none"
       id="path2985"
       sodipodi:cx="155.71428"
       sodipodi:cy="230.93361"
       sodipodi:rx="22.857143"
       sodipodi:ry="22.857143"
       d="m 178.57142,230.93361 a 22.857143,22.857143 0 1 1 -45.71428,0 22.857143,22.857143 0 1 1 45.71428,0 z"
       transform="matrix(1,0,0,-1,328.57143,332.43865)" />
    <path
       sodipodi:type="arc"
       style="fill:none;stroke:#000000;stroke-width:2.20000005;stroke-linecap:butt;stroke-linejoin:miter;stroke-miterlimit:4;stroke-opacity:1;stroke-dasharray:none"
       id="path2985-2"
       sodipodi:cx="155.71428"
       sodipodi:cy="230.93361"
       sodipodi:rx="22.857143"
       sodipodi:ry="22.857143"
       d="m 178.57142,230.93361 a 22.857143,22.857143 0 1 1 -45.71428,0 22.857143,22.857143 0 1 1 45.71428,0 z"
       transform="matrix(1,0,0,-1,447.14286,332.43864)" />
    <g
       id="g3808"
       transform="matrix(1.25,0,0,-1.25,93.683088,548.23979)" />
    <g
       id="g3810"
       transform="matrix(1.25,0,0,-1.25,587.11166,-72.617357)">
      <g
         id="g3812"
         clip-path="url(#clipPath3814)">
        <path
           inkscape:connector-curvature="0"
           d="M 3.480473,3.875063 C 3.187576,2.650204 3.134318,2.383926 1.53667,2.383926 c -0.426039,0 -0.8254507,0 -0.8254507,-0.665685 0,-0.292904 0.1863919,-0.42604 0.4792957,-0.42604 0.958589,0 1.997061,0.10651 3.008901,0.10651 1.198234,0 2.396475,-0.10651 3.568097,-0.10651 0.159782,0 0.639059,0 0.639059,0.718944 0,0.372781 -0.372801,0.372781 -0.878732,0.372781 -1.784027,0 -1.784027,0.266278 -1.784027,0.585807 0,0.42604 1.51777,6.284095 1.757443,7.189407 0.479277,-1.038441 1.464484,-2.316559 3.301774,-2.316559 4.1805,0 8.65391,5.245599 8.65391,10.544439 0,3.35508 -2.0503,5.72495 -4.76632,5.72495 -1.81063,0 -3.51479,-1.27812 -4.713019,-2.68944 -0.346149,1.94383 -1.890592,2.68944 -3.221948,2.68944 -1.6509,0 -2.343217,-1.38466 -2.662746,-2.05038 -0.63906,-1.19822 -1.11835,-3.35501 -1.11835,-3.46155 0,-0.3728 0.372781,-0.3728 0.426039,-0.3728 0.372781,0 0.399407,0.05331 0.612426,0.82549 0.612434,2.55624 1.331377,4.28698 2.636121,4.28698 0.61244,0 1.11837,-0.29284 1.11837,-1.65085 0,-0.82549 -0.106544,-1.22488 -0.266257,-1.83729 L 3.480473,3.875063 z M 9.791166,19.45212 c 0.266324,0.95862 1.224884,1.97041 1.890594,2.503 1.25146,1.11833 2.28991,1.38459 2.90238,1.38459 1.4379,0 2.28998,-1.27812 2.28998,-3.38166 0,-2.1302 -1.17164,-6.25746 -1.83735,-7.61547 -1.22481,-2.502931 -2.92897,-3.701227 -4.2604,-3.701227 -2.369798,0 -2.849075,2.982277 -2.849075,3.195297 0,0.07989 0,0.1332 0.106476,0.58582 l 1.757395,7.02965"
           style="fill:#000000;fill-opacity:1;fill-rule:nonzero;stroke:none"
           id="path3818" />
        <path
           inkscape:connector-curvature="0"
           d="M 25.12858,5.845499 C 24.24992,4.514123 23.45108,3.848438 21.95994,3.741928 21.72027,3.715302 21.40077,3.715302 21.40077,3.236004 c 0,-0.292903 0.21302,-0.399413 0.34615,-0.399413 0.63906,0 1.46449,0.10651 2.15685,0.10651 0.79877,0 1.83729,-0.10651 2.58282,-0.10651 0.13313,0 0.50593,0 0.50593,0.559182 0,0.319529 -0.34615,0.346155 -0.42604,0.346155 -0.21302,0.026626 -1.11833,0.079884 -1.11833,0.772195 0,0.292903 0.26625,0.718943 0.3728,0.931962 l 2.02365,3.115446 7.16278,0 0.58582,-4.153918 C 35.51331,4.141341 35.35353,3.741928 33.88904,3.741928 c -0.31956,0 -0.66571,0 -0.66571,-0.532549 0,-0.10651 0.07989,-0.372788 0.39946,-0.372788 0.71895,0 2.50293,0.10651 3.22188,0.10651 0.45269,0 1.03851,-0.026626 1.49113,-0.026626 0.4527,-0.026626 0.98521,-0.079884 1.4379,-0.079884 0.31957,0 0.50593,0.213019 0.50593,0.532549 0,0.372788 -0.31956,0.372788 -0.71895,0.372788 -1.4379,0 -1.49113,0.21302 -1.57102,0.79882 L 35.77957,20.01129 c -0.07989,0.53258 -0.13313,0.71895 -0.61241,0.71895 -0.45269,0 -0.6124,-0.23961 -0.85208,-0.58582 L 25.12858,5.845499 z m 3.30184,3.621348 5.27226,8.201223 1.17157,-8.201223 -6.44383,0"
           style="fill:#000000;fill-opacity:1;fill-rule:nonzero;stroke:none"
           id="path3820" />
      </g>
    </g>
    <path
       sodipodi:type="arc"
       style="fill:#000000;fill-opacity:1;fill-rule:evenodd;stroke:#000000;stroke-width:2.20000005;stroke-linecap:butt;stroke-linejoin:miter;stroke-miterlimit:4;stroke-opacity:1;stroke-dasharray:none"
       id="path2985-2-2"
       sodipodi:cx="155.71428"
       sodipodi:cy="230.93361"
       sodipodi:rx="22.857143"
       sodipodi:ry="22.857143"
       d="m 178.57142,230.93361 a 22.857143,22.857143 0 1 1 -45.71428,0 22.857143,22.857143 0 1 1 45.71428,0 z"
       transform="matrix(1,0,0,-1,397.14286,161.86722)" />
    <path
       style="fill:none;stroke:#000000;stroke-width:2.4000001;stroke-linecap:butt;stroke-linejoin:miter;stroke-miterlimit:4;stroke-opacity:1;stroke-dasharray:none;marker-mid:none;marker-end:url(#Arrow1Mend)"
       d="M 551.42857,-69.066387 494.28572,76.647893"
       id="path3853"
       inkscape:connector-curvature="0" />
    <path
       style="fill:none;stroke:#000000;stroke-width:2.4000001;stroke-linecap:butt;stroke-linejoin:miter;stroke-miterlimit:4;stroke-opacity:1;stroke-dasharray:none;marker-mid:none;marker-end:url(#Arrow1Mend)"
       d="m 560,-59.066387 35.71429,137.14286"
       id="path3855"
       inkscape:connector-curvature="0" />
    <g
       transform="matrix(1.25,0,0,-1.25,436.32696,173.51115)"
       inkscape:label="y_1"
       id="g4913">
      <g
         id="g4915" />
      <g
         id="g4917">
        <g
           clip-path="url(#clipPath4921)"
           id="g4919">
          <path
             id="path4925"
             style="fill:#000000;fill-opacity:1;fill-rule:nonzero;stroke:none"
             d="m 21.69754,26.706 0.50593,0.50587 c 1.09175,1.0651 2.26333,2.28998 4.71309,2.47641 0.39939,0.02659 0.71895,0.02659 0.71895,0.6923 0,0.26626 -0.18644,0.42604 -0.47935,0.42604 -0.9319,0 -1.97041,-0.10655 -2.92897,-0.10655 -1.19822,0 -2.44976,0.10655 -3.59475,0.10655 -0.21302,0 -0.69229,0 -0.69229,-0.6923 0,-0.39945 0.3728,-0.42604 0.55917,-0.42604 0.23967,0 1.27811,-0.07989 1.27811,-0.82549 0,-0.61241 -0.82542,-1.54438 -0.95855,-1.73075 L 12.48446,17.54616 8.516975,28.22373 c -0.21302,0.50593 -0.21302,0.55917 -0.21302,0.61247 0,0.85208 1.757395,0.85208 2.130195,0.85208 0.50593,0 0.85208,0 0.85208,0.71888 0,0.39946 -0.42604,0.39946 -0.53258,0.39946 -1.011795,0 -3.5148,-0.10655 -4.526647,-0.10655 -0.90533,0 -3.115411,0.10655 -4.020742,0.10655 -0.213019,0 -0.692317,0 -0.692317,-0.71895 0,-0.39939 0.372788,-0.39939 0.825453,-0.39939 2.156823,0 2.316591,-0.31956 2.63612,-1.22488 L 9.395706,16.64077 c 0.026585,-0.10647 0.133129,-0.47927 0.133129,-0.6124 0,-0.10655 -1.4379,-5.88466 -1.597682,-6.523722 C 7.451869,7.534233 7.425244,7.427689 4.549478,7.374451 c -0.692318,0 -0.985221,0 -0.985221,-0.718957 0,-0.372787 0.426039,-0.372787 0.505923,-0.372787 1.011847,0 3.514825,0.106509 4.526686,0.106509 1.01186,0 3.594684,-0.106509 4.606544,-0.106509 0.23967,0 0.66571,0 0.66571,0.718943 0,0.372801 -0.31956,0.372801 -0.98528,0.372801 -0.07982,0 -0.77218,0 -1.38459,0.079891 -0.7456,0.079891 -0.95862,0.133129 -0.95862,0.585753 0,0.239673 0.31956,1.491138 0.50593,2.263395 l 1.25153,5.05917 c 0.18637,0.66571 0.21302,0.79884 0.50593,1.1184 L 21.69754,26.706"
             inkscape:connector-curvature="0" />
          <path
             id="path4927"
             style="fill:#000000;fill-opacity:1;fill-rule:nonzero;stroke:none"
             d="m 29.47279,16.9071 c 0,0.6923 -0.05323,0.71888 -0.77218,0.71888 -1.59768,-1.59761 -3.86101,-1.62427 -4.89946,-1.62427 l 0,-0.90531 c 0.61241,0 2.26333,0 3.62134,0.71895 l 0,-12.78119 c 0,-0.825453 0,-1.171609 -2.503,-1.171609 l -0.93197,0 0,-0.8787041 c 0.42604,0 3.51486,0.0798771 4.44676,0.0798771 0.77226,0 3.9409,-0.0798771 4.50007,-0.0798771 l 0,0.8787041 -0.95856,0 c -2.503,0 -2.503,0.346156 -2.503,1.171609 l 0,13.87294"
             inkscape:connector-curvature="0" />
        </g>
      </g>
    </g>
    <g
       transform="matrix(1.25,0,0,-1.25,597.82768,169.51115)"
       inkscape:label="y_2"
       id="g4964">
      <g
         id="g4966" />
      <g
         id="g4968">
        <g
           clip-path="url(#clipPath4972)"
           id="g4970">
          <path
             id="path4976"
             style="fill:#000000;fill-opacity:1;fill-rule:nonzero;stroke:none"
             d="m 21.69754,26.706 0.50593,0.50587 c 1.09175,1.0651 2.26333,2.28998 4.71309,2.47641 0.39939,0.02659 0.71895,0.02659 0.71895,0.6923 0,0.26626 -0.18644,0.42604 -0.47935,0.42604 -0.9319,0 -1.97041,-0.10655 -2.92897,-0.10655 -1.19822,0 -2.44976,0.10655 -3.59475,0.10655 -0.21302,0 -0.69229,0 -0.69229,-0.6923 0,-0.39945 0.3728,-0.42604 0.55917,-0.42604 0.23967,0 1.27811,-0.07989 1.27811,-0.82549 0,-0.61241 -0.82542,-1.54438 -0.95855,-1.73075 L 12.48446,17.54616 8.516975,28.22373 c -0.21302,0.50593 -0.21302,0.55917 -0.21302,0.61247 0,0.85208 1.757395,0.85208 2.130195,0.85208 0.50593,0 0.85208,0 0.85208,0.71888 0,0.39946 -0.42604,0.39946 -0.53258,0.39946 -1.011795,0 -3.5148,-0.10655 -4.526647,-0.10655 -0.90533,0 -3.115411,0.10655 -4.020742,0.10655 -0.213019,0 -0.692317,0 -0.692317,-0.71895 0,-0.39939 0.372788,-0.39939 0.825453,-0.39939 2.156823,0 2.316591,-0.31956 2.63612,-1.22488 L 9.395706,16.64077 c 0.026585,-0.10647 0.133129,-0.47927 0.133129,-0.6124 0,-0.10655 -1.4379,-5.88466 -1.597682,-6.523722 C 7.451869,7.534233 7.425244,7.427689 4.549478,7.374451 c -0.692318,0 -0.985221,0 -0.985221,-0.718957 0,-0.372787 0.426039,-0.372787 0.505923,-0.372787 1.011847,0 3.514825,0.106509 4.526686,0.106509 1.01186,0 3.594684,-0.106509 4.606544,-0.106509 0.23967,0 0.66571,0 0.66571,0.718943 0,0.372801 -0.31956,0.372801 -0.98528,0.372801 -0.07982,0 -0.77218,0 -1.38459,0.079891 -0.7456,0.079891 -0.95862,0.133129 -0.95862,0.585753 0,0.239673 0.31956,1.491138 0.50593,2.263395 l 1.25153,5.05917 c 0.18637,0.66571 0.21302,0.79884 0.50593,1.1184 L 21.69754,26.706"
             inkscape:connector-curvature="0" />
          <path
             id="path4978"
             style="fill:#000000;fill-opacity:1;fill-rule:nonzero;stroke:none"
             d="m 33.73319,5.537138 -0.85208,0 C 32.80122,4.977963 32.53496,3.513451 32.2154,3.247179 32.02903,3.114044 30.0852,3.114044 29.73905,3.114044 l -4.60654,0 c 2.63613,2.316584 3.51479,3.008901 5.00593,4.207169 1.86394,1.464485 3.59475,3.035517 3.59475,5.405317 0,3.03558 -2.66278,4.89945 -5.88466,4.89945 -3.08882,0 -5.19237,-2.18343 -5.19237,-4.5 0,-1.27812 1.0651,-1.41124 1.33136,-1.41124 0.58582,0 1.30477,0.42604 1.30477,1.33135 0,0.45269 -0.15978,1.33136 -1.46455,1.33136 0.77219,1.78405 2.47634,2.34321 3.64799,2.34321 2.503,0 3.8077,-1.97041 3.8077,-3.99413 0,-2.18344 -1.54438,-3.914179 -2.34322,-4.819564 L 22.89577,1.942436 C 22.65616,1.729416 22.65616,1.676158 22.65616,0.9838469 l 10.30484,0 0.77219,4.5532911"
             inkscape:connector-curvature="0" />
        </g>
      </g>
    </g>
  </g>
</svg>
