<?xml version="1.0" encoding="UTF-8" standalone="no"?>
<!-- Created with Inkscape (http://www.inkscape.org/) -->

<svg
   xmlns:osb="http://www.openswatchbook.org/uri/2009/osb"
   xmlns:dc="http://purl.org/dc/elements/1.1/"
   xmlns:cc="http://creativecommons.org/ns#"
   xmlns:rdf="http://www.w3.org/1999/02/22-rdf-syntax-ns#"
   xmlns:svg="http://www.w3.org/2000/svg"
   xmlns="http://www.w3.org/2000/svg"
   xmlns:sodipodi="http://sodipodi.sourceforge.net/DTD/sodipodi-0.dtd"
   xmlns:inkscape="http://www.inkscape.org/namespaces/inkscape"
   width="990"
   height="765"
   id="svg2"
   version="1.1"
   inkscape:version="0.48.5 r10040"
   sodipodi:docname="slide_geno-err-model.svg">
  <defs
     id="defs4">
    <linearGradient
       id="linearGradient4861"
       osb:paint="solid">
      <stop
         style="stop-color:#ffff00;stop-opacity:1;"
         offset="0"
         id="stop4863" />
    </linearGradient>
    <linearGradient
       id="linearGradient4855"
       osb:paint="solid">
      <stop
         style="stop-color:#ffff00;stop-opacity:1;"
         offset="0"
         id="stop4857" />
    </linearGradient>
    <marker
       inkscape:stockid="Arrow1Mend"
       orient="auto"
       refY="0"
       refX="0"
       id="Arrow1Mend"
       style="overflow:visible">
      <path
         id="path4050"
         d="M 0,0 5,-5 -12.5,0 5,5 0,0 z"
         style="fill-rule:evenodd;stroke:#000000;stroke-width:1pt"
         transform="matrix(-0.4,0,0,-0.4,-4,0)"
         inkscape:connector-curvature="0" />
    </marker>
    <marker
       inkscape:stockid="Arrow1Lend"
       orient="auto"
       refY="0"
       refX="0"
       id="Arrow1Lend"
       style="overflow:visible">
      <path
         id="path4044"
         d="M 0,0 5,-5 -12.5,0 5,5 0,0 z"
         style="fill-rule:evenodd;stroke:#000000;stroke-width:1pt"
         transform="matrix(-0.8,0,0,-0.8,-10,0)"
         inkscape:connector-curvature="0" />
    </marker>
    <marker
       inkscape:stockid="Arrow2Lend"
       orient="auto"
       refY="0"
       refX="0"
       id="Arrow2Lend"
       style="overflow:visible">
      <path
         id="path4062"
         style="fill-rule:evenodd;stroke-width:0.625;stroke-linejoin:round"
         d="M 8.7185878,4.0337352 -2.2072895,0.01601326 8.7185884,-4.0017078 c -1.7454984,2.3720609 -1.7354408,5.6174519 -6e-7,8.035443 z"
         transform="matrix(-1.1,0,0,-1.1,-1.1,0)"
         inkscape:connector-curvature="0" />
    </marker>
    <clipPath
       id="clipPath3814"
       clipPathUnits="userSpaceOnUse">
      <path
         id="path3816"
         d="m 0.365062,1.147219 39.88792,0 0,23 -39.88792,0 0,-23 z"
         inkscape:connector-curvature="0" />
    </clipPath>
    <clipPath
       id="clipPath4921"
       clipPathUnits="userSpaceOnUse">
      <path
         id="path4923"
         d="m 0.768375,0.972 32.75179,0 0,30 -32.75179,0 0,-30 z"
         inkscape:connector-curvature="0" />
    </clipPath>
    <clipPath
       id="clipPath4972"
       clipPathUnits="userSpaceOnUse">
      <path
         id="path4974"
         d="m 0.768375,0.972 32.9914,0 0,30 -32.9914,0 0,-30 z"
         inkscape:connector-curvature="0" />
    </clipPath>
    <clipPath
       id="clipPath5103"
       clipPathUnits="userSpaceOnUse">
      <path
         id="path5105"
         d="m 0.768375,0.5103926 50.9916,0 0,34.9884704 -50.9916,0 0,-34.9884704 z"
         inkscape:connector-curvature="0" />
    </clipPath>
    <clipPath
       id="clipPath5160"
       clipPathUnits="userSpaceOnUse">
      <path
         id="path5162"
         d="m 0.768375,0.5103926 52,0 0,34.9884704 -52,0 0,-34.9884704 z"
         inkscape:connector-curvature="0" />
    </clipPath>
    <clipPath
       id="clipPath5217"
       clipPathUnits="userSpaceOnUse">
      <path
         id="path5219"
         d="m 0.553219,1.104393 189.000001,0 0,32.81361 -189.000001,0 0,-32.81361 z"
         inkscape:connector-curvature="0" />
    </clipPath>
    <clipPath
       id="clipPath5533"
       clipPathUnits="userSpaceOnUse">
      <path
         id="path5535"
         d="m 0.550687,0.9466115 192.995803,0 0,36.8136095 -192.995803,0 0,-36.8136095 z"
         inkscape:connector-curvature="0" />
    </clipPath>
    <clipPath
       id="clipPath5870"
       clipPathUnits="userSpaceOnUse">
      <path
         id="path5872"
         d="m 0.442969,0.9063926 270.348901,0 0,37.8136104 -270.348901,0 0,-37.8136104 z"
         inkscape:connector-curvature="0" />
    </clipPath>
    <clipPath
       id="clipPath5870-6"
       clipPathUnits="userSpaceOnUse">
      <path
         inkscape:connector-curvature="0"
         id="path5872-0"
         d="m 0.442969,0.9063926 270.348901,0 0,37.8136104 -270.348901,0 0,-37.8136104 z" />
    </clipPath>
    <clipPath
       id="clipPath5533-0"
       clipPathUnits="userSpaceOnUse">
      <path
         id="path5535-5"
         d="m 0.550687,0.9466115 192.995803,0 0,36.8136095 -192.995803,0 0,-36.8136095 z"
         inkscape:connector-curvature="0" />
    </clipPath>
    <clipPath
       id="clipPath5160-7"
       clipPathUnits="userSpaceOnUse">
      <path
         id="path5162-3"
         d="m 0.768375,0.5103926 52,0 0,34.9884704 -52,0 0,-34.9884704 z"
         inkscape:connector-curvature="0" />
    </clipPath>
    <clipPath
       id="clipPath5103-3"
       clipPathUnits="userSpaceOnUse">
      <path
         id="path5105-6"
         d="m 0.768375,0.5103926 50.9916,0 0,34.9884704 -50.9916,0 0,-34.9884704 z"
         inkscape:connector-curvature="0" />
    </clipPath>
    <marker
       inkscape:stockid="Arrow1Mend"
       orient="auto"
       refY="0"
       refX="0"
       id="Arrow1Mend-5"
       style="overflow:visible">
      <path
         id="path4050-3"
         d="M 0,0 5,-5 -12.5,0 5,5 0,0 z"
         style="fill-rule:evenodd;stroke:#000000;stroke-width:1pt"
         transform="matrix(-0.4,0,0,-0.4,-4,0)"
         inkscape:connector-curvature="0" />
    </marker>
    <marker
       inkscape:stockid="Arrow1Mend"
       orient="auto"
       refY="0"
       refX="0"
       id="marker5942"
       style="overflow:visible">
      <path
         id="path5944"
         d="M 0,0 5,-5 -12.5,0 5,5 0,0 z"
         style="fill-rule:evenodd;stroke:#000000;stroke-width:1pt"
         transform="matrix(-0.4,0,0,-0.4,-4,0)"
         inkscape:connector-curvature="0" />
    </marker>
    <clipPath
       id="clipPath3814-2"
       clipPathUnits="userSpaceOnUse">
      <path
         id="path3816-3"
         d="m 0.365062,1.147219 39.88792,0 0,23 -39.88792,0 0,-23 z"
         inkscape:connector-curvature="0" />
    </clipPath>
    <marker
       inkscape:stockid="Arrow1Mend"
       orient="auto"
       refY="0"
       refX="0"
       id="marker5948"
       style="overflow:visible">
      <path
         id="path5950"
         d="M 0,0 5,-5 -12.5,0 5,5 0,0 z"
         style="fill-rule:evenodd;stroke:#000000;stroke-width:1pt"
         transform="matrix(-0.4,0,0,-0.4,-4,0)"
         inkscape:connector-curvature="0" />
    </marker>
    <marker
       inkscape:stockid="Arrow1Mend"
       orient="auto"
       refY="0"
       refX="0"
       id="marker5952"
       style="overflow:visible">
      <path
         id="path5954"
         d="M 0,0 5,-5 -12.5,0 5,5 0,0 z"
         style="fill-rule:evenodd;stroke:#000000;stroke-width:1pt"
         transform="matrix(-0.4,0,0,-0.4,-4,0)"
         inkscape:connector-curvature="0" />
    </marker>
    <marker
       inkscape:stockid="Arrow1Mend"
       orient="auto"
       refY="0"
       refX="0"
       id="marker5956"
       style="overflow:visible">
      <path
         id="path5958"
         d="M 0,0 5,-5 -12.5,0 5,5 0,0 z"
         style="fill-rule:evenodd;stroke:#000000;stroke-width:1pt"
         transform="matrix(-0.4,0,0,-0.4,-4,0)"
         inkscape:connector-curvature="0" />
    </marker>
    <clipPath
       id="clipPath6223"
       clipPathUnits="userSpaceOnUse">
      <path
         id="path6225"
         d="m 0.550687,0.9466115 207.000003,0 0,36.8136095 -207.000003,0 0,-36.8136095 z"
         inkscape:connector-curvature="0" />
    </clipPath>
    <clipPath
       id="clipPath6223-7"
       clipPathUnits="userSpaceOnUse">
      <path
         inkscape:connector-curvature="0"
         id="path6225-2"
         d="m 0.550687,0.9466115 207.000003,0 0,36.8136095 -207.000003,0 0,-36.8136095 z" />
    </clipPath>
    <clipPath
       id="clipPath6374"
       clipPathUnits="userSpaceOnUse">
      <path
         id="path6376"
         d="m 0.550687,0.9466115 151.000003,0 0,36.8136095 -151.000003,0 0,-36.8136095 z"
         inkscape:connector-curvature="0" />
    </clipPath>
    <clipPath
       id="clipPath6440"
       clipPathUnits="userSpaceOnUse">
      <path
         id="path6442"
         d="m 0.365062,1.147219 41,0 0,23 -41,0 0,-23 z"
         inkscape:connector-curvature="0" />
    </clipPath>
    <clipPath
       id="clipPath6491"
       clipPathUnits="userSpaceOnUse">
      <path
         id="path6493"
         d="m 0.365062,1.135612 135.999998,0 0,31.81361 -135.999998,0 0,-31.81361 z"
         inkscape:connector-curvature="0" />
    </clipPath>
    <clipPath
       id="clipPath6554"
       clipPathUnits="userSpaceOnUse">
      <path
         id="path6556"
         d="m 0.768375,0.5283926 120.000005,0 0,33.8136104 -120.000005,0 0,-33.8136104 z"
         inkscape:connector-curvature="0" />
    </clipPath>
    <clipPath
       id="clipPath6614"
       clipPathUnits="userSpaceOnUse">
      <path
         id="path6616"
         d="m 0.768375,0.5283926 120.000005,0 0,33.8136104 -120.000005,0 0,-33.8136104 z"
         inkscape:connector-curvature="0" />
    </clipPath>
    <clipPath
       id="clipPath6674"
       clipPathUnits="userSpaceOnUse">
      <path
         id="path6676"
         d="m 0.442969,0.9466115 167.992401,0 0,36.8136095 -167.992401,0 0,-36.8136095 z"
         inkscape:connector-curvature="0" />
    </clipPath>
    <marker
       inkscape:stockid="Arrow1Mend"
       orient="auto"
       refY="0"
       refX="0"
       id="marker5956-8"
       style="overflow:visible">
      <path
         id="path5958-5"
         d="M 0,0 5,-5 -12.5,0 5,5 0,0 z"
         style="fill-rule:evenodd;stroke:#000000;stroke-width:1pt"
         transform="matrix(-0.4,0,0,-0.4,-4,0)"
         inkscape:connector-curvature="0" />
    </marker>
    <clipPath
       id="clipPath6986"
       clipPathUnits="userSpaceOnUse">
      <path
         id="path6988"
         d="m 0.589219,1.132875 21,0 0,24 -21,0 0,-24 z"
         inkscape:connector-curvature="0" />
    </clipPath>
    <clipPath
       id="clipPath7034"
       clipPathUnits="userSpaceOnUse">
      <path
         id="path7036"
         d="m 0.589219,1.573934 131.000001,0 0,32.36094 -131.000001,0 0,-32.36094 z"
         inkscape:connector-curvature="0" />
    </clipPath>
    <clipPath
       id="clipPath7868"
       clipPathUnits="userSpaceOnUse">
      <path
         id="path7870"
         d="m 0.365062,1.147219 32,0 0,23 -32,0 0,-23 z"
         inkscape:connector-curvature="0" />
    </clipPath>
    <clipPath
       id="clipPath8081"
       clipPathUnits="userSpaceOnUse">
      <path
         id="path8083"
         d="m 0.365062,1.135612 145.998598,0 0,31.81361 -145.998598,0 0,-31.81361 z"
         inkscape:connector-curvature="0" />
    </clipPath>
    <clipPath
       id="clipPath8166"
       clipPathUnits="userSpaceOnUse">
      <path
         id="path8168"
         d="m 0.693844,1.158393 36,0 0,31.81361 -36,0 0,-31.81361 z"
         inkscape:connector-curvature="0" />
    </clipPath>
    <clipPath
       id="clipPath8217"
       clipPathUnits="userSpaceOnUse">
      <path
         id="path8219"
         d="m 0.693844,1.158393 102.995196,0 0,31.81361 -102.995196,0 0,-31.81361 z"
         inkscape:connector-curvature="0" />
    </clipPath>
    <clipPath
       id="clipPath8274"
       clipPathUnits="userSpaceOnUse">
      <path
         id="path8276"
         d="m 0.768375,0.5103926 120.000005,0 0,34.9884704 -120.000005,0 0,-34.9884704 z"
         inkscape:connector-curvature="0" />
    </clipPath>
    <clipPath
       id="clipPath8356"
       clipPathUnits="userSpaceOnUse">
      <path
         id="path8358"
         d="m 0.768375,0.5103926 118.000005,0 0,34.9884704 -118.000005,0 0,-34.9884704 z"
         inkscape:connector-curvature="0" />
    </clipPath>
    <clipPath
       id="clipPath8438"
       clipPathUnits="userSpaceOnUse">
      <path
         id="path8440"
         d="m 0.553219,0.5480796 30,0 0,16.8136104 -30,0 0,-16.8136104 z"
         inkscape:connector-curvature="0" />
    </clipPath>
    <clipPath
       id="clipPath8486"
       clipPathUnits="userSpaceOnUse">
      <path
         id="path8488"
         d="m 0.553219,1.155656 140.752501,0 0,25 -140.752501,0 0,-25 z"
         inkscape:connector-curvature="0" />
    </clipPath>
  </defs>
  <sodipodi:namedview
     id="base"
     pagecolor="#ffffff"
     bordercolor="#666666"
     borderopacity="1.0"
     inkscape:pageopacity="0.0"
     inkscape:pageshadow="2"
     inkscape:zoom="0.55575482"
     inkscape:cx="478.2161"
     inkscape:cy="247.44553"
     inkscape:document-units="px"
     inkscape:current-layer="layer1"
     showgrid="false"
     showguides="true"
     inkscape:guide-bbox="true"
     inkscape:window-width="1324"
     inkscape:window-height="866"
     inkscape:window-x="294"
     inkscape:window-y="60"
     inkscape:window-maximized="0"
     fit-margin-top="0"
     fit-margin-left="0"
     fit-margin-right="0"
     fit-margin-bottom="0">
    <sodipodi:guide
       orientation="0,1"
       position="-45.872663,361.58263"
       id="guide3773" />
  </sodipodi:namedview>
  <metadata
     id="metadata7">
    <rdf:RDF>
      <cc:Work
         rdf:about="">
        <dc:format>image/svg+xml</dc:format>
        <dc:type
           rdf:resource="http://purl.org/dc/dcmitype/StillImage" />
        <dc:title></dc:title>
      </cc:Work>
    </rdf:RDF>
  </metadata>
  <g
     inkscape:label="Layer 1"
     inkscape:groupmode="layer"
     id="layer1"
     transform="translate(-208.7298,166.76948)">
    <g
       id="g3808"
       transform="matrix(0.875,0,0,-0.875,259.32439,472.84132)" />
    <g
       id="g4778"
       transform="matrix(0.85,0,0,0.85,112.91676,24.41936)">
      <path
         inkscape:connector-curvature="0"
         id="path5645"
         d="m 333.7298,262.44042 37,111"
         style="fill:none;stroke:#000000;stroke-width:1.61000001;stroke-linecap:butt;stroke-linejoin:miter;stroke-miterlimit:4;stroke-opacity:1;stroke-dasharray:none;marker-end:url(#Arrow1Mend)" />
      <path
         inkscape:connector-curvature="0"
         id="path5647"
         d="m 415.7298,261.44042 -34,111"
         style="fill:none;stroke:#000000;stroke-width:1.61000001;stroke-linecap:butt;stroke-linejoin:miter;stroke-miterlimit:4;stroke-opacity:1;stroke-dasharray:none;marker-end:url(#Arrow1Mend)" />
      <path
         inkscape:connector-curvature="0"
         id="path5310"
         d="m 381.1298,17.44041 0,106"
         style="fill:none;stroke:#000000;stroke-width:1.61000001;stroke-linecap:butt;stroke-linejoin:miter;stroke-miterlimit:4;stroke-opacity:1;stroke-dasharray:none;marker-end:url(#Arrow1Mend)" />
      <path
         transform="matrix(0.7,0,0,-0.7,223.74623,422.78053)"
         d="m 178.57142,230.93361 c 0,12.62365 -10.23349,22.85714 -22.85714,22.85714 -12.62365,0 -22.85714,-10.23349 -22.85714,-22.85714 0,-12.62365 10.23349,-22.85714 22.85714,-22.85714 12.62365,0 22.85714,10.23349 22.85714,22.85714 z"
         sodipodi:ry="22.857143"
         sodipodi:rx="22.857143"
         sodipodi:cy="230.93361"
         sodipodi:cx="155.71428"
         id="path2985"
         style="fill:#ffffff;fill-opacity:1;stroke:#000000;stroke-width:2.20000005;stroke-linecap:butt;stroke-linejoin:miter;stroke-miterlimit:4;stroke-opacity:1;stroke-dasharray:none"
         sodipodi:type="arc" />
      <path
         transform="matrix(0.7,0,0,-0.7,306.74623,422.78052)"
         d="m 178.57142,230.93361 c 0,12.62365 -10.23349,22.85714 -22.85714,22.85714 -12.62365,0 -22.85714,-10.23349 -22.85714,-22.85714 0,-12.62365 10.23349,-22.85714 22.85714,-22.85714 12.62365,0 22.85714,10.23349 22.85714,22.85714 z"
         sodipodi:ry="22.857143"
         sodipodi:rx="22.857143"
         sodipodi:cy="230.93361"
         sodipodi:cx="155.71428"
         id="path2985-2"
         style="fill:#ffffff;fill-opacity:1;stroke:#000000;stroke-width:2.20000005;stroke-linecap:butt;stroke-linejoin:miter;stroke-miterlimit:4;stroke-opacity:1;stroke-dasharray:none"
         sodipodi:type="arc" />
      <path
         inkscape:connector-curvature="0"
         id="path3853"
         d="m 379.74623,141.727 -40,101.99999"
         style="fill:none;stroke:#000000;stroke-width:1.68000007;stroke-linecap:butt;stroke-linejoin:miter;stroke-miterlimit:4;stroke-opacity:1;stroke-dasharray:none;marker-mid:none;marker-end:url(#Arrow1Mend)" />
      <path
         inkscape:connector-curvature="0"
         id="path3855"
         d="m 385.74623,148.727 25,96"
         style="fill:none;stroke:#000000;stroke-width:1.68000007;stroke-linecap:butt;stroke-linejoin:miter;stroke-miterlimit:4;stroke-opacity:1;stroke-dasharray:none;marker-mid:none;marker-end:url(#Arrow1Mend)" />
      <path
         transform="matrix(0.7,0,0,-0.7,271.74623,303.38053)"
         d="m 178.57142,230.93361 c 0,12.62365 -10.23349,22.85714 -22.85714,22.85714 -12.62365,0 -22.85714,-10.23349 -22.85714,-22.85714 0,-12.62365 10.23349,-22.85714 22.85714,-22.85714 12.62365,0 22.85714,10.23349 22.85714,22.85714 z"
         sodipodi:ry="22.857143"
         sodipodi:rx="22.857143"
         sodipodi:cy="230.93361"
         sodipodi:cx="155.71428"
         id="path2985-2-2"
         style="fill:#ffffff;fill-opacity:1;fill-rule:evenodd;stroke:#000000;stroke-width:2.20000005;stroke-linecap:butt;stroke-linejoin:miter;stroke-miterlimit:4;stroke-opacity:1;stroke-dasharray:none"
         sodipodi:type="arc" />
      <rect
         y="182.65758"
         x="267.64029"
         height="342.66245"
         width="252.60902"
         id="rect5064"
         style="fill:none;stroke:#000000;stroke-width:1.8209722;stroke-miterlimit:4;stroke-opacity:1;stroke-dasharray:none" />
      <g
         id="g5095"
         inkscape:label="yi1"
         transform="matrix(0.875,0,0,-0.875,278.39714,306.40032)">
        <g
           id="g5097" />
        <g
           id="g5099">
          <g
             id="g5101"
             clip-path="url(#clipPath5103)">
            <path
               inkscape:connector-curvature="0"
               d="m 21.69754,31.26509 0.50593,0.50593 c 1.09175,1.0651 2.26333,2.28998 4.71309,2.47635 0.39939,0.02665 0.71895,0.02665 0.71895,0.66571 0,0.29291 -0.18644,0.45269 -0.47935,0.45269 -0.9319,0 -1.97041,-0.13319 -2.92897,-0.13319 -1.19822,0 -2.44976,0.13319 -3.59475,0.13319 -0.21302,0 -0.69229,0 -0.69229,-0.69236 0,-0.39939 0.3728,-0.42604 0.55917,-0.42604 0.23967,0 1.27811,-0.07989 1.27811,-0.82543 0,-0.6124 -0.82542,-1.54437 -0.95855,-1.73081 L 12.48446,22.10525 8.516975,32.75623 c -0.21302,0.50593 -0.21302,0.58582 -0.21302,0.61247 0,0.87867 1.757395,0.87867 2.130195,0.87867 0.50593,0 0.85208,0 0.85208,0.71895 0,0.39945 -0.42604,0.39945 -0.53258,0.39945 -1.011795,0 -3.5148,-0.13319 -4.526647,-0.13319 -0.90533,0 -3.115411,0.13319 -4.020742,0.13319 -0.213019,0 -0.692317,0 -0.692317,-0.71895 0,-0.39945 0.372788,-0.39945 0.825453,-0.39945 2.156823,0 2.316591,-0.3195 2.63612,-1.22481 L 9.395706,21.19993 c 0.026585,-0.10648 0.133129,-0.50593 0.133129,-0.61241 0,-0.10654 -1.4379,-5.88466 -1.597682,-6.52372 -0.479284,-1.97048 -0.505909,-2.07696 -3.381675,-2.13019 -0.692318,0 -0.985221,0 -0.985221,-0.71895 0,-0.39946 0.426039,-0.39946 0.505923,-0.39946 1.011847,0 3.514825,0.10655 4.526686,0.10655 1.01186,0 3.594684,-0.10655 4.606544,-0.10655 0.23967,0 0.66571,0 0.66571,0.71895 0,0.39946 -0.31956,0.39946 -0.98528,0.39946 -0.07982,0 -0.77218,0 -1.38459,0.07982 -0.7456,0.07989 -0.95862,0.1332 -0.95862,0.55924 0,0.26625 0.31956,1.51772 0.50593,2.26332 l 1.25153,5.08582 c 0.18637,0.66571 0.21302,0.77219 0.50593,1.09175 l 8.89352,10.25153"
               style="fill:#000000;fill-opacity:1;fill-rule:nonzero;stroke:none"
               id="path5107" />
            <path
               inkscape:connector-curvature="0"
               d="m 29.17988,21.19993 c 0,0.39939 -0.29291,0.93197 -0.9852,0.93197 -0.6923,0 -1.41125,-0.63906 -1.41125,-1.35801 0,-0.42604 0.3195,-0.95855 1.01179,-0.95855 0.71895,0 1.38466,0.69229 1.38466,1.38459 z M 24.06741,8.445401 C 23.98752,8.125838 23.85439,7.832927 23.85439,7.406888 c 0,-1.171588 0.98521,-2.130177 2.36987,-2.130177 2.50293,0 3.62134,3.461601 3.62134,3.834334 0,0.319564 -0.31957,0.319564 -0.39946,0.319564 -0.34615,0 -0.3728,-0.159782 -0.47928,-0.42604 -0.58582,-1.997075 -1.6775,-3.035547 -2.66278,-3.035547 -0.50586,0 -0.6124,0.319529 -0.6124,0.878704 0,0.585815 0.15978,1.065092 0.39938,1.597675 0.23968,0.692297 0.50594,1.358009 0.79885,2.023649 0.21302,0.58583 1.11833,2.8758 1.22488,3.16871 0.07989,0.26626 0.15978,0.55917 0.15978,0.79878 0,1.19822 -1.01186,2.13019 -2.39652,2.13019 -2.47635,0 -3.62134,-3.40831 -3.62134,-3.83435 0,-0.3195 0.34622,-0.3195 0.42604,-0.3195 0.34622,0 0.3728,0.13313 0.45269,0.39939 0.63906,2.15685 1.73081,3.06217 2.66278,3.06217 0.39939,0 0.63906,-0.21302 0.63906,-0.87873 0,-0.58576 -0.15978,-0.95856 -0.77225,-2.50293 L 24.06741,8.445401"
               style="fill:#000000;fill-opacity:1;fill-rule:nonzero;stroke:none"
               id="path5109" />
            <path
               inkscape:connector-curvature="0"
               d="m 36.55568,5.91577 c 0,-1.358002 -0.23967,-2.982275 -1.94383,-4.579923 -0.10647,-0.10651 -0.18636,-0.159768 -0.18636,-0.292904 0,-0.1863938 0.21302,-0.3461585 0.34614,-0.3461585 0.34615,0 2.47635,1.9970575 2.47635,4.9793335 0,1.544403 -0.58575,2.74263 -1.73074,2.74263 -0.85208,0 -1.4379,-0.665712 -1.4379,-1.437879 0,-0.798828 0.55917,-1.464512 1.4379,-1.464512 0.6124,0 1.01179,0.399413 1.03844,0.399413"
               style="fill:#000000;fill-opacity:1;fill-rule:nonzero;stroke:none"
               id="path5111" />
            <path
               inkscape:connector-curvature="0"
               d="m 48.16529,21.46619 c 0,0.66571 -0.05331,0.69236 -0.7456,0.69236 -1.59762,-1.57103 -3.8876,-1.59768 -4.92611,-1.59768 l 0,-0.90532 c 0.61247,0 2.26339,0 3.64799,0.71895 l 0,-12.807831 c 0,-0.825453 0,-1.144982 -2.503,-1.144982 l -0.95855,0 0,-0.90533 c 0.45262,0.026625 3.54144,0.106509 4.44676,0.106509 0.79884,0 3.94089,-0.079884 4.50006,-0.106509 l 0,0.90533 -0.95862,0 c -2.50293,0 -2.50293,0.319529 -2.50293,1.144982 l 0,13.899521"
               style="fill:#000000;fill-opacity:1;fill-rule:nonzero;stroke:none"
               id="path5113" />
          </g>
        </g>
      </g>
      <g
         id="g5152"
         inkscape:label="yi2"
         transform="matrix(0.875,0,0,-0.875,416.39146,250.29031)">
        <g
           id="g5154" />
        <g
           id="g5156">
          <g
             id="g5158"
             clip-path="url(#clipPath5160)">
            <path
               inkscape:connector-curvature="0"
               d="m 21.69754,31.26509 0.50593,0.50593 c 1.09175,1.0651 2.26333,2.28998 4.71309,2.47635 0.39939,0.02665 0.71895,0.02665 0.71895,0.66571 0,0.29291 -0.18644,0.45269 -0.47935,0.45269 -0.9319,0 -1.97041,-0.13319 -2.92897,-0.13319 -1.19822,0 -2.44976,0.13319 -3.59475,0.13319 -0.21302,0 -0.69229,0 -0.69229,-0.69236 0,-0.39939 0.3728,-0.42604 0.55917,-0.42604 0.23967,0 1.27811,-0.07989 1.27811,-0.82543 0,-0.6124 -0.82542,-1.54437 -0.95855,-1.73081 L 12.48446,22.10525 8.516975,32.75623 c -0.21302,0.50593 -0.21302,0.58582 -0.21302,0.61247 0,0.87867 1.757395,0.87867 2.130195,0.87867 0.50593,0 0.85208,0 0.85208,0.71895 0,0.39945 -0.42604,0.39945 -0.53258,0.39945 -1.011795,0 -3.5148,-0.13319 -4.526647,-0.13319 -0.90533,0 -3.115411,0.13319 -4.020742,0.13319 -0.213019,0 -0.692317,0 -0.692317,-0.71895 0,-0.39945 0.372788,-0.39945 0.825453,-0.39945 2.156823,0 2.316591,-0.3195 2.63612,-1.22481 L 9.395706,21.19993 c 0.026585,-0.10648 0.133129,-0.50593 0.133129,-0.61241 0,-0.10654 -1.4379,-5.88466 -1.597682,-6.52372 -0.479284,-1.97048 -0.505909,-2.07696 -3.381675,-2.13019 -0.692318,0 -0.985221,0 -0.985221,-0.71895 0,-0.39946 0.426039,-0.39946 0.505923,-0.39946 1.011847,0 3.514825,0.10655 4.526686,0.10655 1.01186,0 3.594684,-0.10655 4.606544,-0.10655 0.23967,0 0.66571,0 0.66571,0.71895 0,0.39946 -0.31956,0.39946 -0.98528,0.39946 -0.07982,0 -0.77218,0 -1.38459,0.07982 -0.7456,0.07989 -0.95862,0.1332 -0.95862,0.55924 0,0.26625 0.31956,1.51772 0.50593,2.26332 l 1.25153,5.08582 c 0.18637,0.66571 0.21302,0.77219 0.50593,1.09175 l 8.89352,10.25153"
               style="fill:#000000;fill-opacity:1;fill-rule:nonzero;stroke:none"
               id="path5164" />
            <path
               inkscape:connector-curvature="0"
               d="m 29.17988,21.19993 c 0,0.39939 -0.29291,0.93197 -0.9852,0.93197 -0.6923,0 -1.41125,-0.63906 -1.41125,-1.35801 0,-0.42604 0.3195,-0.95855 1.01179,-0.95855 0.71895,0 1.38466,0.69229 1.38466,1.38459 z M 24.06741,8.445401 C 23.98752,8.125838 23.85439,7.832927 23.85439,7.406888 c 0,-1.171588 0.98521,-2.130177 2.36987,-2.130177 2.50293,0 3.62134,3.461601 3.62134,3.834334 0,0.319564 -0.31957,0.319564 -0.39946,0.319564 -0.34615,0 -0.3728,-0.159782 -0.47928,-0.42604 -0.58582,-1.997075 -1.6775,-3.035547 -2.66278,-3.035547 -0.50586,0 -0.6124,0.319529 -0.6124,0.878704 0,0.585815 0.15978,1.065092 0.39938,1.597675 0.23968,0.692297 0.50594,1.358009 0.79885,2.023649 0.21302,0.58583 1.11833,2.8758 1.22488,3.16871 0.07989,0.26626 0.15978,0.55917 0.15978,0.79878 0,1.19822 -1.01186,2.13019 -2.39652,2.13019 -2.47635,0 -3.62134,-3.40831 -3.62134,-3.83435 0,-0.3195 0.34622,-0.3195 0.42604,-0.3195 0.34622,0 0.3728,0.13313 0.45269,0.39939 0.63906,2.15685 1.73081,3.06217 2.66278,3.06217 0.39939,0 0.63906,-0.21302 0.63906,-0.87873 0,-0.58576 -0.15978,-0.95856 -0.77225,-2.50293 L 24.06741,8.445401"
               style="fill:#000000;fill-opacity:1;fill-rule:nonzero;stroke:none"
               id="path5166" />
            <path
               inkscape:connector-curvature="0"
               d="m 36.55568,5.91577 c 0,-1.358002 -0.23967,-2.982275 -1.94383,-4.579923 -0.10647,-0.10651 -0.18636,-0.159768 -0.18636,-0.292904 0,-0.1863938 0.21302,-0.3461585 0.34614,-0.3461585 0.34615,0 2.47635,1.9970575 2.47635,4.9793335 0,1.544403 -0.58575,2.74263 -1.73074,2.74263 -0.85208,0 -1.4379,-0.665712 -1.4379,-1.437879 0,-0.798828 0.55917,-1.464512 1.4379,-1.464512 0.6124,0 1.01179,0.399413 1.03844,0.399413"
               style="fill:#000000;fill-opacity:1;fill-rule:nonzero;stroke:none"
               id="path5168" />
            <path
               inkscape:connector-curvature="0"
               d="m 52.42568,10.09625 -0.85208,0 C 51.49371,9.537084 51.25404,8.045947 50.93455,7.806342 50.72153,7.64656 48.80435,7.64656 48.43155,7.64656 l -4.60655,0 c 2.63613,2.343217 3.5148,3.03551 5.00593,4.20716 1.86394,1.49113 3.59475,3.03551 3.59475,5.43196 0,3.03552 -2.66278,4.87287 -5.85807,4.87287 -3.11541,0 -5.21895,-2.1835 -5.21895,-4.47341 0,-1.27812 1.0651,-1.41132 1.33136,-1.41132 0.58582,0 1.33135,0.42604 1.33135,1.33143 0,0.45262 -0.18637,1.33135 -1.49114,1.33135 0.77219,1.78405 2.47635,2.31657 3.67458,2.31657 2.50299,0 3.80777,-1.94376 3.80777,-3.96749 0,-2.18343 -1.57103,-3.91424 -2.36987,-4.81956 L 41.58826,6.501571 C 41.34866,6.288551 41.34866,6.2353 41.34866,5.516357 l 10.33142,0 0.7456,4.579893"
               style="fill:#000000;fill-opacity:1;fill-rule:nonzero;stroke:none"
               id="path5170" />
          </g>
        </g>
      </g>
      <g
         id="g5209"
         inkscape:label="ie1n"
         transform="matrix(0.875,0,0,-0.875,349.86408,524.35315)">
        <g
           id="g5211" />
        <g
           id="g5213">
          <g
             id="g5215"
             clip-path="url(#clipPath5217)">
            <path
               inkscape:connector-curvature="0"
               d="m 10.24565,31.1668 c 0,0.71895 -0.505931,1.27811 -1.331425,1.27811 -0.958555,0 -1.917157,-0.93197 -1.917157,-1.89052 0,-0.69237 0.479325,-1.30477 1.357989,-1.30477 0.825493,0 1.890593,0.82542 1.890593,1.91718 z M 7.529631,17.66666 c 0.426039,1.03852 0.426039,1.11834 0.772188,2.07696 0.29291,0.71895 0.479277,1.22488 0.479277,1.91718 0,1.59761 -1.144989,2.92904 -2.955636,2.92904 -3.355064,0 -4.739692,-5.19237 -4.739692,-5.53851 0,-0.34615 0.372788,-0.34615 0.42604,-0.34615 0.372787,0 0.399413,0.07982 0.585807,0.63906 0.985215,3.38166 2.396468,4.44676 3.621335,4.44676 0.292897,0 0.90533,0 0.90533,-1.14499 0,-0.74554 -0.239645,-1.49114 -0.399414,-1.86394 C 5.93197,19.8501 4.334322,15.69625 3.748514,14.15187 3.402359,13.2199 2.923061,12.02168 2.923061,11.27607 c 0,-1.704154 1.224867,-2.955619 2.95565,-2.955619 3.355077,0 4.686429,5.218949 4.686429,5.538509 0,0.34615 -0.31949,0.34615 -0.42604,0.34615 -0.346144,0 -0.346144,-0.10654 -0.53251,-0.63906 C 8.967531,11.30273 7.769235,9.119292 5.93197,9.119292 c -0.585808,0 -0.852079,0.346149 -0.852079,1.171578 0,0.90531 0.213019,1.41124 1.038466,3.59468 l 1.411274,3.78111"
               style="fill:#000000;fill-opacity:1;fill-rule:nonzero;stroke:none"
               id="path5221" />
            <path
               inkscape:connector-curvature="0"
               d="m 47.01816,20.46257 c 0.55917,0 1.22482,0 1.22482,0.71895 0,0.71895 -0.66565,0.71895 -1.17158,0.71895 l -21.51499,0 c -0.50593,0 -1.19822,0 -1.19822,-0.71895 0,-0.71895 0.69229,-0.71895 1.22488,-0.71895 l 21.43509,0 z m 0.05324,-6.97641 c 0.50593,0 1.17158,0 1.17158,0.71895 0,0.71895 -0.66565,0.71895 -1.22482,0.71895 l -21.43509,0 c -0.53259,0 -1.22488,0 -1.22488,-0.71895 0,-0.71895 0.69229,-0.71895 1.19822,-0.71895 l 21.51499,0"
               style="fill:#000000;fill-opacity:1;fill-rule:nonzero;stroke:none"
               id="path5223" />
            <path
               inkscape:connector-curvature="0"
               d="m 70.82313,31.69938 c 0,0.87866 0,0.9319 -0.82549,0.9319 -2.23668,-2.28991 -5.40539,-2.28991 -6.55038,-2.28991 l 0,-1.1184 c 0.71895,0 2.84915,0 4.71309,0.93197 l 0,-18.61261 c 0,-1.27812 -0.10654,-1.704156 -3.35508,-1.704156 l -1.14499,0 0,-1.118336 c 1.25154,0.106543 4.39353,0.106543 5.83156,0.106543 1.43763,0 4.55351,0 5.80436,-0.106543 l 0,1.118336 -1.14451,0 c -3.22222,0 -3.32856,0.399456 -3.32856,1.704156 l 0,20.15705"
               style="fill:#000000;fill-opacity:1;fill-rule:nonzero;stroke:none"
               id="path5225" />
            <path
               inkscape:connector-curvature="0"
               d="m 85.44139,8.746491 c 0,2.369799 -0.90524,3.781119 -2.2897,3.781119 -1.19837,0 -1.91752,-0.90539 -1.91752,-1.91718 0,-0.958623 0.71915,-1.890592 1.91752,-1.890592 0.42604,0 0.90525,0.133128 1.25153,0.452692 0.10634,0.079891 0.13293,0.133129 0.1861,0.133129 0.02658,0 0.05317,-0.053238 0.05317,-0.559168 0,-2.66276 -1.25154,-4.792957 -2.42264,-5.991198 C 81.8204,2.355886 81.8204,2.302628 81.8204,2.169492 c 0,-0.239645 0.18609,-0.372788 0.34629,-0.372788 0.39945,0 3.2747,2.742631 3.2747,6.949787"
               style="fill:#000000;fill-opacity:1;fill-rule:nonzero;stroke:none"
               id="path5227" />
            <path
               inkscape:connector-curvature="0"
               d="m 101.0453,10.61043 c 0,1.0651 -0.852,1.91718 -1.89089,1.91718 -1.03817,0 -1.91684,-0.85208 -1.91684,-1.91718 0,-1.038514 0.87867,-1.890592 1.91684,-1.890592 1.03889,0 1.89089,0.852078 1.89089,1.890592"
               style="fill:#000000;fill-opacity:1;fill-rule:nonzero;stroke:none"
               id="path5229" />
            <path
               inkscape:connector-curvature="0"
               d="m 116.9417,10.61043 c 0,1.0651 -0.8521,1.91718 -1.8902,1.91718 -1.0389,0 -1.9175,-0.85208 -1.9175,-1.91718 0,-1.038514 0.8786,-1.890592 1.9175,-1.890592 1.0381,0 1.8902,0.852078 1.8902,1.890592"
               style="fill:#000000;fill-opacity:1;fill-rule:nonzero;stroke:none"
               id="path5231" />
            <path
               inkscape:connector-curvature="0"
               d="m 132.8388,10.61043 c 0,1.0651 -0.8521,1.91718 -1.8909,1.91718 -1.0382,0 -1.9169,-0.85208 -1.9169,-1.91718 0,-1.038514 0.8787,-1.890592 1.9169,-1.890592 1.0388,0 1.8909,0.852078 1.8909,1.890592"
               style="fill:#000000;fill-opacity:1;fill-rule:nonzero;stroke:none"
               id="path5233" />
            <path
               inkscape:connector-curvature="0"
               d="m 149.241,8.746491 c 0,2.369799 -0.9053,3.781119 -2.2897,3.781119 -1.1984,0 -1.9176,-0.90539 -1.9176,-1.91718 0,-0.958623 0.7192,-1.890592 1.9176,-1.890592 0.426,0 0.9052,0.133128 1.2515,0.452692 0.1063,0.079891 0.1329,0.133129 0.1861,0.133129 0.0266,0 0.0532,-0.053238 0.0532,-0.559168 0,-2.66276 -1.2516,-4.792957 -2.4234,-5.991198 C 145.62,2.355886 145.62,2.302628 145.62,2.169492 c 0,-0.239645 0.1861,-0.372788 0.3456,-0.372788 0.3994,0 3.2754,2.742631 3.2754,6.949787"
               style="fill:#000000;fill-opacity:1;fill-rule:nonzero;stroke:none"
               id="path5235" />
            <path
               inkscape:connector-curvature="0"
               d="m 185.0017,29.46264 c 0.3729,1.4379 1.0116,2.55623 3.8875,2.66278 0.1595,0 0.6128,0.05324 0.6128,0.71888 0,0.05331 0,0.39945 -0.4799,0.39945 -1.1711,0 -2.4492,-0.10654 -3.621,-0.10654 -1.2249,0 -2.4764,0.10654 -3.6748,0.10654 -0.2127,0 -0.6387,0 -0.6387,-0.71895 0,-0.39938 0.3728,-0.39938 0.6387,-0.39938 2.0504,-0.02665 2.4499,-0.77226 2.4499,-1.57103 0,-0.10654 -0.0798,-0.63906 -0.1063,-0.7456 l -4.0212,-16.00306 -7.9345,18.77231 c -0.2932,0.63906 -0.3197,0.66571 -1.1452,0.66571 l -4.8194,0 c -0.7191,0 -1.0388,0 -1.0388,-0.71895 0,-0.39938 0.3197,-0.39938 1.0122,-0.39938 0.1595,0 2.4227,0 2.4227,-0.31957 l -4.7928,-19.27824 c -0.3729,-1.4379 -0.985,-2.582892 -3.8875,-2.689436 -0.2134,0 -0.6122,-0.053238 -0.6122,-0.718882 0,-0.266326 0.1861,-0.399454 0.4792,-0.399454 1.1445,0 2.3961,0.106543 3.5679,0.106543 1.2249,0 2.5296,-0.106543 3.7014,-0.106543 0.1861,0 0.6653,0 0.6653,0.718949 0,0.346149 -0.3463,0.399387 -0.7185,0.399387 -2.1036,0.053306 -2.3701,0.852076 -2.3701,1.571026 0,0.26633 0.0266,0.42604 0.1329,0.8255 l 4.7396,18.95875 c 0.1336,-0.21302 0.1336,-0.29291 0.3197,-0.63906 l 8.9468,-21.142256 c 0.24,-0.612406 0.3729,-0.692296 0.6926,-0.692296 0.3995,0 0.3995,0.106543 0.559,0.745603 l 5.0327,19.997199"
               style="fill:#000000;fill-opacity:1;fill-rule:nonzero;stroke:none"
               id="path5237" />
          </g>
        </g>
      </g>
      <path
         transform="matrix(0.7,0,0,-0.7,272.12981,177.69394)"
         d="m 178.57142,230.93361 c 0,12.62365 -10.23349,22.85714 -22.85714,22.85714 -12.62365,0 -22.85714,-10.23349 -22.85714,-22.85714 0,-12.62365 10.23349,-22.85714 22.85714,-22.85714 12.62365,0 22.85714,10.23349 22.85714,22.85714 z"
         sodipodi:ry="22.857143"
         sodipodi:rx="22.857143"
         sodipodi:cy="230.93361"
         sodipodi:cx="155.71428"
         id="path2985-2-2-4"
         style="fill:#c8c8c8;fill-opacity:1;fill-rule:evenodd;stroke:#060606;stroke-width:2.20000005;stroke-linecap:butt;stroke-linejoin:miter;stroke-miterlimit:4;stroke-opacity:0.98260869;stroke-dasharray:none"
         sodipodi:type="arc" />
      <path
         transform="matrix(0.7,0,0,-0.7,266.72981,553.09395)"
         d="m 178.57142,230.93361 c 0,12.62365 -10.23349,22.85714 -22.85714,22.85714 -12.62365,0 -22.85714,-10.23349 -22.85714,-22.85714 0,-12.62365 10.23349,-22.85714 22.85714,-22.85714 12.62365,0 22.85714,10.23349 22.85714,22.85714 z"
         sodipodi:ry="22.857143"
         sodipodi:rx="22.857143"
         sodipodi:cy="230.93361"
         sodipodi:cx="155.71428"
         id="path2985-2-2-4-7"
         style="fill:#020202;fill-opacity:1;fill-rule:evenodd;stroke:#060606;stroke-width:2.20000005;stroke-linecap:butt;stroke-linejoin:miter;stroke-miterlimit:4;stroke-opacity:0.98260869;stroke-dasharray:none"
         sodipodi:type="arc" />
      <path
         inkscape:connector-curvature="0"
         id="path5645-9"
         d="m 815.01395,266.3261 37,111"
         style="fill:none;stroke:#000000;stroke-width:1.61000001;stroke-linecap:butt;stroke-linejoin:miter;stroke-miterlimit:4;stroke-opacity:1;stroke-dasharray:none;marker-end:url(#Arrow1Mend)" />
      <path
         inkscape:connector-curvature="0"
         id="path5647-7"
         d="m 897.01394,265.3261 -33.99999,111"
         style="fill:none;stroke:#000000;stroke-width:1.61000001;stroke-linecap:butt;stroke-linejoin:miter;stroke-miterlimit:4;stroke-opacity:1;stroke-dasharray:none;marker-end:url(#Arrow1Mend)" />
      <path
         inkscape:connector-curvature="0"
         id="path5310-0"
         d="m 862.41394,21.326083 0,105.999997"
         style="fill:none;stroke:#000000;stroke-width:1.61000001;stroke-linecap:butt;stroke-linejoin:miter;stroke-miterlimit:4;stroke-opacity:1;stroke-dasharray:none;marker-end:url(#Arrow1Mend)" />
      <path
         transform="matrix(0.7,0,0,-0.7,705.03038,426.6662)"
         d="m 178.57142,230.93361 c 0,12.62365 -10.23349,22.85714 -22.85714,22.85714 -12.62365,0 -22.85714,-10.23349 -22.85714,-22.85714 0,-12.62365 10.23349,-22.85714 22.85714,-22.85714 12.62365,0 22.85714,10.23349 22.85714,22.85714 z"
         sodipodi:ry="22.857143"
         sodipodi:rx="22.857143"
         sodipodi:cy="230.93361"
         sodipodi:cx="155.71428"
         id="path2985-9"
         style="fill:#ffffff;fill-opacity:1;stroke:#000000;stroke-width:2.20000005;stroke-linecap:butt;stroke-linejoin:miter;stroke-miterlimit:4;stroke-opacity:1;stroke-dasharray:none"
         sodipodi:type="arc" />
      <path
         transform="matrix(0.7,0,0,-0.7,788.03038,426.66619)"
         d="m 178.57142,230.93361 c 0,12.62365 -10.23349,22.85714 -22.85714,22.85714 -12.62365,0 -22.85714,-10.23349 -22.85714,-22.85714 0,-12.62365 10.23349,-22.85714 22.85714,-22.85714 12.62365,0 22.85714,10.23349 22.85714,22.85714 z"
         sodipodi:ry="22.857143"
         sodipodi:rx="22.857143"
         sodipodi:cy="230.93361"
         sodipodi:cx="155.71428"
         id="path2985-2-3"
         style="fill:#ffffff;fill-opacity:1;stroke:#000000;stroke-width:2.20000005;stroke-linecap:butt;stroke-linejoin:miter;stroke-miterlimit:4;stroke-opacity:1;stroke-dasharray:none"
         sodipodi:type="arc" />
      <path
         inkscape:connector-curvature="0"
         id="path3853-7"
         d="m 861.03037,145.61267 -39.99999,102"
         style="fill:none;stroke:#000000;stroke-width:1.68000007;stroke-linecap:butt;stroke-linejoin:miter;stroke-miterlimit:4;stroke-opacity:1;stroke-dasharray:none;marker-mid:none;marker-end:url(#Arrow1Mend)" />
      <path
         inkscape:connector-curvature="0"
         id="path3855-6"
         d="m 867.03037,152.61267 25.00001,96"
         style="fill:none;stroke:#000000;stroke-width:1.68000007;stroke-linecap:butt;stroke-linejoin:miter;stroke-miterlimit:4;stroke-opacity:1;stroke-dasharray:none;marker-mid:none;marker-end:url(#Arrow1Mend)" />
      <path
         transform="matrix(0.7,0,0,-0.7,753.03038,307.2662)"
         d="m 178.57142,230.93361 c 0,12.62365 -10.23349,22.85714 -22.85714,22.85714 -12.62365,0 -22.85714,-10.23349 -22.85714,-22.85714 0,-12.62365 10.23349,-22.85714 22.85714,-22.85714 12.62365,0 22.85714,10.23349 22.85714,22.85714 z"
         sodipodi:ry="22.857143"
         sodipodi:rx="22.857143"
         sodipodi:cy="230.93361"
         sodipodi:cx="155.71428"
         id="path2985-2-2-2"
         style="fill:#ffffff;fill-opacity:1;fill-rule:evenodd;stroke:#000000;stroke-width:2.20000005;stroke-linecap:butt;stroke-linejoin:miter;stroke-miterlimit:4;stroke-opacity:1;stroke-dasharray:none"
         sodipodi:type="arc" />
      <path
         transform="matrix(0.7,0,0,-0.7,753.41395,181.57961)"
         d="m 178.57142,230.93361 c 0,12.62365 -10.23349,22.85714 -22.85714,22.85714 -12.62365,0 -22.85714,-10.23349 -22.85714,-22.85714 0,-12.62365 10.23349,-22.85714 22.85714,-22.85714 12.62365,0 22.85714,10.23349 22.85714,22.85714 z"
         sodipodi:ry="22.857143"
         sodipodi:rx="22.857143"
         sodipodi:cy="230.93361"
         sodipodi:cx="155.71428"
         id="path2985-2-2-4-2"
         style="fill:#c8c8c8;fill-opacity:1;fill-rule:evenodd;stroke:#060606;stroke-width:2.20000005;stroke-linecap:butt;stroke-linejoin:miter;stroke-miterlimit:4;stroke-opacity:0.98260869;stroke-dasharray:none"
         sodipodi:type="arc" />
      <path
         transform="matrix(0.7,0,0,-0.7,748.01395,556.9796)"
         d="m 178.57142,230.93361 c 0,12.62365 -10.23349,22.85714 -22.85714,22.85714 -12.62365,0 -22.85714,-10.23349 -22.85714,-22.85714 0,-12.62365 10.23349,-22.85714 22.85714,-22.85714 12.62365,0 22.85714,10.23349 22.85714,22.85714 z"
         sodipodi:ry="22.857143"
         sodipodi:rx="22.857143"
         sodipodi:cy="230.93361"
         sodipodi:cx="155.71428"
         id="path2985-2-2-4-7-2"
         style="fill:#020202;fill-opacity:1;fill-rule:evenodd;stroke:#060606;stroke-width:2.20000005;stroke-linecap:butt;stroke-linejoin:miter;stroke-miterlimit:4;stroke-opacity:0.98260869;stroke-dasharray:none"
         sodipodi:type="arc" />
      <g
         id="g6215"
         inkscape:label="alpha_ct"
         transform="matrix(0.875,0,0,-0.875,403.01454,34.63242)">
        <g
           id="g6217" />
        <g
           id="g6219">
          <g
             id="g6221"
             clip-path="url(#clipPath6223)">
            <path
               inkscape:connector-curvature="0"
               d="m 20.41476,16.36389 c 3.38173,3.86101 4.1805,7.93504 4.1805,8.04151 0,0.47928 -0.53252,0.47928 -0.87866,0.47928 -0.66572,0 -0.71895,-0.05324 -0.87874,-0.74553 -0.69229,-2.39646 -1.75739,-4.36694 -2.55623,-5.48528 -0.02659,1.73081 -0.07989,3.83436 -2.02366,5.77819 -1.86394,1.89052 -4.1805,2.26332 -5.88466,2.26332 -7.322584,0 -11.263446,-5.67164 -11.263446,-10.30483 0,-3.96749 2.929022,-6.23081 7.429095,-6.23081 3.434901,0 6.390591,1.49114 8.307771,2.84915 0.63906,-1.5178 2.10354,-2.84915 4.28698,-2.84915 2.36987,0 3.59475,1.6775 3.59475,2.42311 0,0.50586 -0.50593,0.50586 -0.8255,0.50586 -0.45262,0 -0.63906,0 -0.82542,-0.47928 -0.42604,-1.03844 -1.62427,-1.14499 -1.67758,-1.14499 -0.90531,0 -0.9852,4.1805 -0.9852,4.89945 z M 8.725326,11.46444 c -2.023694,0 -3.488206,0.95862 -3.488206,3.32843 0,1.19829 0.825453,5.19236 1.890552,7.26932 1.144962,2.28998 3.381698,3.32842 5.218988,3.32842 3.32842,0 3.72781,-3.94083 3.88759,-7.45569 0.02666,-0.90531 0.15978,-2.47634 0.15978,-3.35507 0,-0.42604 -2.18343,-1.67751 -3.08881,-2.0769 -2.15679,-0.93196 -3.727815,-1.03851 -4.579894,-1.03851"
               style="fill:#000000;fill-opacity:1;fill-rule:nonzero;stroke:none"
               id="path6227" />
            <path
               inkscape:connector-curvature="0"
               d="m 61.42108,22.19532 c 0.53251,0 1.22488,0 1.22488,0.71895 0,0.71895 -0.69237,0.71895 -1.1983,0.71895 l -21.48833,0 c -0.50593,0 -1.19823,0 -1.19823,-0.71895 0,-0.71895 0.6923,-0.71895 1.22488,-0.71895 l 21.4351,0 z m 0.02658,-6.94976 c 0.50593,0 1.1983,0 1.1983,0.71895 0,0.71895 -0.69237,0.71895 -1.22488,0.71895 l -21.4351,0 c -0.53258,0 -1.22488,0 -1.22488,-0.71895 0,-0.71895 0.6923,-0.71895 1.19823,-0.71895 l 21.48833,0"
               style="fill:#000000;fill-opacity:1;fill-rule:nonzero;stroke:none"
               id="path6229" />
            <path
               inkscape:connector-curvature="0"
               d="m 86.45113,1.851943 c 0,0.10651 0,0.159768 -0.61281,0.772202 -4.49966,4.526665 -5.64485,11.316645 -5.64485,16.801915 0,6.25746 1.35787,12.51492 5.77845,16.98834 0.47921,0.45269 0.47921,0.50593 0.47921,0.6124 0,0.26633 -0.16019,0.37281 -0.37287,0.37281 -0.34628,0 -3.59509,-2.4497 -5.6987,-7.003 -1.83708,-3.96748 -2.26312,-7.93504 -2.26312,-10.97055 0,-2.79584 0.37287,-7.13612 2.37014,-11.183499 2.15678,-4.420182 5.2454,-6.763399 5.59168,-6.763399 0.21268,0 0.37287,0.10651 0.37287,0.372781"
               style="fill:#000000;fill-opacity:1;fill-rule:nonzero;stroke:none"
               id="path6231" />
            <path
               inkscape:connector-curvature="0"
               d="m 105.6761,18.94678 c 0,5.61841 -3.3286,7.3758 -5.99116,7.3758 -4.92638,0 -9.66598,-5.11247 -9.66598,-10.19829 0,-3.32842 2.15678,-6.0711 5.83162,-6.0711 2.26312,0 4.84592,0.8255 7.56172,3.03552 0.4799,-1.91718 1.651,-3.03552 3.2754,-3.03552 1.9175,0 3.0088,1.99707 3.0088,2.55624 0,0.26626 -0.2127,0.3728 -0.426,0.3728 -0.2393,0 -0.3463,-0.10654 -0.4526,-0.3728 -0.6653,-1.75739 -1.9435,-1.75739 -2.0239,-1.75739 -1.1179,0 -1.1179,2.7959 -1.1179,3.67457 0,0.7456 0,0.82549 0.3728,1.25153 3.3552,4.23374 4.1268,8.38759 4.1268,8.4409 0,0.07989 -0.0531,0.34615 -0.426,0.34615 -0.3729,0 -0.3729,-0.10655 -0.559,-0.74561 -0.6387,-2.26332 -1.8105,-4.97934 -3.5146,-7.10954 l 0,2.23674 z m -2.3968,-4.9261 c -3.1683,-2.76926 -5.93792,-3.16864 -7.37555,-3.16864 -2.15678,0 -3.22222,1.62426 -3.22222,3.91424 0,1.7574 0.93183,5.64499 2.07703,7.48227 1.70416,2.60955 3.62167,3.30184 4.89979,3.30184 3.54125,0 3.54125,-4.71308 3.54125,-7.50892 0,-1.33143 0,-3.40832 0.0797,-4.02079"
               style="fill:#000000;fill-opacity:1;fill-rule:nonzero;stroke:none"
               id="path6233" />
            <path
               inkscape:connector-curvature="0"
               d="m 132.5697,22.3551 c 0,0.13313 -0.0531,0.31949 -0.3197,0.31949 -0.1595,0 -0.2127,-0.05323 -0.4526,-0.29284 l -1.8371,-1.94383 c -0.2133,0.3195 -1.6244,2.23667 -4.713,2.23667 -6.0716,0 -12.0361,-5.37873 -12.0361,-11.05037 0,-4.073997 3.1956,-7.056272 7.696,-7.056272 1.3578,0 3.7539,0.266271 6.3367,2.449726 1.9707,1.677511 2.5296,3.861016 2.5296,4.047376 0,0.34615 -0.2924,0.34615 -0.426,0.34615 -0.319,0 -0.3729,-0.13313 -0.4526,-0.39938 -1.0382,-3.434971 -4.5263,-5.538542 -7.5617,-5.538542 -2.6633,0 -5.619,1.41126 -5.619,5.378762 0,0.71895 0.1602,4.68643 3.0628,7.85507 1.7307,1.91718 4.3667,3.06217 6.7361,3.06217 2.9026,0 4.6067,-2.10355 4.6067,-4.89946 0,-0.71895 -0.0797,-0.87866 -0.0797,-1.03844 0,-0.31956 0.3463,-0.31956 0.4526,-0.31956 0.3995,0 0.3995,0.07989 0.5324,0.55916 l 1.5446,6.28412"
               style="fill:#000000;fill-opacity:1;fill-rule:nonzero;stroke:none"
               id="path6235" />
            <path
               inkscape:connector-curvature="0"
               d="m 142.8478,10.50589 c 0,2.3698 -0.9052,3.75446 -2.3163,3.75446 -1.1717,0 -1.8909,-0.87873 -1.8909,-1.89052 0,-0.98528 0.7192,-1.91718 1.8909,-1.91718 0.4527,0 0.9053,0.15971 1.2782,0.47928 0.1063,0.07989 0.1329,0.10647 0.1595,0.10647 0.0531,0 0.0797,-0.02658 0.0797,-0.53251 0,-2.662783 -1.2515,-4.819592 -2.4499,-6.017826 -0.3722,-0.372782 -0.3722,-0.452666 -0.3722,-0.559175 0,-0.266278 0.1596,-0.399414 0.3456,-0.399414 0.3995,0 3.2754,2.769256 3.2754,6.976415"
               style="fill:#000000;fill-opacity:1;fill-rule:nonzero;stroke:none"
               id="path6237" />
            <path
               inkscape:connector-curvature="0"
               d="m 168.6767,18.94678 c 0,5.61841 -3.3285,7.3758 -5.9911,7.3758 -4.9264,0 -9.666,-5.11247 -9.666,-10.19829 0,-3.32842 2.1568,-6.0711 5.8316,-6.0711 2.2632,0 4.846,0.8255 7.5617,3.03552 0.4792,-1.91718 1.651,-3.03552 3.2754,-3.03552 1.8903,0 3.0089,1.99707 3.0089,2.55624 0,0.26626 -0.2127,0.3728 -0.4261,0.3728 -0.2392,0 -0.3462,-0.10654 -0.4526,-0.3728 -0.666,-1.75739 -1.9441,-1.75739 -2.0238,-1.75739 -1.118,0 -1.118,2.7959 -1.118,3.67457 0,0.7456 0,0.82549 0.3729,1.25153 3.3545,4.23374 4.1268,8.38759 4.1268,8.4409 0,0.07989 -0.0532,0.34615 -0.4261,0.34615 -0.3728,0 -0.3728,-0.10655 -0.5589,-0.74561 -0.6394,-2.26332 -1.8105,-4.97934 -3.5147,-7.10954 l 0,2.23674 z m -2.3967,-4.9261 c -3.1684,-2.76926 -5.938,-3.16864 -7.3756,-3.16864 -2.1568,0 -3.2222,1.62426 -3.2222,3.91424 0,1.7574 0.9318,5.64499 2.077,7.48227 1.7042,2.60955 3.6217,3.30184 4.8998,3.30184 3.5412,0 3.5412,-4.71308 3.5412,-7.50892 0,-1.33143 0,-3.40832 0.0798,-4.02079"
               style="fill:#000000;fill-opacity:1;fill-rule:nonzero;stroke:none"
               id="path6239" />
            <path
               inkscape:connector-curvature="0"
               d="m 186.6236,20.2249 c 0.186,0.71895 0.2392,0.79884 0.7723,0.85208 0.1329,0.02665 1.0116,0.02665 1.5174,0.02665 1.518,0 2.1833,0 2.7961,-0.21302 1.1446,-0.34621 1.1984,-1.06509 1.1984,-1.97048 0,-0.39939 0,-0.71895 -0.1868,-2.02365 l -0.0531,-0.29291 c 0,-0.23968 0.1861,-0.3728 0.426,-0.3728 0.3729,0 0.426,0.23967 0.4792,0.63905 l 0.666,4.79298 c 0,0.34615 -0.2931,0.34615 -0.7457,0.34615 l -15.4172,0 c -0.6128,0 -0.666,0 -0.8521,-0.53258 l -1.5712,-4.44676 c -0.0266,-0.07989 -0.133,-0.31957 -0.133,-0.4527 0,-0.07989 0.0532,-0.34614 0.4261,-0.34614 0.3463,0 0.3729,0.13312 0.5324,0.61247 1.4642,4.02072 2.2897,4.26039 6.0974,4.26039 l 1.0389,0 c 0.7723,0 0.7989,-0.02665 0.7989,-0.23967 0,-0.02665 0,-0.15978 -0.107,-0.53258 L 181.0053,7.15081 c -0.24,-0.931963 -0.3197,-1.198234 -2.9557,-1.198234 -0.9053,0 -1.1186,0 -1.1186,-0.53255 0,-0.079884 0.0532,-0.372788 0.426,-0.372788 0.6926,0 1.4642,0.079885 2.1568,0.079885 0.6926,0 1.4649,0.026625 2.1568,0.026625 0.6926,0 1.5446,0 2.2631,-0.026625 0.666,-0.026626 1.4117,-0.079885 2.1036,-0.079885 0.1868,0 0.5597,0 0.5597,0.559182 0,0.346156 -0.24,0.346156 -1.0123,0.346156 -0.4792,0 -0.985,0.026625 -1.4642,0.053251 -0.8521,0.079884 -0.9053,0.186394 -0.9053,0.479298 0,0.186394 0,0.239645 0.1064,0.585801 l 3.302,13.153974"
               style="fill:#000000;fill-opacity:1;fill-rule:nonzero;stroke:none"
               id="path6241" />
            <path
               inkscape:connector-curvature="0"
               d="m 207.4197,19.42606 c 0,2.82249 -0.3728,7.16278 -2.3701,11.21015 -2.1568,4.42018 -5.2454,6.7634 -5.5917,6.7634 -0.2134,0 -0.3729,-0.15979 -0.3729,-0.37281 0,-0.10647 0,-0.15971 0.6926,-0.82542 3.5147,-3.54145 5.5651,-9.26639 5.5651,-16.77532 0,-6.12433 -1.3313,-12.461644 -5.7785,-16.988309 -0.4792,-0.42604 -0.4792,-0.479298 -0.4792,-0.585808 0,-0.21302 0.1595,-0.372781 0.3729,-0.372781 0.3463,0 3.5944,2.449727 5.698,7.003004 1.8378,3.940894 2.2638,7.935034 2.2638,10.943894"
               style="fill:#000000;fill-opacity:1;fill-rule:nonzero;stroke:none"
               id="path6243" />
          </g>
        </g>
      </g>
      <g
         id="g6366"
         inkscape:label="alpha_11"
         transform="matrix(0.875,0,0,-0.875,883.63026,36.48904)">
        <g
           id="g6368" />
        <g
           id="g6370">
          <g
             id="g6372"
             clip-path="url(#clipPath6374)">
            <path
               inkscape:connector-curvature="0"
               d="m 20.41476,16.36389 c 3.38173,3.86101 4.1805,7.93504 4.1805,8.04151 0,0.47928 -0.53252,0.47928 -0.87866,0.47928 -0.66572,0 -0.71895,-0.05324 -0.87874,-0.74553 -0.69229,-2.39646 -1.75739,-4.36694 -2.55623,-5.48528 -0.02659,1.73081 -0.07989,3.83436 -2.02366,5.77819 -1.86394,1.89052 -4.1805,2.26332 -5.88466,2.26332 -7.322584,0 -11.263446,-5.67164 -11.263446,-10.30483 0,-3.96749 2.929022,-6.23081 7.429095,-6.23081 3.434901,0 6.390591,1.49114 8.307771,2.84915 0.63906,-1.5178 2.10354,-2.84915 4.28698,-2.84915 2.36987,0 3.59475,1.6775 3.59475,2.42311 0,0.50586 -0.50593,0.50586 -0.8255,0.50586 -0.45262,0 -0.63906,0 -0.82542,-0.47928 -0.42604,-1.03844 -1.62427,-1.14499 -1.67758,-1.14499 -0.90531,0 -0.9852,4.1805 -0.9852,4.89945 z M 8.725326,11.46444 c -2.023694,0 -3.488206,0.95862 -3.488206,3.32843 0,1.19829 0.825453,5.19236 1.890552,7.26932 1.144962,2.28998 3.381698,3.32842 5.218988,3.32842 3.32842,0 3.72781,-3.94083 3.88759,-7.45569 0.02666,-0.90531 0.15978,-2.47634 0.15978,-3.35507 0,-0.42604 -2.18343,-1.67751 -3.08881,-2.0769 -2.15679,-0.93196 -3.727815,-1.03851 -4.579894,-1.03851"
               style="fill:#000000;fill-opacity:1;fill-rule:nonzero;stroke:none"
               id="path6378" />
            <path
               inkscape:connector-curvature="0"
               d="m 61.42108,22.19532 c 0.53251,0 1.22488,0 1.22488,0.71895 0,0.71895 -0.69237,0.71895 -1.1983,0.71895 l -21.48833,0 c -0.50593,0 -1.19823,0 -1.19823,-0.71895 0,-0.71895 0.6923,-0.71895 1.22488,-0.71895 l 21.4351,0 z m 0.02658,-6.94976 c 0.50593,0 1.1983,0 1.1983,0.71895 0,0.71895 -0.69237,0.71895 -1.22488,0.71895 l -21.4351,0 c -0.53258,0 -1.22488,0 -1.22488,-0.71895 0,-0.71895 0.6923,-0.71895 1.19823,-0.71895 l 21.48833,0"
               style="fill:#000000;fill-opacity:1;fill-rule:nonzero;stroke:none"
               id="path6380" />
            <path
               inkscape:connector-curvature="0"
               d="m 86.45113,1.851943 c 0,0.10651 0,0.159768 -0.61281,0.772202 -4.49966,4.526665 -5.64485,11.316645 -5.64485,16.801915 0,6.25746 1.35787,12.51492 5.77845,16.98834 0.47921,0.45269 0.47921,0.50593 0.47921,0.6124 0,0.26633 -0.16019,0.37281 -0.37287,0.37281 -0.34628,0 -3.59509,-2.4497 -5.6987,-7.003 -1.83708,-3.96748 -2.26312,-7.93504 -2.26312,-10.97055 0,-2.79584 0.37287,-7.13612 2.37014,-11.183499 2.15678,-4.420182 5.2454,-6.763399 5.59168,-6.763399 0.21268,0 0.37287,0.10651 0.37287,0.372781"
               style="fill:#000000;fill-opacity:1;fill-rule:nonzero;stroke:none"
               id="path6382" />
            <path
               inkscape:connector-curvature="0"
               d="m 99.09871,33.43212 c 0,0.87873 0,0.95856 -0.8255,0.95856 -2.20995,-2.31657 -5.37832,-2.31657 -6.52351,-2.31657 l 0,-1.11833 c 0.71915,0 2.82276,0 4.71302,0.93197 l 0,-18.58602 c 0,-1.30471 -0.10634,-1.73074 -3.35515,-1.73074 l -1.14451,0 0,-1.11834 c 1.25153,0.10647 4.39332,0.10647 5.80436,0.10647 1.43831,0 4.58008,0 5.83158,-0.10647 l 0,1.11834 -1.1451,0 c -3.24817,0 -3.35519,0.39938 -3.35519,1.73074 l 0,20.13039"
               style="fill:#000000;fill-opacity:1;fill-rule:nonzero;stroke:none"
               id="path6384" />
            <path
               inkscape:connector-curvature="0"
               d="m 113.7442,10.50589 c 0,2.3698 -0.9052,3.75446 -2.2904,3.75446 -1.1976,0 -1.9168,-0.87873 -1.9168,-1.89052 0,-0.98528 0.7192,-1.91718 1.9168,-1.91718 0.4261,0 0.8787,0.15971 1.2516,0.47928 0.107,0.07989 0.1336,0.10647 0.1868,0.10647 0.0265,0 0.0531,-0.02658 0.0531,-0.53251 0,-2.662783 -1.2515,-4.819592 -2.4499,-6.017826 -0.3728,-0.372782 -0.3728,-0.452666 -0.3728,-0.559175 0,-0.266278 0.1602,-0.399414 0.3462,-0.399414 0.3995,0 3.2754,2.769256 3.2754,6.976415"
               style="fill:#000000;fill-opacity:1;fill-rule:nonzero;stroke:none"
               id="path6386" />
            <path
               inkscape:connector-curvature="0"
               d="m 132.916,33.43212 c 0,0.87873 0,0.95856 -0.8255,0.95856 -2.2365,-2.31657 -5.4056,-2.31657 -6.5508,-2.31657 l 0,-1.11833 c 0.7192,0 2.8494,0 4.7131,0.93197 l 0,-18.58602 c 0,-1.30471 -0.1064,-1.73074 -3.3279,-1.73074 l -1.1718,0 0,-1.11834 c 1.2781,0.10647 4.3933,0.10647 5.8316,0.10647 1.4376,0 4.5528,0 5.8044,-0.10647 l 0,1.11834 -1.1445,0 c -3.2223,0 -3.3286,0.39938 -3.3286,1.73074 l 0,20.13039"
               style="fill:#000000;fill-opacity:1;fill-rule:nonzero;stroke:none"
               id="path6388" />
            <path
               inkscape:connector-curvature="0"
               d="m 150.7299,19.42606 c 0,2.82249 -0.3994,7.16278 -2.3701,11.21015 -2.1568,4.42018 -5.2454,6.7634 -5.5917,6.7634 -0.2134,0 -0.3729,-0.15979 -0.3729,-0.37281 0,-0.10647 0,-0.15971 0.6926,-0.82542 3.5146,-3.54145 5.5651,-9.26639 5.5651,-16.77532 0,-6.12433 -1.3313,-12.461644 -5.7785,-16.988309 -0.4792,-0.42604 -0.4792,-0.479298 -0.4792,-0.585808 0,-0.21302 0.1595,-0.372781 0.3729,-0.372781 0.3463,0 3.5678,2.449727 5.698,7.003004 1.8378,3.940894 2.2638,7.935034 2.2638,10.943894"
               style="fill:#000000;fill-opacity:1;fill-rule:nonzero;stroke:none"
               id="path6390" />
          </g>
        </g>
      </g>
      <path
         transform="matrix(0.7,0,0,-0.7,441.8424,421.58412)"
         d="m 178.57142,230.93361 c 0,12.62365 -10.23349,22.85714 -22.85714,22.85714 -12.62365,0 -22.85714,-10.23349 -22.85714,-22.85714 0,-12.62365 10.23349,-22.85714 22.85714,-22.85714 12.62365,0 22.85714,10.23349 22.85714,22.85714 z"
         sodipodi:ry="22.857143"
         sodipodi:rx="22.857143"
         sodipodi:cy="230.93361"
         sodipodi:cx="155.71428"
         id="path2985-2-2-4-7-22"
         style="fill:#020202;fill-opacity:1;fill-rule:evenodd;stroke:#060606;stroke-width:2.20000005;stroke-linecap:butt;stroke-linejoin:miter;stroke-miterlimit:4;stroke-opacity:0.98260869;stroke-dasharray:none"
         sodipodi:type="arc" />
      <path
         inkscape:connector-curvature="0"
         id="path6726"
         d="M 549.95176,261.71186 389.63745,381.05697"
         style="fill:none;stroke:#000000;stroke-width:1.75;stroke-linecap:butt;stroke-linejoin:miter;stroke-miterlimit:4;stroke-opacity:1;stroke-dasharray:none;marker-end:url(#marker5956)" />
      <path
         transform="matrix(0.7,0,0,-0.7,924.44056,422.99342)"
         d="m 178.57142,230.93361 c 0,12.62365 -10.23349,22.85714 -22.85714,22.85714 -12.62365,0 -22.85714,-10.23349 -22.85714,-22.85714 0,-12.62365 10.23349,-22.85714 22.85714,-22.85714 12.62365,0 22.85714,10.23349 22.85714,22.85714 z"
         sodipodi:ry="22.857143"
         sodipodi:rx="22.857143"
         sodipodi:cy="230.93361"
         sodipodi:cx="155.71428"
         id="path2985-2-2-4-7-22-9"
         style="fill:#020202;fill-opacity:1;fill-rule:evenodd;stroke:#060606;stroke-width:2.20000005;stroke-linecap:butt;stroke-linejoin:miter;stroke-miterlimit:4;stroke-opacity:0.98260869;stroke-dasharray:none"
         sodipodi:type="arc" />
      <path
         inkscape:connector-curvature="0"
         id="path6726-0"
         d="M 1032.5499,263.12117 872.2356,382.46627"
         style="fill:none;stroke:#000000;stroke-width:1.75;stroke-linecap:butt;stroke-linejoin:miter;stroke-miterlimit:4;stroke-opacity:1;stroke-dasharray:none;marker-end:url(#marker5956)" />
      <text
         sodipodi:linespacing="125%"
         id="text7062"
         y="-55.680798"
         x="355.75446"
         style="font-size:28px;font-style:normal;font-weight:normal;line-height:125%;letter-spacing:0px;word-spacing:0px;fill:#000000;fill-opacity:1;stroke:none;font-family:Sans"
         xml:space="preserve"><tspan
           y="-55.680798"
           x="355.75446"
           id="tspan7064"
           sodipodi:role="line">DAG</tspan></text>
      <text
         sodipodi:linespacing="125%"
         id="text7062-2"
         y="-49.656357"
         x="818.83484"
         style="font-size:28px;font-style:normal;font-weight:normal;line-height:125%;letter-spacing:0px;word-spacing:0px;fill:#000000;fill-opacity:1;stroke:none;font-family:Sans"
         xml:space="preserve"><tspan
           y="-49.656357"
           x="818.83484"
           id="tspan7064-3"
           sodipodi:role="line">Values You Might See</tspan></text>
      <g
         id="g7860"
         inkscape:label="p1"
         transform="matrix(0.875,0,0,-0.875,401.84729,129.29264)">
        <g
           id="g7862" />
        <g
           id="g7864">
          <g
             id="g7866"
             clip-path="url(#clipPath7868)">
            <path
               inkscape:connector-curvature="0"
               d="M 3.480473,3.875063 C 3.187576,2.650204 3.134318,2.383926 1.53667,2.383926 c -0.426039,0 -0.8254507,0 -0.8254507,-0.665685 0,-0.292904 0.1863919,-0.42604 0.4792957,-0.42604 0.958589,0 1.997061,0.10651 3.008901,0.10651 1.198234,0 2.396475,-0.10651 3.568097,-0.10651 0.159782,0 0.639059,0 0.639059,0.718944 0,0.372781 -0.372801,0.372781 -0.878732,0.372781 -1.784027,0 -1.784027,0.266278 -1.784027,0.585807 0,0.42604 1.51777,6.284095 1.757443,7.189407 0.479277,-1.038441 1.464484,-2.316559 3.301774,-2.316559 4.1805,0 8.65391,5.245599 8.65391,10.544439 0,3.35508 -2.0503,5.72495 -4.76632,5.72495 -1.81063,0 -3.51479,-1.27812 -4.713019,-2.68944 -0.346149,1.94383 -1.890592,2.68944 -3.221948,2.68944 -1.6509,0 -2.343217,-1.38466 -2.662746,-2.05038 -0.63906,-1.19822 -1.11835,-3.35501 -1.11835,-3.46155 0,-0.3728 0.372781,-0.3728 0.426039,-0.3728 0.372781,0 0.399407,0.05331 0.612426,0.82549 0.612434,2.55624 1.331377,4.28698 2.636121,4.28698 0.61244,0 1.11837,-0.29284 1.11837,-1.65085 0,-0.82549 -0.106544,-1.22488 -0.266257,-1.83729 L 3.480473,3.875063 z M 9.791166,19.45212 c 0.266324,0.95862 1.224884,1.97041 1.890594,2.503 1.25146,1.11833 2.28991,1.38459 2.90238,1.38459 1.4379,0 2.28998,-1.27812 2.28998,-3.38166 0,-2.1302 -1.17164,-6.25746 -1.83735,-7.61547 -1.22481,-2.502931 -2.92897,-3.701227 -4.2604,-3.701227 -2.369798,0 -2.849075,2.982277 -2.849075,3.195297 0,0.07989 0,0.1332 0.106476,0.58582 l 1.757395,7.02965"
               style="fill:#000000;fill-opacity:1;fill-rule:nonzero;stroke:none"
               id="path7872" />
            <path
               inkscape:connector-curvature="0"
               d="m 28.35053,18.78648 c 0,0.66564 -0.02665,0.69229 -0.7456,0.69229 -1.59761,-1.57103 -3.88759,-1.59768 -4.89945,-1.59768 l 0,-0.90532 c 0.58582,0 2.23674,0 3.62133,0.71895 l 0,-12.781184 c 0,-0.825453 0,-1.171608 -2.50293,-1.171608 l -0.95862,0 0,-0.905337 c 0.45269,0.026632 3.54144,0.10651 4.47341,0.10651 0.77219,0 3.9409,-0.079878 4.47341,-0.10651 l 0,0.905337 -0.93196,0 c -2.52959,0 -2.52959,0.346155 -2.52959,1.171608 l 0,13.872944"
               style="fill:#000000;fill-opacity:1;fill-rule:nonzero;stroke:none"
               id="path7874" />
          </g>
        </g>
      </g>
      <g
         id="g8073"
         inkscape:label="p1_eq"
         transform="matrix(0.875,0,0,-0.875,880.38288,134.94294)">
        <g
           id="g8075" />
        <g
           id="g8077">
          <g
             id="g8079"
             clip-path="url(#clipPath8081)">
            <path
               inkscape:connector-curvature="0"
               d="M 3.480473,4.464044 C 3.187576,3.239184 3.134318,2.999532 1.53667,2.999532 c -0.426039,0 -0.8254507,0 -0.8254507,-0.692311 0,-0.292904 0.1863919,-0.426039 0.4792957,-0.426039 0.958589,0 1.997061,0.10651 3.008901,0.10651 1.198234,0 2.396475,-0.10651 3.568097,-0.10651 0.159782,0 0.639059,0 0.639059,0.718943 0,0.399407 -0.372801,0.399407 -0.878732,0.399407 -1.784027,0 -1.784027,0.239652 -1.784027,0.559182 0,0.452665 1.51777,6.284094 1.757443,7.189406 0.479277,-1.038441 1.464484,-2.289974 3.301774,-2.289974 4.1805,0 8.65391,5.245604 8.65391,10.517854 0,3.38173 -2.0503,5.75153 -4.76632,5.75153 -1.81063,0 -3.51479,-1.3047 -4.713019,-2.68936 -0.346149,1.94383 -1.890592,2.68936 -3.221948,2.68936 -1.6509,0 -2.343217,-1.41124 -2.662746,-2.0503 -0.63906,-1.22488 -1.11835,-3.38166 -1.11835,-3.48821 0,-0.34615 0.372781,-0.34615 0.426039,-0.34615 0.372781,0 0.399407,0.02666 0.612426,0.82543 0.612434,2.52965 1.331377,4.26039 2.636121,4.26039 0.61244,0 1.11837,-0.29284 1.11837,-1.65085 0,-0.82549 -0.106544,-1.22488 -0.266257,-1.83729 L 3.480473,4.464044 z M 9.791166,20.0411 c 0.266324,0.98521 1.224884,1.99707 1.890594,2.52965 1.25146,1.11834 2.28991,1.35794 2.90238,1.35794 1.4379,0 2.28998,-1.25146 2.28998,-3.38166 0,-2.10354 -1.17164,-6.23081 -1.83735,-7.61547 -1.22481,-2.50293 -2.92897,-3.674573 -4.2604,-3.674573 -2.369798,0 -2.849075,2.955623 -2.849075,3.195293 0,0.05324 0,0.13313 0.106476,0.55917 l 1.757395,7.02965"
               style="fill:#000000;fill-opacity:1;fill-rule:nonzero;stroke:none"
               id="path8085" />
            <path
               inkscape:connector-curvature="0"
               d="m 28.35053,19.40204 c 0,0.66571 -0.02665,0.6923 -0.7456,0.6923 -1.59761,-1.57096 -3.88759,-1.59762 -4.89945,-1.59762 l 0,-0.90531 c 0.58582,0 2.23674,0 3.62133,0.69229 l 0,-12.781183 c 0,-0.825453 0,-1.144983 -2.50293,-1.144983 l -0.95862,0 0,-0.90533 c 0.45269,0.026625 3.54144,0.10651 4.47341,0.10651 0.77219,0 3.9409,-0.079885 4.47341,-0.10651 l 0,0.90533 -0.93196,0 c -2.52959,0 -2.52959,0.31953 -2.52959,1.144983 l 0,13.899523"
               style="fill:#000000;fill-opacity:1;fill-rule:nonzero;stroke:none"
               id="path8087" />
            <path
               inkscape:connector-curvature="0"
               d="m 70.63497,20.60027 c 0.53238,0 1.22495,0 1.22495,0.71895 0,0.71895 -0.69257,0.71895 -1.19836,0.71895 l -21.48834,0 c -0.50593,0 -1.19822,0 -1.19822,-0.71895 0,-0.71895 0.69229,-0.71895 1.22481,-0.71895 l 21.43516,0 z m 0.02659,-6.97635 c 0.50579,0 1.19836,0 1.19836,0.71889 0,0.71895 -0.69257,0.71895 -1.22495,0.71895 l -21.43516,0 c -0.53252,0 -1.22481,0 -1.22481,-0.71895 0,-0.71889 0.69229,-0.71889 1.19822,-0.71889 l 21.48834,0"
               style="fill:#000000;fill-opacity:1;fill-rule:nonzero;stroke:none"
               id="path8089" />
            <path
               inkscape:connector-curvature="0"
               d="m 100.378,20.33401 c 0,2.8758 -0.1602,5.75153 -1.43833,8.41431 -1.65031,3.4349 -4.57942,4.02072 -6.09748,4.02072 -2.15678,0 -4.76619,-0.93197 -6.25767,-4.28704 -1.14451,-2.47635 -1.33128,-5.27219 -1.33128,-8.14799 0,-2.68936 0.16019,-5.91131 1.6244,-8.65392 1.54465,-2.90238 4.18064,-3.62133 5.93797,-3.62133 1.9441,0 4.65984,0.745534 6.23108,4.15385 1.17111,2.503 1.33131,5.29891 1.33131,8.1214 z M 92.81561,8.8576 c -1.41105,0 -3.51466,0.878664 -4.18064,4.34029 -0.39946,2.15678 -0.39946,5.45862 -0.39946,7.56216 0,2.31656 0,4.68643 0.29312,6.63026 0.69257,4.2604 3.38173,4.57989 4.28698,4.57989 1.17178,0 3.54124,-0.63906 4.23381,-4.20715 0.34628,-1.997 0.34628,-4.73967 0.34628,-7.003 0,-2.68937 0,-5.11247 -0.37287,-7.42904 C 96.46387,9.922699 94.41342,8.8576 92.81561,8.8576"
               style="fill:#000000;fill-opacity:1;fill-rule:nonzero;stroke:none"
               id="path8091" />
            <path
               inkscape:connector-curvature="0"
               d="m 108.6588,10.74812 c 0,1.03845 -0.8521,1.91718 -1.8902,1.91718 -1.0655,0 -1.9176,-0.87873 -1.9176,-1.91718 0,-1.038441 0.8521,-1.89052 1.9176,-1.89052 1.0381,0 1.8902,0.852079 1.8902,1.89052"
               style="fill:#000000;fill-opacity:1;fill-rule:nonzero;stroke:none"
               id="path8093" />
            <path
               inkscape:connector-curvature="0"
               d="m 116.3275,11.62686 3.8078,3.67457 c 5.5917,4.97934 7.7485,6.89652 7.7485,10.4912 0,4.10061 -3.2216,6.97641 -7.6156,6.97641 -4.047,0 -6.7096,-3.30184 -6.7096,-6.49713 0,-2.02365 1.8105,-2.02365 1.9168,-2.02365 0.5863,0 1.8644,0.42604 1.8644,1.91717 0,0.93197 -0.666,1.86394 -1.9175,1.86394 -0.2931,0 -0.3463,0 -0.4526,-0.02665 0.8254,2.31656 2.7696,3.64799 4.8459,3.64799 3.2754,0 4.82,-2.90239 4.82,-5.85808 0,-2.87573 -1.8111,-5.69829 -3.7811,-7.93496 l -6.8964,-7.66871 C 113.5586,9.78957 113.5586,9.709679 113.5586,8.8576 l 13.3136,0 1.0116,6.23081 -0.8787,0 c -0.1861,-1.0651 -0.4526,-2.63613 -0.7989,-3.1953 -0.2659,-0.26625 -2.636,-0.26625 -3.4083,-0.26625 l -6.4704,0"
               style="fill:#000000;fill-opacity:1;fill-rule:nonzero;stroke:none"
               id="path8095" />
            <path
               inkscape:connector-curvature="0"
               d="m 134.2212,11.62686 3.8077,3.67457 c 5.6183,4.97934 7.7485,6.89652 7.7485,10.4912 0,4.10061 -3.2215,6.97641 -7.5883,6.97641 -4.0743,0 -6.7368,-3.30184 -6.7368,-6.49713 0,-2.02365 1.8105,-2.02365 1.9168,-2.02365 0.6128,0 1.8643,0.42604 1.8643,1.91717 0,0.93197 -0.6394,1.86394 -1.9175,1.86394 -0.2665,0 -0.3463,0 -0.4526,-0.02665 0.8255,2.31656 2.7696,3.64799 4.8459,3.64799 3.2754,0 4.8201,-2.90239 4.8201,-5.85808 0,-2.87573 -1.8112,-5.69829 -3.7812,-7.93496 l -6.8964,-7.66871 C 131.4523,9.78957 131.4523,9.709679 131.4523,8.8576 l 13.3401,0 0.985,6.23081 -0.8787,0 c -0.186,-1.0651 -0.426,-2.63613 -0.7989,-3.1953 -0.2392,-0.26625 -2.6094,-0.26625 -3.4083,-0.26625 l -6.4703,0"
               style="fill:#000000;fill-opacity:1;fill-rule:nonzero;stroke:none"
               id="path8097" />
          </g>
        </g>
      </g>
      <g
         id="g8158"
         inkscape:label="gi"
         transform="matrix(0.875,0,0,-0.875,349.0924,446.10236)">
        <g
           id="g8160" />
        <g
           id="g8162">
          <g
             id="g8164"
             clip-path="url(#clipPath8166)">
            <path
               inkscape:connector-curvature="0"
               d="m 26.89527,32.52557 c 0,0.10647 -0.0799,0.37273 -0.39939,0.37273 -0.10654,0 -0.13313,-0.05324 -0.53258,-0.42604 L 23.43371,29.703 c -0.31956,0.50594 -1.97041,3.1953 -5.96455,3.1953 -7.988271,0 -16.082999,-7.93497 -16.082999,-16.26932 0,-5.72495 3.994116,-9.85219 9.798889,-9.85219 1.59768,0 3.19529,0.319529 4.50006,0.878704 1.78405,0.718957 2.47635,1.464492 3.11541,2.183442 0.31956,-0.905317 1.25146,-2.2367 1.62426,-2.2367 0.18644,0 0.23968,0.10651 0.23968,0.159768 0.07989,0.053279 0.45262,1.437873 0.6124,2.183476 l 0.6923,2.76926 c 0.1332,0.6124 0.31956,1.22481 0.47935,1.83728 0.37273,1.59762 0.42603,1.67751 2.47634,1.70416 0.15978,0 0.55917,0.05324 0.55917,0.71895 0,0.26626 -0.18637,0.39939 -0.45269,0.39939 -0.82543,0 -2.95563,-0.10648 -3.78105,-0.10648 -1.11841,0 -3.91425,0.10648 -5.03265,0.10648 -0.3195,0 -0.74554,0 -0.74554,-0.71895 0,-0.39939 0.29291,-0.39939 1.0651,-0.39939 0.05324,0 1.09175,0 1.91718,-0.05324 0.93197,-0.1332 1.11834,-0.21302 1.11834,-0.69236 0,-0.3195 -0.39939,-1.94377 -0.77219,-3.27519 -1.01186,-3.94083 -5.67164,-4.340216 -6.92311,-4.340216 -3.461619,0 -7.216076,2.050306 -7.216076,7.535516 0,1.1184 0.346162,7.0563 4.127258,11.71608 1.943828,2.44976 5.432038,4.63319 8.973478,4.63319 3.67457,0 5.77812,-2.76925 5.77812,-6.9231 0,-1.4379 -0.10648,-1.49114 -0.10648,-1.83729 0,-0.3728 0.39939,-0.3728 0.55917,-0.3728 0.45269,0 0.45269,0.07989 0.63906,0.71895 l 2.26333,9.15985"
               style="fill:#000000;fill-opacity:1;fill-rule:nonzero;stroke:none"
               id="path8170" />
            <path
               inkscape:connector-curvature="0"
               d="m 35.92198,17.82721 c 0,0.39938 -0.31956,0.95855 -1.01186,0.95855 -0.66564,0 -1.41124,-0.63906 -1.41124,-1.38459 0,-0.42604 0.34614,-0.93197 1.01186,-0.93197 0.71895,0 1.41124,0.6923 1.41124,1.35801 z M 30.80951,5.099258 C 30.70297,4.779729 30.56984,4.486825 30.56984,4.060785 c 0,-1.198234 1.01186,-2.130196 2.39652,-2.130196 2.50293,0 3.59468,3.461573 3.59468,3.834354 0,0.31953 -0.31956,0.31953 -0.39938,0.31953 -0.34622,0 -0.37281,-0.159762 -0.47935,-0.42604 -0.55917,-1.997061 -1.6775,-3.035527 -2.66271,-3.035527 -0.47928,0 -0.61248,0.31953 -0.61248,0.878704 0,0.585801 0.18644,1.038473 0.39946,1.597648 0.2396,0.692311 0.53251,1.358002 0.79884,1.997061 0.2396,0.612427 1.11834,2.902399 1.22481,3.195311 0.07989,0.2396 0.15978,0.55917 0.15978,0.79884 0,1.17157 -1.01186,2.1302 -2.39645,2.1302 -2.47635,0 -3.62134,-3.408319 -3.62134,-3.834358 0,-0.319564 0.34615,-0.319564 0.42604,-0.319564 0.34615,0 0.37281,0.133129 0.45263,0.399386 0.63906,2.156846 1.75746,3.062166 2.68943,3.062166 0.39939,0 0.61241,-0.21302 0.61241,-0.87866 0,-0.58582 -0.13313,-0.95863 -0.77219,-2.503001 L 30.80951,5.099258"
               style="fill:#000000;fill-opacity:1;fill-rule:nonzero;stroke:none"
               id="path8172" />
          </g>
        </g>
      </g>
      <g
         id="g8209"
         inkscape:label="gi_eq"
         transform="matrix(0.875,0,0,-0.875,832.12129,450.36582)">
        <g
           id="g8211" />
        <g
           id="g8213">
          <g
             id="g8215"
             clip-path="url(#clipPath8217)">
            <path
               inkscape:connector-curvature="0"
               d="m 26.89527,32.52557 c 0,0.10647 -0.0799,0.37273 -0.39939,0.37273 -0.10654,0 -0.13313,-0.05324 -0.53258,-0.42604 L 23.43371,29.703 c -0.31956,0.50594 -1.97041,3.1953 -5.96455,3.1953 -7.988271,0 -16.082999,-7.93497 -16.082999,-16.26932 0,-5.72495 3.994116,-9.85219 9.798889,-9.85219 1.59768,0 3.19529,0.319529 4.50006,0.878704 1.78405,0.718957 2.47635,1.464492 3.11541,2.183442 0.31956,-0.905317 1.25146,-2.2367 1.62426,-2.2367 0.18644,0 0.23968,0.10651 0.23968,0.159768 0.07989,0.053279 0.45262,1.437873 0.6124,2.183476 l 0.6923,2.76926 c 0.1332,0.6124 0.31956,1.22481 0.47935,1.83728 0.37273,1.59762 0.42603,1.67751 2.47634,1.70416 0.15978,0 0.55917,0.05324 0.55917,0.71895 0,0.26626 -0.18637,0.39939 -0.45269,0.39939 -0.82543,0 -2.95563,-0.10648 -3.78105,-0.10648 -1.11841,0 -3.91425,0.10648 -5.03265,0.10648 -0.3195,0 -0.74554,0 -0.74554,-0.71895 0,-0.39939 0.29291,-0.39939 1.0651,-0.39939 0.05324,0 1.09175,0 1.91718,-0.05324 0.93197,-0.1332 1.11834,-0.21302 1.11834,-0.69236 0,-0.3195 -0.39939,-1.94377 -0.77219,-3.27519 -1.01186,-3.94083 -5.67164,-4.340216 -6.92311,-4.340216 -3.461619,0 -7.216076,2.050306 -7.216076,7.535516 0,1.1184 0.346162,7.0563 4.127258,11.71608 1.943828,2.44976 5.432038,4.63319 8.973478,4.63319 3.67457,0 5.77812,-2.76925 5.77812,-6.9231 0,-1.4379 -0.10648,-1.49114 -0.10648,-1.83729 0,-0.3728 0.39939,-0.3728 0.55917,-0.3728 0.45269,0 0.45269,0.07989 0.63906,0.71895 l 2.26333,9.15985"
               style="fill:#000000;fill-opacity:1;fill-rule:nonzero;stroke:none"
               id="path8221" />
            <path
               inkscape:connector-curvature="0"
               d="m 35.92198,17.82721 c 0,0.39938 -0.31956,0.95855 -1.01186,0.95855 -0.66564,0 -1.41124,-0.63906 -1.41124,-1.38459 0,-0.42604 0.34614,-0.93197 1.01186,-0.93197 0.71895,0 1.41124,0.6923 1.41124,1.35801 z M 30.80951,5.099258 C 30.70297,4.779729 30.56984,4.486825 30.56984,4.060785 c 0,-1.198234 1.01186,-2.130196 2.39652,-2.130196 2.50293,0 3.59468,3.461573 3.59468,3.834354 0,0.31953 -0.31956,0.31953 -0.39938,0.31953 -0.34622,0 -0.37281,-0.159762 -0.47935,-0.42604 -0.55917,-1.997061 -1.6775,-3.035527 -2.66271,-3.035527 -0.47928,0 -0.61248,0.31953 -0.61248,0.878704 0,0.585801 0.18644,1.038473 0.39946,1.597648 0.2396,0.692311 0.53251,1.358002 0.79884,1.997061 0.2396,0.612427 1.11834,2.902399 1.22481,3.195311 0.07989,0.2396 0.15978,0.55917 0.15978,0.79884 0,1.17157 -1.01186,2.1302 -2.39645,2.1302 -2.47635,0 -3.62134,-3.408319 -3.62134,-3.834358 0,-0.319564 0.34615,-0.319564 0.42604,-0.319564 0.34615,0 0.37281,0.133129 0.45263,0.399386 0.63906,2.156846 1.75746,3.062166 2.68943,3.062166 0.39939,0 0.61241,-0.21302 0.61241,-0.87866 0,-0.58582 -0.13313,-0.95863 -0.77219,-2.503001 L 30.80951,5.099258"
               style="fill:#000000;fill-opacity:1;fill-rule:nonzero;stroke:none"
               id="path8223" />
            <path
               inkscape:connector-curvature="0"
               d="m 74.37207,19.31835 c 0.53238,0 1.22495,0 1.22495,0.71895 0,0.71888 -0.69257,0.71888 -1.19836,0.71888 l -21.51499,0 c -0.50593,0 -1.17158,0 -1.17158,-0.71888 0,-0.71895 0.66565,-0.71895 1.22482,-0.71895 l 21.43516,0 z m 0.02659,-6.97642 c 0.50579,0 1.19836,0 1.19836,0.71895 0,0.71895 -0.69257,0.71895 -1.22495,0.71895 l -21.43516,0 c -0.55917,0 -1.22482,0 -1.22482,-0.71895 0,-0.71895 0.66565,-0.71895 1.17158,-0.71895 l 21.51499,0"
               style="fill:#000000;fill-opacity:1;fill-rule:nonzero;stroke:none"
               id="path8225" />
            <path
               inkscape:connector-curvature="0"
               d="m 92.15939,10.34487 3.80776,3.70122 c 5.59165,4.95269 7.74845,6.89652 7.74845,10.46462 0,4.10061 -3.2222,6.97634 -7.61552,6.97634 -4.04772,0 -6.71029,-3.30177 -6.71029,-6.49706 0,-1.99707 1.78391,-1.99707 1.89093,-1.99707 0.61214,0 1.89025,0.42604 1.89025,1.89052 0,0.93197 -0.6653,1.86394 -1.91683,1.86394 -0.29312,0 -0.34629,0 -0.45263,-0.02665 0.82481,2.31663 2.74233,3.64799 4.84594,3.64799 3.24881,0 4.79275,-2.90239 4.79275,-5.85801 0,-2.84915 -1.78388,-5.69829 -3.75457,-7.93503 L 89.78924,8.906966 C 89.38979,8.50758 89.38979,8.427689 89.38979,7.57561 l 13.31351,0 1.0123,6.25746 -0.9052,0 c -0.1602,-1.09175 -0.4261,-2.66278 -0.7724,-3.19529 -0.2665,-0.29291 -2.63595,-0.29291 -3.40827,-0.29291 l -6.47034,0"
               style="fill:#000000;fill-opacity:1;fill-rule:nonzero;stroke:none"
               id="path8227" />
          </g>
        </g>
      </g>
      <g
         id="g8266"
         inkscape:label="yi1_eq0"
         transform="matrix(0.875,0,0,-0.875,700.69619,316.97044)">
        <g
           id="g8268" />
        <g
           id="g8270">
          <g
             id="g8272"
             clip-path="url(#clipPath8274)">
            <path
               inkscape:connector-curvature="0"
               d="m 21.69754,31.26509 0.50593,0.50593 c 1.09175,1.0651 2.26333,2.28998 4.71309,2.47635 0.39939,0.02665 0.71895,0.02665 0.71895,0.66571 0,0.29291 -0.18644,0.45269 -0.47935,0.45269 -0.9319,0 -1.97041,-0.13319 -2.92897,-0.13319 -1.19822,0 -2.44976,0.13319 -3.59475,0.13319 -0.21302,0 -0.69229,0 -0.69229,-0.69236 0,-0.39939 0.3728,-0.42604 0.55917,-0.42604 0.23967,0 1.27811,-0.07989 1.27811,-0.82543 0,-0.6124 -0.82542,-1.54437 -0.95855,-1.73081 L 12.48446,22.10525 8.516975,32.75623 c -0.21302,0.50593 -0.21302,0.58582 -0.21302,0.61247 0,0.87867 1.757395,0.87867 2.130195,0.87867 0.50593,0 0.85208,0 0.85208,0.71895 0,0.39945 -0.42604,0.39945 -0.53258,0.39945 -1.011795,0 -3.5148,-0.13319 -4.526647,-0.13319 -0.90533,0 -3.115411,0.13319 -4.020742,0.13319 -0.213019,0 -0.692317,0 -0.692317,-0.71895 0,-0.39945 0.372788,-0.39945 0.825453,-0.39945 2.156823,0 2.316591,-0.3195 2.63612,-1.22481 L 9.395706,21.19993 c 0.026585,-0.10648 0.133129,-0.50593 0.133129,-0.61241 0,-0.10654 -1.4379,-5.88466 -1.597682,-6.52372 -0.479284,-1.97048 -0.505909,-2.07696 -3.381675,-2.13019 -0.692318,0 -0.985221,0 -0.985221,-0.71895 0,-0.39946 0.426039,-0.39946 0.505923,-0.39946 1.011847,0 3.514825,0.10655 4.526686,0.10655 1.01186,0 3.594684,-0.10655 4.606544,-0.10655 0.23967,0 0.66571,0 0.66571,0.71895 0,0.39946 -0.31956,0.39946 -0.98528,0.39946 -0.07982,0 -0.77218,0 -1.38459,0.07982 -0.7456,0.07989 -0.95862,0.1332 -0.95862,0.55924 0,0.26625 0.31956,1.51772 0.50593,2.26332 l 1.25153,5.08582 c 0.18637,0.66571 0.21302,0.77219 0.50593,1.09175 l 8.89352,10.25153"
               style="fill:#000000;fill-opacity:1;fill-rule:nonzero;stroke:none"
               id="path8278" />
            <path
               inkscape:connector-curvature="0"
               d="m 29.17988,21.19993 c 0,0.39939 -0.29291,0.93197 -0.9852,0.93197 -0.6923,0 -1.41125,-0.63906 -1.41125,-1.35801 0,-0.42604 0.3195,-0.95855 1.01179,-0.95855 0.71895,0 1.38466,0.69229 1.38466,1.38459 z M 24.06741,8.445401 C 23.98752,8.125838 23.85439,7.832927 23.85439,7.406888 c 0,-1.171588 0.98521,-2.130177 2.36987,-2.130177 2.50293,0 3.62134,3.461601 3.62134,3.834334 0,0.319564 -0.31957,0.319564 -0.39946,0.319564 -0.34615,0 -0.3728,-0.159782 -0.47928,-0.42604 -0.58582,-1.997075 -1.6775,-3.035547 -2.66278,-3.035547 -0.50586,0 -0.6124,0.319529 -0.6124,0.878704 0,0.585815 0.15978,1.065092 0.39938,1.597675 0.23968,0.692297 0.50594,1.358009 0.79885,2.023649 0.21302,0.58583 1.11833,2.8758 1.22488,3.16871 0.07989,0.26626 0.15978,0.55917 0.15978,0.79878 0,1.19822 -1.01186,2.13019 -2.39652,2.13019 -2.47635,0 -3.62134,-3.40831 -3.62134,-3.83435 0,-0.3195 0.34622,-0.3195 0.42604,-0.3195 0.34622,0 0.3728,0.13313 0.45269,0.39939 0.63906,2.15685 1.73081,3.06217 2.66278,3.06217 0.39939,0 0.63906,-0.21302 0.63906,-0.87873 0,-0.58576 -0.15978,-0.95856 -0.77225,-2.50293 L 24.06741,8.445401"
               style="fill:#000000;fill-opacity:1;fill-rule:nonzero;stroke:none"
               id="path8280" />
            <path
               inkscape:connector-curvature="0"
               d="m 36.55568,5.91577 c 0,-1.358002 -0.23967,-2.982275 -1.94383,-4.579923 -0.10647,-0.10651 -0.18636,-0.159768 -0.18636,-0.292904 0,-0.1863938 0.21302,-0.3461585 0.34614,-0.3461585 0.34615,0 2.47635,1.9970575 2.47635,4.9793335 0,1.544403 -0.58575,2.74263 -1.73074,2.74263 -0.85208,0 -1.4379,-0.665712 -1.4379,-1.437879 0,-0.798828 0.55917,-1.464512 1.4379,-1.464512 0.6124,0 1.01179,0.399413 1.03844,0.399413"
               style="fill:#000000;fill-opacity:1;fill-rule:nonzero;stroke:none"
               id="path8282" />
            <path
               inkscape:connector-curvature="0"
               d="m 48.16529,21.46619 c 0,0.66571 -0.05331,0.69236 -0.7456,0.69236 -1.59762,-1.57103 -3.8876,-1.59768 -4.92611,-1.59768 l 0,-0.90532 c 0.61247,0 2.26339,0 3.64799,0.71895 l 0,-12.807831 c 0,-0.825453 0,-1.144982 -2.503,-1.144982 l -0.95855,0 0,-0.90533 c 0.45262,0.026625 3.54144,0.106509 4.44676,0.106509 0.79884,0 3.94089,-0.079884 4.50006,-0.106509 l 0,0.90533 -0.95862,0 c -2.50293,0 -2.50293,0.319529 -2.50293,1.144982 l 0,13.899521"
               style="fill:#000000;fill-opacity:1;fill-rule:nonzero;stroke:none"
               id="path8284" />
            <path
               inkscape:connector-curvature="0"
               d="m 90.45,22.55794 c 0.53238,0 1.22427,0 1.22427,0.71895 0,0.71895 -0.69189,0.71895 -1.19768,0.71895 l -21.51533,0 c -0.50586,0 -1.17157,0 -1.17157,-0.71895 0,-0.71895 0.66571,-0.71895 1.19815,-0.71895 l 21.46216,0 z m 0.02659,-6.94976 c 0.50579,0 1.19768,0 1.19768,0.71895 0,0.71895 -0.69189,0.71895 -1.22427,0.71895 l -21.46216,0 c -0.53244,0 -1.19815,0 -1.19815,-0.71895 0,-0.71895 0.66571,-0.71895 1.17157,-0.71895 l 21.51533,0"
               style="fill:#000000;fill-opacity:1;fill-rule:nonzero;stroke:none"
               id="path8286" />
            <path
               inkscape:connector-curvature="0"
               d="m 120.1923,22.31827 c 0,2.8758 -0.1861,5.75153 -1.4376,8.41431 -1.651,3.4349 -4.6067,4.02072 -6.0975,4.02072 -2.1568,0 -4.7934,-0.93197 -6.2576,-4.28698 -1.1452,-2.47641 -1.3313,-5.27225 -1.3313,-8.14805 0,-2.68937 0.1329,-5.9379 1.6244,-8.65392 1.5439,-2.90239 4.1533,-3.62134 5.9114,-3.62134 1.9434,0 4.6864,0.74561 6.2569,4.15392 1.1452,2.47635 1.3313,5.27219 1.3313,8.12134 z M 112.6041,10.8152 c -1.3852,0 -3.5154,0.90539 -4.1541,4.36694 -0.3995,2.1302 -0.3995,5.45862 -0.3995,7.56217 0,2.28997 0,4.65984 0.2932,6.60361 0.6653,4.28704 3.381,4.60654 4.2604,4.60654 1.1976,0 3.5678,-0.63906 4.2331,-4.20709 0.3728,-1.99707 0.3728,-4.73974 0.3728,-7.00306 0,-2.68937 0,-5.13906 -0.3994,-7.42904 -0.5324,-3.40832 -2.5828,-4.50007 -4.2065,-4.50007"
               style="fill:#000000;fill-opacity:1;fill-rule:nonzero;stroke:none"
               id="path8288" />
          </g>
        </g>
      </g>
      <g
         id="g8348"
         inkscape:label="y2_eq1"
         transform="matrix(0.875,0,0,-0.875,901.06513,245.97977)">
        <g
           id="g8350" />
        <g
           id="g8352">
          <g
             id="g8354"
             clip-path="url(#clipPath8356)">
            <path
               inkscape:connector-curvature="0"
               d="m 21.69754,31.26509 0.50593,0.50593 c 1.09175,1.0651 2.26333,2.28998 4.71309,2.47635 0.39939,0.02665 0.71895,0.02665 0.71895,0.66571 0,0.29291 -0.18644,0.45269 -0.47935,0.45269 -0.9319,0 -1.97041,-0.13319 -2.92897,-0.13319 -1.19822,0 -2.44976,0.13319 -3.59475,0.13319 -0.21302,0 -0.69229,0 -0.69229,-0.69236 0,-0.39939 0.3728,-0.42604 0.55917,-0.42604 0.23967,0 1.27811,-0.07989 1.27811,-0.82543 0,-0.6124 -0.82542,-1.54437 -0.95855,-1.73081 L 12.48446,22.10525 8.516975,32.75623 c -0.21302,0.50593 -0.21302,0.58582 -0.21302,0.61247 0,0.87867 1.757395,0.87867 2.130195,0.87867 0.50593,0 0.85208,0 0.85208,0.71895 0,0.39945 -0.42604,0.39945 -0.53258,0.39945 -1.011795,0 -3.5148,-0.13319 -4.526647,-0.13319 -0.90533,0 -3.115411,0.13319 -4.020742,0.13319 -0.213019,0 -0.692317,0 -0.692317,-0.71895 0,-0.39945 0.372788,-0.39945 0.825453,-0.39945 2.156823,0 2.316591,-0.3195 2.63612,-1.22481 L 9.395706,21.19993 c 0.026585,-0.10648 0.133129,-0.50593 0.133129,-0.61241 0,-0.10654 -1.4379,-5.88466 -1.597682,-6.52372 -0.479284,-1.97048 -0.505909,-2.07696 -3.381675,-2.13019 -0.692318,0 -0.985221,0 -0.985221,-0.71895 0,-0.39946 0.426039,-0.39946 0.505923,-0.39946 1.011847,0 3.514825,0.10655 4.526686,0.10655 1.01186,0 3.594684,-0.10655 4.606544,-0.10655 0.23967,0 0.66571,0 0.66571,0.71895 0,0.39946 -0.31956,0.39946 -0.98528,0.39946 -0.07982,0 -0.77218,0 -1.38459,0.07982 -0.7456,0.07989 -0.95862,0.1332 -0.95862,0.55924 0,0.26625 0.31956,1.51772 0.50593,2.26332 l 1.25153,5.08582 c 0.18637,0.66571 0.21302,0.77219 0.50593,1.09175 l 8.89352,10.25153"
               style="fill:#000000;fill-opacity:1;fill-rule:nonzero;stroke:none"
               id="path8360" />
            <path
               inkscape:connector-curvature="0"
               d="m 29.17988,21.19993 c 0,0.39939 -0.29291,0.93197 -0.9852,0.93197 -0.6923,0 -1.41125,-0.63906 -1.41125,-1.35801 0,-0.42604 0.3195,-0.95855 1.01179,-0.95855 0.71895,0 1.38466,0.69229 1.38466,1.38459 z M 24.06741,8.445401 C 23.98752,8.125838 23.85439,7.832927 23.85439,7.406888 c 0,-1.171588 0.98521,-2.130177 2.36987,-2.130177 2.50293,0 3.62134,3.461601 3.62134,3.834334 0,0.319564 -0.31957,0.319564 -0.39946,0.319564 -0.34615,0 -0.3728,-0.159782 -0.47928,-0.42604 -0.58582,-1.997075 -1.6775,-3.035547 -2.66278,-3.035547 -0.50586,0 -0.6124,0.319529 -0.6124,0.878704 0,0.585815 0.15978,1.065092 0.39938,1.597675 0.23968,0.692297 0.50594,1.358009 0.79885,2.023649 0.21302,0.58583 1.11833,2.8758 1.22488,3.16871 0.07989,0.26626 0.15978,0.55917 0.15978,0.79878 0,1.19822 -1.01186,2.13019 -2.39652,2.13019 -2.47635,0 -3.62134,-3.40831 -3.62134,-3.83435 0,-0.3195 0.34622,-0.3195 0.42604,-0.3195 0.34622,0 0.3728,0.13313 0.45269,0.39939 0.63906,2.15685 1.73081,3.06217 2.66278,3.06217 0.39939,0 0.63906,-0.21302 0.63906,-0.87873 0,-0.58576 -0.15978,-0.95856 -0.77225,-2.50293 L 24.06741,8.445401"
               style="fill:#000000;fill-opacity:1;fill-rule:nonzero;stroke:none"
               id="path8362" />
            <path
               inkscape:connector-curvature="0"
               d="m 36.55568,5.91577 c 0,-1.358002 -0.23967,-2.982275 -1.94383,-4.579923 -0.10647,-0.10651 -0.18636,-0.159768 -0.18636,-0.292904 0,-0.1863938 0.21302,-0.3461585 0.34614,-0.3461585 0.34615,0 2.47635,1.9970575 2.47635,4.9793335 0,1.544403 -0.58575,2.74263 -1.73074,2.74263 -0.85208,0 -1.4379,-0.665712 -1.4379,-1.437879 0,-0.798828 0.55917,-1.464512 1.4379,-1.464512 0.6124,0 1.01179,0.399413 1.03844,0.399413"
               style="fill:#000000;fill-opacity:1;fill-rule:nonzero;stroke:none"
               id="path8364" />
            <path
               inkscape:connector-curvature="0"
               d="m 52.42568,10.09625 -0.85208,0 C 51.49371,9.537084 51.25404,8.045947 50.93455,7.806342 50.72153,7.64656 48.80435,7.64656 48.43155,7.64656 l -4.60655,0 c 2.63613,2.343217 3.5148,3.03551 5.00593,4.20716 1.86394,1.49113 3.59475,3.03551 3.59475,5.43196 0,3.03552 -2.66278,4.87287 -5.85807,4.87287 -3.11541,0 -5.21895,-2.1835 -5.21895,-4.47341 0,-1.27812 1.0651,-1.41132 1.33136,-1.41132 0.58582,0 1.33135,0.42604 1.33135,1.33143 0,0.45262 -0.18637,1.33135 -1.49114,1.33135 0.77219,1.78405 2.47635,2.31657 3.67458,2.31657 2.50299,0 3.80777,-1.94376 3.80777,-3.96749 0,-2.18343 -1.57103,-3.91424 -2.36987,-4.81956 L 41.58826,6.501571 C 41.34866,6.288551 41.34866,6.2353 41.34866,5.516357 l 10.33142,0 0.7456,4.579893"
               style="fill:#000000;fill-opacity:1;fill-rule:nonzero;stroke:none"
               id="path8366" />
            <path
               inkscape:connector-curvature="0"
               d="m 90.45,22.55794 c 0.53238,0 1.22427,0 1.22427,0.71895 0,0.71895 -0.69189,0.71895 -1.19768,0.71895 l -21.51533,0 c -0.50586,0 -1.17157,0 -1.17157,-0.71895 0,-0.71895 0.66571,-0.71895 1.19815,-0.71895 l 21.46216,0 z m 0.02659,-6.94976 c 0.50579,0 1.19768,0 1.19768,0.71895 0,0.71895 -0.69189,0.71895 -1.22427,0.71895 l -21.46216,0 c -0.53244,0 -1.19815,0 -1.19815,-0.71895 0,-0.71895 0.66571,-0.71895 1.17157,-0.71895 l 21.51533,0"
               style="fill:#000000;fill-opacity:1;fill-rule:nonzero;stroke:none"
               id="path8368" />
            <path
               inkscape:connector-curvature="0"
               d="m 114.2278,33.82133 c 0,0.85208 0,0.93197 -0.8255,0.93197 -2.2366,-2.31657 -5.3783,-2.31657 -6.5501,-2.31657 l 0,-1.11833 c 0.7191,0 2.8493,0 4.713,0.95855 l 0,-18.6126 c 0,-1.3047 -0.1063,-1.73074 -3.3286,-1.73074 l -1.1445,0 0,-1.11841 c 1.2516,0.10655 4.3668,0.10655 5.8044,0.10655 1.4383,0 4.5535,0 5.8316,-0.10655 l 0,1.11841 -1.1718,0 c -3.2215,0 -3.3285,0.39938 -3.3285,1.73074 l 0,20.15698"
               style="fill:#000000;fill-opacity:1;fill-rule:nonzero;stroke:none"
               id="path8370" />
          </g>
        </g>
      </g>
      <g
         id="g8430"
         inkscape:label="m"
         transform="matrix(0.875,0,0,-0.875,561.98382,239.78556)">
        <g
           id="g8432" />
        <g
           id="g8434">
          <g
             id="g8436"
             clip-path="url(#clipPath8438)">
            <path
               inkscape:connector-curvature="0"
               d="M 3.215965,3.290711 C 3.109455,2.731529 2.896436,1.906083 2.896436,1.746315 c 0,-0.665685 0.505923,-0.9852157 1.038472,-0.9852157 0.42604,0 1.065099,0.2929047 1.33137,1.0118417 C 5.29291,1.852825 5.71895,3.530357 5.93197,4.435687 l 0.79882,3.221907 c 0.21302,0.798841 0.426039,1.597682 0.612433,2.423106 0.13317,0.58582 0.426012,1.65092 0.479318,1.78405 0.532516,1.11834 2.423109,4.39352 5.831419,4.39352 1.62427,0 1.94377,-1.33135 1.94377,-2.52958 0,-0.90532 -0.23961,-1.89059 -0.53252,-2.98228 L 14.05335,6.592516 13.3344,3.849886 C 13.20127,3.130943 12.88171,1.906083 12.88171,1.746315 c 0,-0.665685 0.50593,-0.9852157 1.03851,-0.9852157 1.11834,0 1.33136,0.9053317 1.62427,2.0503137 0.47928,2.023687 1.81063,7.269287 2.13019,8.653947 0.13313,0.47928 2.02366,4.79291 5.9379,4.79291 1.54445,0 1.94383,-1.22488 1.94383,-2.52958 0,-2.05031 -1.51779,-6.150987 -2.23674,-8.041511 C 23.00018,4.8351 22.86705,4.435687 22.86705,3.71675 c 0,-1.704157 1.25146,-2.9556507 2.92904,-2.9556507 3.38166,0 4.71301,5.2456097 4.71301,5.5385127 0,0.346156 -0.31949,0.346156 -0.42604,0.346156 -0.3728,0 -0.3728,-0.10651 -0.53251,-0.639059 -0.55917,-1.890552 -1.70416,-4.446788 -3.67464,-4.446788 -0.61241,0 -0.85208,0.346162 -0.85208,1.171608 0,0.905337 0.31956,1.784042 0.63906,2.556237 0.69236,1.863925 2.1835,5.858034 2.1835,7.908344 0,2.34321 -1.4379,3.83435 -4.12726,3.83435 -2.68937,0 -4.52665,-1.57103 -5.85808,-3.48821 -0.02658,0.47935 -0.13313,1.70416 -1.14499,2.55624 -0.90531,0.7456 -2.0503,0.93197 -2.95562,0.93197 -3.22195,0 -4.979344,-2.28991 -5.59175,-3.1154 -0.186435,2.0503 -1.677545,3.1154 -3.301819,3.1154 -1.650906,0 -2.343216,-1.38459 -2.662746,-2.05031 -0.639059,-1.25146 -1.118357,-3.35507 -1.118357,-3.46155 0,-0.3728 0.372788,-0.3728 0.42604,-0.3728 0.372787,0 0.399413,0.02665 0.612433,0.82549 0.612433,2.55624 1.33137,4.28698 2.63612,4.28698 0.585801,0 1.11835,-0.29291 1.11835,-1.6775 0,-0.7456 -0.10651,-1.14499 -0.585801,-3.00893 L 3.215965,3.290711"
               style="fill:#000000;fill-opacity:1;fill-rule:nonzero;stroke:none"
               id="path8442" />
          </g>
        </g>
      </g>
      <g
         id="g8478"
         inkscape:label="m_eq"
         transform="matrix(0.875,0,0,-0.875,1029.9432,306.90467)">
        <g
           id="g8480" />
        <g
           id="g8482">
          <g
             id="g8484"
             clip-path="url(#clipPath8486)">
            <path
               inkscape:connector-curvature="0"
               d="M 3.215965,4.176404 C 3.109455,3.643855 2.896436,2.818402 2.896436,2.632008 c 0,-0.639059 0.505923,-0.958588 1.038472,-0.958588 0.42604,0 1.065099,0.266278 1.33137,0.985221 C 5.29291,2.738518 5.71895,4.41605 5.93197,5.321387 l 0.79882,3.221928 c 0.21302,0.798841 0.426039,1.597615 0.612433,2.423105 0.13317,0.61241 0.426012,1.65092 0.479318,1.78405 0.532516,1.11834 2.423109,4.39352 5.831419,4.39352 1.62427,0 1.94377,-1.33135 1.94377,-2.52965 0,-0.87866 -0.23961,-1.89052 -0.53252,-2.98227 L 14.05335,7.478216 13.3344,4.762205 C 13.20127,4.043269 12.88171,2.818402 12.88171,2.632008 c 0,-0.639059 0.50593,-0.958588 1.03851,-0.958588 1.11834,0 1.33136,0.878711 1.62427,2.023687 0.47928,2.023687 1.81063,7.269313 2.13019,8.653913 0.13313,0.47934 2.02366,4.79297 5.9379,4.79297 1.54445,0 1.94383,-1.22488 1.94383,-2.52965 0,-2.02365 -1.51779,-6.124263 -2.23674,-8.041468 -0.31949,-0.852078 -0.45262,-1.251485 -0.45262,-1.970428 0,-1.677532 1.25146,-2.929024 2.92904,-2.929024 3.38166,0 4.71301,5.218982 4.71301,5.511886 0,0.372801 -0.31949,0.372801 -0.42604,0.372801 -0.3728,0 -0.3728,-0.106544 -0.53251,-0.665705 -0.55917,-1.890545 -1.70416,-4.446781 -3.67464,-4.446781 -0.61241,0 -0.85208,0.372781 -0.85208,1.198234 0,0.878705 0.31956,1.757409 0.63906,2.529611 0.69236,1.890571 2.1835,5.858054 2.1835,7.908364 0,2.34321 -1.4379,3.83435 -4.12726,3.83435 -2.68937,0 -4.52665,-1.57103 -5.85808,-3.46155 -0.02658,0.45262 -0.13313,1.6775 -1.14499,2.52958 -0.90531,0.77219 -2.0503,0.93197 -2.95562,0.93197 -3.22195,0 -4.979344,-2.28998 -5.59175,-3.1154 -0.186435,2.0503 -1.677545,3.1154 -3.301819,3.1154 -1.650906,0 -2.343216,-1.38466 -2.662746,-2.02372 -0.639059,-1.27812 -1.118357,-3.38166 -1.118357,-3.48814 0,-0.3728 0.372788,-0.3728 0.42604,-0.3728 0.372787,0 0.399413,0.05324 0.612433,0.82543 0.612433,2.55623 1.33137,4.28704 2.63612,4.28704 0.585801,0 1.11835,-0.29291 1.11835,-1.65092 0,-0.77218 -0.10651,-1.14499 -0.585801,-3.00893 L 3.215965,4.176404"
               style="fill:#000000;fill-opacity:1;fill-rule:nonzero;stroke:none"
               id="path8490" />
            <path
               inkscape:connector-curvature="0"
               d="m 66.21652,13.78892 c 0.55917,0 1.22488,0 1.22488,0.71895 0,0.71895 -0.66571,0.71895 -1.17157,0.71895 l -21.51499,0 c -0.50593,0 -1.1983,0 -1.1983,-0.71895 0,-0.71895 0.69237,-0.71895 1.22488,-0.71895 l 21.4351,0 z m 0.05331,-6.94977 c 0.50586,0 1.17157,0 1.17157,0.718957 0,0.71895 -0.66571,0.71895 -1.22488,0.71895 l -21.4351,0 c -0.53251,0 -1.22488,0 -1.22488,-0.71895 0,-0.718957 0.69237,-0.718957 1.1983,-0.718957 l 21.51499,0"
               style="fill:#000000;fill-opacity:1;fill-rule:nonzero;stroke:none"
               id="path8492" />
            <path
               inkscape:connector-curvature="0"
               d="m 95.8797,13.54924 c 0,2.8758 -0.18678,5.75153 -1.43831,8.41432 -1.65031,3.43496 -4.606,4.02072 -6.09747,4.02072 -2.15679,0 -4.79278,-0.93197 -6.25767,-4.28698 -1.14451,-2.47635 -1.33129,-5.27226 -1.33129,-8.14806 0,-2.68936 0.13361,-5.937895 1.6244,-8.653893 1.54465,-2.902398 4.15406,-3.621334 5.91139,-3.621334 1.9441,0 4.68643,0.745569 6.25766,4.153884 1.14451,2.476359 1.33129,5.272263 1.33129,8.121343 z M 88.29075,2.046207 c -1.38446,0 -3.51466,0.905331 -4.15406,4.366904 -0.39945,2.130204 -0.39945,5.458629 -0.39945,7.562169 0,2.28998 0,4.65985 0.29311,6.60361 0.66599,4.28705 3.35515,4.60661 4.2604,4.60661 1.19836,0 3.56782,-0.63906 4.2338,-4.20715 0.37287,-1.99707 0.37287,-4.73967 0.37287,-7.00307 0,-2.68936 0,-5.139055 -0.39945,-7.429033 -0.53238,-3.408315 -2.58282,-4.50004 -4.20722,-4.50004"
               style="fill:#000000;fill-opacity:1;fill-rule:nonzero;stroke:none"
               id="path8494" />
            <path
               inkscape:connector-curvature="0"
               d="m 104.2403,3.963385 c 0,1.038472 -0.8521,1.890551 -1.8903,1.890551 -1.0381,0 -1.9175,-0.852079 -1.9175,-1.890551 0,-1.038473 0.8794,-1.917178 1.9175,-1.917178 1.0382,0 1.8903,0.878705 1.8903,1.917178"
               style="fill:#000000;fill-opacity:1;fill-rule:nonzero;stroke:none"
               id="path8496" />
            <path
               inkscape:connector-curvature="0"
               d="m 117.6609,14.69423 c 2.9557,0.98521 5.0327,3.48821 5.0327,6.3107 0,2.95569 -3.1691,4.97935 -6.604,4.97935 -3.6209,0 -6.364,-2.15679 -6.364,-4.89946 0,-1.17157 0.7989,-1.86387 1.8378,-1.86387 1.1179,0 1.8371,0.79877 1.8371,1.83729 0,1.78405 -1.7042,1.78405 -2.2366,1.78405 1.118,1.75739 3.4881,2.23667 4.7928,2.23667 1.4642,0 3.4349,-0.79884 3.4349,-4.02072 0,-0.42604 -0.0797,-2.52965 -1.0116,-4.10068 -1.0654,-1.73074 -2.2904,-1.83729 -3.1956,-1.86387 -0.2931,-0.02666 -1.1452,-0.10655 -1.3845,-0.10655 -0.2931,-0.02658 -0.5589,-0.07989 -0.5589,-0.42604 0,-0.39938 0.2658,-0.39938 0.8786,-0.39938 l 1.5706,0 c 2.9557,0 4.287,-2.44976 4.287,-5.964554 0,-4.87284 -2.4758,-5.937939 -4.0736,-5.937939 -1.5447,0 -4.2339,0.612433 -5.4854,2.74263 1.2515,-0.186394 2.3695,0.612427 2.3695,1.970429 0,1.304771 -0.985,2.023721 -2.0232,2.023721 -0.8521,0 -1.9973,-0.50593 -1.9973,-2.103605 0,-3.248547 3.3286,-5.618389 7.2427,-5.618389 4.3933,0 7.6687,3.248547 7.6687,6.923153 0,2.955624 -2.2631,5.751534 -6.0177,6.497064"
               style="fill:#000000;fill-opacity:1;fill-rule:nonzero;stroke:none"
               id="path8498" />
            <path
               inkscape:connector-curvature="0"
               d="m 141.2791,9.262265 c 0,4.286975 -2.9557,7.881725 -6.8166,7.881725 -1.7307,0 -3.2747,-0.58582 -4.5794,-1.83728 l 0,7.00299 c 0.7185,-0.21302 1.9168,-0.45269 3.062,-0.45269 4.4199,0 6.923,3.2486 6.923,3.72788 0,0.21302 -0.1063,0.39939 -0.3463,0.39939 -0.0266,0 -0.1063,0 -0.2924,-0.10648 -0.7192,-0.34615 -2.4765,-1.0651 -4.8732,-1.0651 -1.4377,0 -3.0886,0.26626 -4.7928,1.01186 -0.2931,0.10648 -0.3463,0.10648 -0.426,0.10648 -0.3463,0 -0.3463,-0.29291 -0.3463,-0.85208 l 0,-10.62433 c 0,-0.66571 0,-0.93197 0.4792,-0.93197 0.2665,0 0.3463,0.10647 0.4792,0.31949 0.3994,0.55917 1.7307,2.503 4.6333,2.503 1.8643,0 2.7695,-1.65092 3.062,-2.28998 0.5596,-1.33135 0.6394,-2.7426 0.6394,-4.526648 0,-1.251465 0,-3.408315 -0.8521,-4.926078 -0.8787,-1.384628 -2.2099,-2.343217 -3.8609,-2.343217 -2.6094,0 -4.6599,1.917177 -5.2727,4.020748 0.107,-0.026632 0.2134,-0.053258 0.6128,-0.053258 1.1718,0 1.7839,0.905351 1.7839,1.75743 0,0.852078 -0.6121,1.757395 -1.7839,1.757395 -0.5058,0 -1.7573,-0.239673 -1.7573,-1.890524 0,-3.088813 2.4765,-6.577005 6.4969,-6.577005 4.1541,0 7.8282,3.434941 7.8282,7.988252"
               style="fill:#000000;fill-opacity:1;fill-rule:nonzero;stroke:none"
               id="path8500" />
          </g>
        </g>
      </g>
    </g>
  </g>
</svg>
